<?xml version="1.0" standalone="no"?>
<svg viewBox="0 0 1024 768" version="1.1" xmlns="http://www.w3.org/2000/svg" xmlns:xlink="http://www.w3.org/1999/xlink" stroke-linecap="round" stroke-linejoin="round" fill-rule="evenodd" xml:space="preserve" style="background-color:rgb(0,0,0);" >
<defs >
<clipPath id="clipId0" >
<path d="M0,768 1024,768 1024,0 0,0 z" />
</clipPath>
</defs>
<rect width="100%" height="100%" fill="rgb(0,0,0)" />
<g clip-path="url(#clipId0)" fill="none" stroke="rgb(255,255,255)" stroke-width="0.1" />
<g clip-path="url(#clipId0)" fill="none" stroke="rgb(35,31,32)" stroke-width="0.1" >
<polyline points="862.271,638.413 862.271,638.413 858.053,637.562 854.609,635.24 852.287,631.796 851.436,627.578 851.436,627.578 852.287,623.361 854.609,619.917 858.053,617.595 862.271,616.744 862.271,616.744 866.488,617.595 869.932,619.917 872.254,623.361 873.106,627.578 873.106,627.578 872.254,631.796 869.932,635.24 866.488,637.562 862.271,638.413 " />
<polyline points="189.902,268.435 124.893,268.435 124.893,264.101 189.902,264.101 189.902,268.435 " />
<polyline points="319.921,268.435 254.911,268.435 254.911,264.101 319.921,264.101 319.921,268.435 " />
<polyline points="996.613,535.323 996.613,536.877 996.613,541.123 996.613,547.441 996.613,555.208 996.613,572.608 996.613,580.996 996.613,588.35 996.613,594.046 996.613,597.464 996.644,598.169 997.078,598.169 1002.02,598.169 1006.97,598.169 1007.4,598.169 1007.43,598.169 1007.43,598.786 1007.43,600.638 1007.43,608.042 1007.42,637.661 1007.4,756.144 1007.43,756.144 1007.43,756.33 1007.43,758.307 1007.43,760.285 1007.43,760.458 1007.22,760.471 1004.17,760.471 997.769,760.471 988.378,760.471 976.355,760.471 962.059,760.471 945.848,760.471 928.083,760.471 889.322,760.471 848.647,760.471 808.93,760.471 790.327,760.471 773.04,760.471 757.428,760.471 743.85,760.471 732.664,760.471 724.23,760.471 718.906,760.471 717.052,760.471 717.052,759.102 717.052,756.82 717.041,756.144 717.03,756.144 717.029,756.144 717.029,755.964 717.03,753.36 717.031,747.896 717.033,739.878 717.035,729.614 717.038,717.409 717.041,703.57 717.044,688.403 717.051,655.311 717.066,586.678 717.069,570.796 717.072,556.037 717.075,542.709 717.078,531.117 717.08,521.567 717.081,514.367 717.082,509.822 717.083,508.239 718.937,508.239 724.26,508.239 732.694,508.239 743.88,508.239 757.457,508.239 773.069,508.239 790.355,508.239 808.958,508.239 848.675,508.239 889.348,508.239 928.108,508.239 945.873,508.239 962.083,508.239 976.379,508.239 988.401,508.239 997.792,508.239 1004.19,508.239 1007.24,508.239 1007.45,509.085 1007.45,511.625 1007.45,521.781 1007.45,531.938 1007.45,534.477 1007.44,535.323 1007.32,535.323 1005.75,535.323 1000.04,535.323 997.613,535.323 996.613,535.323 " />
<polyline points="363.97,44.9302 363.97,44.9302 " />
<polyline points="401.757,362.901 384.421,362.901 384.421,334.731 401.757,334.731 401.757,362.901 " />
<polyline points="371.419,362.901 354.084,362.901 354.084,334.731 371.419,334.731 371.419,362.901 " />
<polyline points="330.154,355.317 330.154,355.317 325.557,353.413 323.653,348.816 323.653,348.816 325.557,344.219 330.154,342.315 330.154,342.315 334.751,344.219 336.655,348.816 336.655,348.816 334.751,353.413 330.154,355.317 " />
<polyline points="297.499,355.317 297.499,355.317 292.903,353.413 290.999,348.816 290.999,348.816 292.903,344.219 297.499,342.315 297.499,342.315 302.096,344.219 304,348.816 304,348.816 302.096,353.413 297.499,355.317 " />
<polyline points="16.5467,7.52941 16.5467,9.41748 16.5467,14.2643 16.5467,27.9303 16.5467,34.2975 16.5467,38.7193 16.555,40.0338 16.8868,40.0338 20.2411,40.0338 20.8806,40.1957 20.8806,42.2308 20.8806,45.9551 20.8806,55.2017 20.8806,59.0895 20.8806,61.397 20.3317,61.7033 18.6121,61.7033 16.9623,61.7033 16.5467,62.3285 16.5467,65.0417 16.5467,69.1608 16.5467,78.347 16.5467,81.7795 16.5467,83.3484 17.3416,83.3729 20.6476,83.3729 20.8806,83.3751 20.8806,84.7284 20.8806,88.0215 20.8806,92.4372 20.8806,101.367 20.8806,104.246 20.8682,105.042 17.9658,105.042 16.6454,105.042 16.5467,105.243 16.5467,107.361 16.5467,124.226 16.5467,126.454 16.6294,126.712 17.918,126.712 20.8613,126.712 20.8806,127.408 20.8806,130.194 20.8806,139.066 20.8806,143.519 20.8806,146.892 20.8806,148.37 20.6716,148.382 17.3823,148.382 16.5467,148.39 16.5467,149.837 16.5467,153.191 16.5467,162.35 16.5467,166.521 16.5467,169.33 16.9313,170.051 18.5614,170.051 20.2961,170.051 20.8806,170.294 20.8806,172.495 20.8806,176.319 20.8806,185.569 20.8806,189.36 20.8806,191.506 20.278,191.721 16.9162,191.721 16.5607,191.721 16.5467,192.492 16.5467,195.348 16.5467,199.544 16.5467,208.688 16.5467,212.002 16.5467,213.386 19.2174,213.39 20.6832,213.39 20.8806,213.41 20.8806,214.949 20.8806,218.362 20.8806,222.832 20.8806,231.674 20.8806,234.411 20.8573,235.06 19.7419,235.06 16.6219,235.06 16.5467,235.35 16.5467,237.631 16.5467,246.149 16.5467,254.492 16.5467,256.555 16.6539,256.729 19.8315,256.729 20.8711,256.729 20.8806,257.579 20.8806,260.504 20.8806,269.46 20.8806,273.856 20.8806,277.108 20.8806,278.399 20.6352,278.399 19.1179,278.399 17.3215,278.399 16.5467,278.434 16.5467,280.063 16.5467,283.534 16.5467,292.732 16.5467,296.824 16.5467,299.489 16.9781,300.069 20.3492,300.069 20.8806,300.409 20.8806,302.769 20.8806,306.688 20.8806,315.931 20.8806,319.621 20.8806,321.6 20.2224,321.738 18.4603,321.738 16.8725,321.738 16.5526,321.738 16.5467,322.669 16.5467,325.662 16.5467,329.93 16.5467,339.022 16.5467,342.212 16.5469,343.408 17.4658,343.408 20.716,343.408 20.8806,343.462 20.8806,345.181 20.8806,353.228 20.8806,361.972 20.8806,364.563 20.8432,365.077 17.8236,365.077 16.6015,365.077 16.5467,365.472 16.5467,367.91 16.5467,376.547 16.5467,384.747 16.5467,386.64 16.6812,386.747 18.0625,386.747 20.8775,386.747 20.8806,387.763 20.8806,390.823 20.8806,399.852 20.8806,404.187 20.8806,407.312 20.8794,408.416 20.5963,408.416 17.2624,408.416 16.5467,408.495 16.5467,410.301 16.5467,413.884 16.5467,423.11 16.5467,427.118 16.5467,429.633 16.5467,431.287 16.5467,435.503 16.5467,439.72 16.5467,440.806 16.9993,440.921 19.5143,440.921 23.5224,440.921 32.7481,440.921 36.3312,440.921 38.1378,440.921 38.2163,440.205 38.2163,436.871 38.2163,436.588 39.3207,436.587 42.4458,436.587 46.7807,436.587 55.81,436.587 58.8697,436.587 59.8858,436.59 59.8858,439.405 59.8858,440.786 59.9922,440.921 61.8856,440.921 70.0861,440.921 78.7225,440.921 81.1608,440.921 81.5554,440.866 81.5554,439.644 81.5554,436.624 82.0697,436.587 84.6601,436.587 93.4046,436.587 101.452,436.587 103.17,436.587 103.225,436.751 103.225,440.002 103.225,440.92 104.421,440.921 107.61,440.921 116.702,440.921 120.97,440.921 123.963,440.921 124.895,440.915 124.895,440.595 124.895,439.007 124.895,437.245 125.033,436.587 127.012,436.587 130.702,436.587 139.945,436.587 143.863,436.587 146.224,436.587 146.564,437.118 146.564,440.489 147.144,440.921 149.808,440.921 153.9,440.921 163.098,440.921 166.569,440.921 168.199,440.921 168.234,440.146 168.234,438.35 168.234,436.832 168.234,436.587 169.524,436.587 172.776,436.587 177.173,436.587 186.129,436.587 189.054,436.587 189.903,436.596 189.903,437.636 189.903,440.814 190.078,440.921 192.141,440.921 200.484,440.921 209.002,440.921 211.283,440.921 211.573,440.845 211.573,437.725 211.573,436.61 212.221,436.587 214.959,436.587 223.801,436.587 228.271,436.587 231.684,436.587 233.223,436.587 233.242,436.784 233.242,438.25 233.246,440.921 234.631,440.921 237.944,440.921 247.089,440.921 251.285,440.921 254.141,440.921 254.912,440.907 254.912,440.551 254.912,437.189 255.126,436.587 257.272,436.587 261.064,436.587 270.314,436.587 274.138,436.587 276.338,436.587 276.581,437.171 276.581,438.906 276.581,440.536 277.302,440.921 280.111,440.921 284.282,440.921 293.442,440.921 296.796,440.921 298.242,440.921 298.251,440.085 298.251,436.796 298.263,436.587 299.74,436.587 303.114,436.587 307.567,436.587 316.439,436.587 319.224,436.587 319.921,436.606 319.921,439.549 319.921,440.838 320.179,440.921 322.406,440.921 339.271,440.921 341.389,440.921 341.59,440.822 341.59,439.502 341.59,436.599 342.387,436.587 345.266,436.587 354.195,436.587 358.611,436.587 361.904,436.587 363.258,436.587 363.26,436.82 363.26,440.126 363.284,440.921 364.853,440.921 368.286,440.921 377.472,440.921 381.591,440.921 384.304,440.921 384.929,440.505 384.929,438.855 384.929,437.136 385.236,436.587 387.543,436.587 391.431,436.587 400.678,436.587 404.402,436.587 406.437,436.587 406.599,437.226 406.599,440.581 406.599,440.912 407.475,440.921 410.423,440.921 414.668,440.921 423.778,440.921 427.01,440.921 428.268,440.921 428.268,439.033 428.268,434.186 428.268,420.52 428.268,414.153 428.268,409.731 428.26,408.416 427.928,408.416 424.574,408.416 423.935,408.254 423.935,406.219 423.935,402.495 423.935,393.248 423.935,389.361 423.935,387.053 424.483,386.747 426.203,386.747 427.853,386.747 428.268,386.122 428.268,383.408 428.268,379.289 428.268,370.103 428.268,366.671 428.268,365.102 427.474,365.077 424.168,365.077 423.935,365.075 423.935,363.722 423.935,360.429 423.935,356.013 423.935,347.084 423.935,344.205 423.947,343.408 426.849,343.408 428.17,343.408 428.268,343.207 428.268,341.089 428.268,324.224 428.268,321.997 428.186,321.738 426.897,321.738 423.954,321.738 423.935,321.042 423.935,318.256 423.935,309.384 423.935,304.932 423.935,301.558 423.935,300.081 424.144,300.069 427.433,300.069 428.268,300.06 428.268,298.613 428.268,295.259 428.268,286.1 428.268,281.929 428.268,279.12 427.884,278.399 426.254,278.399 424.519,278.399 423.935,278.156 423.935,275.955 423.935,272.131 423.935,262.881 423.935,259.09 423.935,256.944 424.537,256.729 427.899,256.729 428.254,256.729 428.268,255.958 428.268,253.102 428.268,248.906 428.268,239.762 428.268,236.448 428.268,235.064 425.598,235.06 424.132,235.06 423.935,235.04 423.935,233.501 423.935,230.088 423.935,225.618 423.935,216.776 423.935,214.039 423.958,213.39 425.073,213.39 428.193,213.39 428.268,213.1 428.268,210.819 428.268,202.302 428.268,193.958 428.268,191.895 428.161,191.721 424.984,191.721 423.944,191.721 423.935,190.871 423.935,187.946 423.935,178.99 423.935,174.594 423.935,171.342 423.935,170.051 424.18,170.051 425.697,170.051 427.494,170.051 428.268,170.016 428.268,168.387 428.268,164.916 428.268,155.718 428.268,151.626 428.268,148.961 427.837,148.382 424.466,148.382 423.935,148.041 423.935,145.681 423.935,141.762 423.935,132.519 423.935,128.829 423.935,126.85 424.593,126.712 426.355,126.712 427.943,126.712 428.263,126.712 428.268,125.781 428.268,122.788 428.268,118.52 428.268,109.428 428.268,106.238 428.268,105.042 427.349,105.042 424.099,105.042 423.935,104.988 423.935,103.269 423.935,95.2221 423.935,86.4776 423.935,83.8872 423.972,83.3729 426.992,83.3729 428.214,83.3729 428.268,82.9783 428.268,80.54 428.268,71.9036 428.268,63.7031 428.268,61.8097 428.134,61.7033 426.753,61.7033 423.938,61.7033 423.935,60.6872 423.935,57.6274 423.935,48.5981 423.935,44.2633 423.935,41.1381 423.936,40.0338 424.219,40.0338 427.553,40.0338 428.268,39.9553 428.268,38.1486 428.268,34.5656 428.268,25.3399 428.268,21.3318 428.268,18.8168 428.268,17.1633 428.268,12.9468 428.268,8.73032 428.268,7.64376 427.816,7.52941 425.301,7.52941 421.293,7.52941 412.067,7.52941 408.484,7.52941 406.677,7.52941 406.599,8.24507 406.599,11.579 406.599,11.8621 405.494,11.8633 402.369,11.8633 398.034,11.8633 389.005,11.8633 385.945,11.8633 384.929,11.8602 384.929,9.0452 384.929,7.66387 384.823,7.52941 382.93,7.52941 374.729,7.52941 366.093,7.52941 363.654,7.52941 363.26,7.58421 363.26,8.80629 363.26,11.8259 362.745,11.8633 360.155,11.8633 351.411,11.8633 343.363,11.8633 341.645,11.8633 341.59,11.6987 341.59,8.44852 341.59,7.52961 340.394,7.52941 337.205,7.52941 328.113,7.52941 323.845,7.52941 320.852,7.52941 319.921,7.53533 319.921,7.85516 319.921,9.44294 319.921,11.2051 319.782,11.8633 317.803,11.8633 314.114,11.8633 304.87,11.8633 300.952,11.8633 298.591,11.8633 298.251,11.3319 298.251,7.96081 297.671,7.52941 295.007,7.52941 290.915,7.52941 281.717,7.52941 278.246,7.52941 276.617,7.52941 276.581,8.30423 276.581,10.1006 276.581,11.6179 276.581,11.8633 275.291,11.8633 272.039,11.8633 267.643,11.8633 258.686,11.8633 255.761,11.8633 254.912,11.8538 254.912,10.8142 254.912,7.63654 254.737,7.52941 252.675,7.52941 244.331,7.52941 235.813,7.52941 233.532,7.52941 233.242,7.60463 233.242,10.7246 233.242,11.84 232.594,11.8633 229.856,11.8633 221.014,11.8633 216.544,11.8633 213.131,11.8633 211.593,11.8633 211.573,11.6658 211.573,10.2001 211.569,7.52941 210.184,7.52941 206.871,7.52941 197.726,7.52941 193.53,7.52941 190.674,7.52941 189.903,7.54343 189.903,7.89892 189.903,11.2607 189.689,11.8633 187.543,11.8633 183.752,11.8633 174.501,11.8633 170.677,11.8633 168.477,11.8633 168.234,11.2788 168.234,9.54412 168.234,7.91402 167.513,7.52941 164.704,7.52941 160.533,7.52941 151.373,7.52941 148.02,7.52941 146.573,7.52941 146.564,8.36503 146.564,11.6543 146.552,11.8633 145.075,11.8633 141.701,11.8633 137.248,11.8633 128.376,11.8633 125.591,11.8633 124.895,11.844 124.895,8.90069 124.895,7.61212 124.636,7.52941 122.409,7.52941 105.544,7.52941 103.426,7.52941 103.225,7.62807 103.225,8.9485 103.225,11.8509 102.428,11.8633 99.549,11.8633 90.6197,11.8633 86.2041,11.8633 82.9109,11.8633 81.5576,11.8633 81.5554,11.6303 81.5554,8.32432 81.5309,7.52941 79.962,7.52941 76.5295,7.52941 67.3433,7.52941 63.2242,7.52941 60.511,7.52941 59.8858,7.94497 59.8858,9.59483 59.8858,11.3144 59.5795,11.8633 57.272,11.8633 53.3843,11.8633 44.1376,11.8633 40.4133,11.8633 38.3782,11.8633 38.2163,11.2238 38.2163,7.86949 38.2163,7.53765 37.34,7.52941 34.3921,7.52941 30.1473,7.52941 21.0367,7.52941 17.8054,7.52941 16.5467,7.52941 " />
<circle cx="339.341" cy="46.5407" r="2.16696" />
<circle cx="393.082" cy="100.499" r="2.16696" />
<circle cx="339.341" cy="100.499" r="2.16696" />
<circle cx="393.082" cy="46.5407" r="2.16696" />
<polyline points="395.463,50.8744 395.463,96.3824 380.296,96.3824 380.296,105.051 352.126,105.051 352.126,96.3824 336.959,96.3824 336.959,50.8744 354.297,50.8744 354.297,42.2055 378.133,42.2055 378.133,50.8744 395.463,50.8744 " />
</g>
</svg>
