0
SECTION
2
HEADER
9
$INSUNITS
70
4
0
ENDSEC
0
SECTION
2
TABLES
0
TABLE
2
LTYPE
0
LTYPE
72
65
70
64
2
CONTINUOUS
3
______
73
0
40
0
0
ENDTAB
0
TABLE
2
LAYER
0
ENDTAB
0
ENDSEC
0
SECTION
2
ENTITIES
0
LINE
8
front_outsideCutPath
10
0
20
58
11
0
21
46.625
0
LINE
8
front_outsideCutPath
10
0
20
46.625
11
2
21
46.625
0
LINE
8
front_outsideCutPath
10
2
20
46.625
11
2
21
35.875
0
LINE
8
front_outsideCutPath
10
2
20
35.875
11
0
21
35.875
0
LINE
8
front_outsideCutPath
10
0
20
35.875
11
0
21
25.125
0
LINE
8
front_outsideCutPath
10
0
20
25.125
11
2
21
25.125
0
LINE
8
front_outsideCutPath
10
2
20
25.125
11
2
21
14.375
0
LINE
8
front_outsideCutPath
10
2
20
14.375
11
0
21
14.375
0
LINE
8
front_outsideCutPath
10
0
20
14.375
11
0
21
3
0
LINE
8
front_outsideCutPath
10
0
20
3
11
6.375
21
3
0
LINE
8
front_outsideCutPath
10
6.375
20
3
11
6.375
21
5
0
LINE
8
front_outsideCutPath
10
6.375
20
5
11
17.125
21
5
0
LINE
8
front_outsideCutPath
10
17.125
20
5
11
17.125
21
3
0
LINE
8
front_outsideCutPath
10
17.125
20
3
11
27.875
21
3
0
LINE
8
front_outsideCutPath
10
27.875
20
3
11
27.875
21
5
0
LINE
8
front_outsideCutPath
10
27.875
20
5
11
38.625
21
5
0
LINE
8
front_outsideCutPath
10
38.625
20
5
11
38.625
21
3
0
LINE
8
front_outsideCutPath
10
38.625
20
3
11
45
21
3
0
LINE
8
front_outsideCutPath
10
45
20
3
11
45
21
14.375
0
LINE
8
front_outsideCutPath
10
45
20
14.375
11
43
21
14.375
0
LINE
8
front_outsideCutPath
10
43
20
14.375
11
43
21
25.125
0
LINE
8
front_outsideCutPath
10
43
20
25.125
11
45
21
25.125
0
LINE
8
front_outsideCutPath
10
45
20
25.125
11
45
21
35.875
0
LINE
8
front_outsideCutPath
10
45
20
35.875
11
43
21
35.875
0
LINE
8
front_outsideCutPath
10
43
20
35.875
11
43
21
46.625
0
LINE
8
front_outsideCutPath
10
43
20
46.625
11
45
21
46.625
0
LINE
8
front_outsideCutPath
10
45
20
46.625
11
45
21
58
0
LINE
8
front_outsideCutPath
10
45
20
58
11
0
21
58
0
LINE
8
front_labelLayer
10
15.0446777
20
31.9173315
11
15.0446777
21
31.350437
0
LINE
8
front_labelLayer
10
15.0446777
20
31.350437
11
13.8186035
21
31.350437
0
LINE
8
front_labelLayer
10
13.8186035
20
31.350437
11
13.8186035
21
27.1009253
0
LINE
8
front_labelLayer
10
13.8186035
20
27.1009253
11
13.0891113
21
27.1009253
0
LINE
8
front_labelLayer
10
13.0891113
20
27.1009253
11
13.0891113
21
31.350437
0
LINE
8
front_labelLayer
10
13.0891113
20
31.350437
11
12.2277832
21
31.350437
0
LINE
8
front_labelLayer
10
12.2277832
20
31.350437
11
12.2277832
21
31.6800268
0
LINE
8
front_labelLayer
10
12.2277832
20
31.6800268
11
13.0891113
21
31.9436987
0
LINE
8
front_labelLayer
10
13.0891113
20
31.9436987
11
13.0891113
21
32.2117651
0
LINE
8
front_labelLayer
10
15.5368652
20
33.8333472
11
15.3479004
21
33.2488745
0
LINE
8
front_labelLayer
10
13.8186035
20
32.2293433
11
13.8186035
21
31.9173315
0
LINE
8
front_labelLayer
10
13.8186035
20
31.9173315
11
15.0446777
21
31.9173315
0
ARC
8
front_labelLayer
10
16.0454886
20
32.2457531
40
2.9565726
50
167.5775978
51
180.658672
0
ARC
8
front_labelLayer
10
14.6552094
20
32.569886
40
1.5292156
50
141.743368
51
168.2322196
0
ARC
8
front_labelLayer
10
14.4288453
20
32.6880316
40
1.2791884
50
98.2551388
51
139.6203434
0
ARC
8
front_labelLayer
10
14.6275991
20
31.7698686
40
2.2173242
50
89.6697178
51
99.9314496
0
ARC
8
front_labelLayer
10
14.6281509
20
31.6380507
40
2.3491369
50
81.564068
51
89.7017098
0
ARC
8
front_labelLayer
10
14.4629934
20
30.4858326
40
3.5131225
50
75.9740374
51
81.6564368
0
ARC
8
front_labelLayer
10
14.1795885
20
29.3103559
40
4.7222504
50
73.296347
51
76.0945791
0
ARC
8
front_labelLayer
10
14.2509767
20
29.8806263
40
3.5423633
50
71.9613349
51
76.5918679
0
ARC
8
front_labelLayer
10
14.5257892
20
31.0464136
40
2.3446288
50
76.518368
51
83.0216816
0
ARC
8
front_labelLayer
10
14.6215209
20
31.8162804
40
1.5688349
50
83.0760433
51
89.7926917
0
ARC
8
front_labelLayer
10
14.618371
20
32.4013421
40
0.9838024
50
89.4859617
51
103.4197451
0
ARC
8
front_labelLayer
10
14.5296741
20
32.7421074
40
0.6317974
50
102.7677589
51
144.3380086
0
ARC
8
front_labelLayer
10
14.7083651
20
32.6271371
40
0.8440752
50
145.0689088
51
162.1801218
0
ARC
8
front_labelLayer
10
15.3210322
20
32.4210072
40
1.4904552
50
161.8438064
51
171.7846357
0
ARC
8
front_labelLayer
10
16.3202968
20
32.2709236
40
2.500918
50
171.6528095
51
178.4383074
0
ARC
8
front_labelLayer
10
17.2625709
20
32.2307422
40
3.4439676
50
178.1973033
51
180.0232743
0
LINE
8
front_labelLayer
10
18.6965332
20
31.9524878
11
18.595459
21
31.27573
0
LINE
8
front_labelLayer
10
16.6530762
20
29.6849097
11
16.6530762
21
27.1009253
0
LINE
8
front_labelLayer
10
16.6530762
20
27.1009253
11
15.923584
21
27.1009253
0
LINE
8
front_labelLayer
10
15.923584
20
27.1009253
11
15.923584
21
31.9173315
0
LINE
8
front_labelLayer
10
15.923584
20
31.9173315
11
16.5256347
21
31.9173315
0
LINE
8
front_labelLayer
10
16.5256347
20
31.9173315
11
16.6091308
21
31.0252417
0
LINE
8
front_labelLayer
10
16.6091308
20
31.0252417
11
16.6442871
21
31.0252417
0
ARC
8
front_labelLayer
10
18.1283351
20
28.6562397
40
3.3489908
50
84.9922642
51
90.1280647
0
ARC
8
front_labelLayer
10
18.2087646
20
29.5573327
40
2.4443172
50
78.4892326
51
85.0266253
0
ARC
8
front_labelLayer
10
17.8966095
20
28.1375873
40
3.2150164
50
77.4453678
51
81.6360888
0
ARC
8
front_labelLayer
10
18.036675
20
29.1030819
40
2.2394175
50
81.5883742
51
87.1916342
0
ARC
8
front_labelLayer
10
18.067095
20
29.6304419
40
1.7112063
50
87.3438175
51
89.9658405
0
ARC
8
front_labelLayer
10
18.060031
20
30.0776798
40
1.263994
50
89.6335478
51
137.0880873
0
ARC
8
front_labelLayer
10
18.3703091
20
29.7287761
40
1.7293683
50
135.6209672
51
138.8376023
0
ARC
8
front_labelLayer
10
18.3247831
20
29.7732119
40
1.6658503
50
138.957579
51
174.5422287
0
ARC
8
front_labelLayer
10
18.867331
20
29.6883194
40
2.2142576
50
173.6907587
51
180.0882292
0
ARC
8
front_labelLayer
10
18.7906085
20
29.8160145
40
2.463519
50
139.4139409
51
150.6032979
0
ARC
8
front_labelLayer
10
18.3488971
20
30.1945143
40
1.8818222
50
124.2321387
51
139.4161072
0
ARC
8
front_labelLayer
10
18.1127194
20
30.5510245
40
1.4542206
50
89.6796733
51
124.4405786
0
ARC
8
front_labelLayer
10
19.9866
20
29.4881201
40
3.7681243
50
349.176186
51
0.3862627
0
ARC
8
front_labelLayer
10
21.2552428
20
29.2352123
40
2.474579
50
330.2506862
51
349.4116721
0
ARC
8
front_labelLayer
10
21.6456526
20
29.0322943
40
2.0350099
50
318.1439871
51
329.7565781
0
ARC
8
front_labelLayer
10
21.7161255
20
28.9758175
40
1.9448416
50
278.895929
51
317.9979055
0
ARC
8
front_labelLayer
10
21.5345626
20
29.8457063
40
2.8326985
50
269.7502858
51
279.8033132
0
ARC
8
front_labelLayer
10
21.5051165
20
29.3555736
40
2.3426014
50
253.5436755
51
270.4182467
0
ARC
8
front_labelLayer
10
21.4271348
20
29.0539242
40
2.0312459
50
238.8115288
51
253.2428349
0
ARC
8
front_labelLayer
10
21.4019694
20
29.0033175
40
1.9749271
50
207.7947115
51
238.6757922
0
ARC
8
front_labelLayer
10
21.7630766
20
29.2244842
40
2.3976573
50
205.6560898
51
208.4462248
0
ARC
8
front_labelLayer
10
22.0412614
20
29.340392
40
2.6986471
50
188.9102648
51
205.3171319
0
ARC
8
front_labelLayer
10
22.9786735
20
29.4991571
40
3.6493559
50
179.7744518
51
189.0932639
0
ARC
8
front_labelLayer
10
23.1169536
20
29.5391777
40
3.7876948
50
169.2442964
51
180.3880785
0
ARC
8
front_labelLayer
10
21.830681
20
29.7934279
40
2.4765901
50
150.7111513
51
169.4695588
0
ARC
8
front_labelLayer
10
21.4200786
20
30.0042843
40
2.015395
50
138.1759981
51
150.2286925
0
ARC
8
front_labelLayer
10
21.351761
20
30.0567094
40
1.9295365
50
99.1759267
51
137.9832778
0
ARC
8
front_labelLayer
10
21.5397584
20
29.1719651
40
2.8332879
50
89.7326569
51
100.075952
0
ARC
8
front_labelLayer
10
21.5773311
20
29.5540618
40
2.4512813
50
73.5222889
51
90.5692228
0
ARC
8
front_labelLayer
10
21.7210843
20
30.0763579
40
1.909689
50
41.1445501
51
73.2133805
0
ARC
8
front_labelLayer
10
21.4466696
20
29.8405021
40
2.2715236
50
13.5014467
51
41.07033
0
ARC
8
front_labelLayer
10
20.3864855
20
29.5630662
40
3.3672549
50
1.1277041
51
13.8800057
0
ARC
8
front_labelLayer
10
19.4734682
20
29.5141282
40
4.2811705
50
359.9919002
51
1.5420457
0
ARC
8
front_labelLayer
10
23.7792998
20
29.4945663
40
3.6941433
50
179.7059835
51
187.9160785
0
ARC
8
front_labelLayer
10
22.4243939
20
29.2999355
40
2.3253518
50
187.7639257
51
200.0977047
0
ARC
8
front_labelLayer
10
21.6779906
20
29.0264513
40
1.5304234
50
200.0845794
51
216.9131653
0
ARC
8
front_labelLayer
10
21.4054309
20
28.8318305
40
1.1956365
50
217.3009476
51
261.7099072
0
ARC
8
front_labelLayer
10
21.5319618
20
29.4356233
40
1.8117656
50
260.503323
51
270.2477159
0
ARC
8
front_labelLayer
10
21.5561136
20
29.3182231
40
1.6944271
50
269.4481884
51
284.7255567
0
ARC
8
front_labelLayer
10
21.6902524
20
28.8207457
40
1.1791976
50
284.5662076
51
322.6333899
0
ARC
8
front_labelLayer
10
21.3766263
20
29.0473258
40
1.5660057
50
323.0089607
51
342.6390112
0
ARC
8
front_labelLayer
10
20.4795977
20
29.3404979
40
2.5096783
50
342.3616026
51
353.7537335
0
ARC
8
front_labelLayer
10
19.1561843
20
29.5000162
40
3.8426188
50
353.5363195
51
0.2013938
0
ARC
8
front_labelLayer
10
19.3589949
20
29.5321019
40
3.6398318
50
359.7075417
51
7.8973047
0
ARC
8
front_labelLayer
10
20.6919822
20
29.7232002
40
2.2932383
50
7.7439945
51
20.0689969
0
ARC
8
front_labelLayer
10
21.4348
20
29.995786
40
1.5019865
50
20.0256834
51
37.435074
0
ARC
8
front_labelLayer
10
21.6812551
20
30.1706674
40
1.2000369
50
37.9577656
51
80.4006217
0
ARC
8
front_labelLayer
10
21.5412005
20
29.5457549
40
1.8398665
50
79.3453632
51
90.3174777
0
ARC
8
front_labelLayer
10
21.5152684
20
29.6495537
40
1.7361109
50
89.4806194
51
103.8804923
0
ARC
8
front_labelLayer
10
21.3693905
20
30.2050596
40
1.161861
50
103.4685453
51
142.3118881
0
ARC
8
front_labelLayer
10
21.6529903
20
30.0056124
40
1.5083029
50
142.9025852
51
162.3749368
0
ARC
8
front_labelLayer
10
22.5465967
20
29.7078194
40
2.4501653
50
162.0652816
51
173.1674956
0
ARC
8
front_labelLayer
10
23.9400198
20
29.530098
40
3.8548504
50
173.008644
51
180.2463605
0
LINE
8
front_labelLayer
10
29.0588379
20
27.1009253
11
28.3293457
21
27.1009253
0
LINE
8
front_labelLayer
10
28.3293457
20
27.1009253
11
28.3293457
21
30.2166479
0
LINE
8
front_labelLayer
10
25.7629394
20
29.6277808
11
25.7629394
21
27.1009253
0
LINE
8
front_labelLayer
10
25.7629394
20
27.1009253
11
25.0334472
21
27.1009253
0
LINE
8
front_labelLayer
10
25.0334472
20
27.1009253
11
25.0334472
21
31.9173315
0
LINE
8
front_labelLayer
10
25.0334472
20
31.9173315
11
25.626709
21
31.9173315
0
LINE
8
front_labelLayer
10
25.626709
20
31.9173315
11
25.7453613
21
31.2581518
0
LINE
8
front_labelLayer
10
25.7453613
20
31.2581518
11
25.7805176
21
31.2581518
0
LINE
8
front_labelLayer
10
29.0588379
20
30.2430151
11
29.0588379
21
27.1009253
0
ARC
8
front_labelLayer
10
26.2672927
20
30.2284751
40
2.0620869
50
359.671377
51
8.6877073
0
ARC
8
front_labelLayer
10
27.0315563
20
30.3496814
40
1.2882914
50
8.4931487
51
22.6579776
0
ARC
8
front_labelLayer
10
27.4198601
20
30.5110486
40
0.8677935
50
22.7024167
51
42.3419508
0
ARC
8
front_labelLayer
10
27.463507
20
30.5306819
40
0.8224429
50
43.379101
51
71.5386251
0
ARC
8
front_labelLayer
10
27.300288
20
30.0746054
40
1.3067757
50
71.0828185
51
84.3690847
0
ARC
8
front_labelLayer
10
27.2270245
20
29.451707
40
1.933893
50
84.0197413
51
90.1511199
0
ARC
8
front_labelLayer
10
27.2062525
20
29.1778178
40
2.2078311
50
89.5933071
51
100.371816
0
ARC
8
front_labelLayer
10
27.0502282
20
29.9964238
40
1.3745247
50
100.1176733
51
118.1602134
0
ARC
8
front_labelLayer
10
26.8929947
20
30.3047501
40
1.028513
50
118.5439863
51
139.1926251
0
ARC
8
front_labelLayer
10
27.0300914
20
30.2127589
40
1.192568
50
140.1519232
51
160.3146612
0
ARC
8
front_labelLayer
10
27.8580001
20
29.9026605
40
2.0765904
50
159.9534715
51
171.3801062
0
ARC
8
front_labelLayer
10
29.2103903
20
29.6852681
40
3.4463088
50
171.1765713
51
178.3217416
0
ARC
8
front_labelLayer
10
30.4362968
20
29.6297045
40
4.6733579
50
178.0809933
51
180.0235851
0
ARC
8
front_labelLayer
10
27.0284254
20
30.4678099
40
1.4771305
50
116.9442866
51
147.652545
0
ARC
8
front_labelLayer
10
27.182268
20
30.2104764
40
1.7763584
50
115.8073843
51
117.6067693
0
ARC
8
front_labelLayer
10
27.2607778
20
30.027381
40
1.9753919
50
94.3226811
51
115.545451
0
ARC
8
front_labelLayer
10
27.3080608
20
29.6165359
40
2.3886869
50
89.9579371
51
94.7108236
0
ARC
8
front_labelLayer
10
27.3275997
20
29.1251089
40
2.8801681
50
80.558546
51
90.3538075
0
ARC
8
front_labelLayer
10
27.5075918
20
30.1676955
40
1.8221907
50
65.1094563
51
80.7638174
0
ARC
8
front_labelLayer
10
27.7179946
20
30.6337342
40
1.3108955
50
46.5584649
51
64.8782461
0
ARC
8
front_labelLayer
10
27.734835
20
30.6822808
40
1.2642443
50
19.3848707
51
45.599719
0
ARC
8
front_labelLayer
10
27.0034307
20
30.4078448
40
2.0453375
50
6.9633528
51
19.8363433
0
ARC
8
front_labelLayer
10
25.8753937
20
30.2561765
40
3.1834714
50
359.7631228
51
7.2115912
0
LINE
8
front_labelLayer
10
32.7722168
20
27.7029761
11
32.7722168
21
27.1448706
0
LINE
8
front_labelLayer
10
30.6101074
20
28.4852026
11
30.6101074
21
31.350437
0
LINE
8
front_labelLayer
10
30.6101074
20
31.350437
11
29.920166
21
31.350437
0
LINE
8
front_labelLayer
10
29.920166
20
31.350437
11
29.920166
21
31.7019995
0
LINE
8
front_labelLayer
10
29.920166
20
31.7019995
11
30.6101074
21
32.0052222
0
LINE
8
front_labelLayer
10
30.6101074
20
32.0052222
11
30.9177246
21
33.0335425
0
LINE
8
front_labelLayer
10
30.9177246
20
33.0335425
11
31.3395996
21
33.0335425
0
LINE
8
front_labelLayer
10
31.3395996
20
33.0335425
11
31.3395996
21
31.9173315
0
LINE
8
front_labelLayer
10
31.3395996
20
31.9173315
11
32.7370605
21
31.9173315
0
LINE
8
front_labelLayer
10
32.7370605
20
31.9173315
11
32.7370605
21
31.350437
0
LINE
8
front_labelLayer
10
32.7370605
20
31.350437
11
31.3395996
21
31.350437
0
LINE
8
front_labelLayer
10
31.3395996
20
31.350437
11
31.3395996
21
28.5159643
0
ARC
8
front_labelLayer
10
32.1180399
20
30.0108216
40
2.3957414
50
269.8803549
51
278.3028703
0
ARC
8
front_labelLayer
10
32.1409346
20
29.8238909
40
2.2074682
50
278.4154932
51
279.0082385
0
ARC
8
front_labelLayer
10
31.8721347
20
31.5411536
40
3.9456392
50
278.9588888
51
280.510577
0
ARC
8
front_labelLayer
10
32.1282748
20
30.1668939
40
2.5477139
50
280.4846244
51
282.6269211
0
ARC
8
front_labelLayer
10
32.3528944
20
29.1690075
40
1.5248603
50
282.587572
51
285.5793792
0
ARC
8
front_labelLayer
10
32.4642593
20
28.7591764
40
1.1001804
50
285.7250075
51
286.2551572
0
ARC
8
front_labelLayer
10
32.4655154
20
27.7935631
40
0.7175429
50
287.9888619
51
295.3047535
0
ARC
8
front_labelLayer
10
32.2924347
20
28.3172254
40
1.2690629
50
283.3070714
51
288.1196181
0
ARC
8
front_labelLayer
10
32.1096365
20
29.0797413
40
2.0531816
50
280.0069965
51
283.3735444
0
ARC
8
front_labelLayer
10
31.9872811
20
29.7437111
40
2.7283164
50
279.1864695
51
280.1144539
0
ARC
8
front_labelLayer
10
31.9122223
20
30.1706757
40
3.1617932
50
275.5260369
51
279.2939649
0
ARC
8
front_labelLayer
10
31.9968396
20
29.2868224
40
2.2738993
50
270.8931608
51
275.5484466
0
ARC
8
front_labelLayer
10
32.0074655
20
28.8820417
40
1.8690071
50
270.0031525
51
270.7608841
0
ARC
8
front_labelLayer
10
31.978131
20
28.9181333
40
1.9053261
50
253.7847922
51
270.8852573
0
ARC
8
front_labelLayer
10
31.7524005
20
28.148307
40
1.1030908
50
190.3817648
51
253.8772446
0
ARC
8
front_labelLayer
10
32.902944
20
28.4593933
40
2.2929817
50
179.3550776
51
192.8477524
0
ARC
8
front_labelLayer
10
32.8085357
20
28.5067771
40
1.4689649
50
179.6416581
51
189.7505266
0
ARC
8
front_labelLayer
10
32.2899562
20
28.4142838
40
0.9422177
50
189.5479465
51
205.7873647
0
ARC
8
front_labelLayer
10
32.0768419
20
28.3160091
40
0.7075864
50
206.1293733
51
221.4084476
0
ARC
8
front_labelLayer
10
32.0529508
20
28.2978805
40
0.6776806
50
221.5949082
51
262.3505276
0
ARC
8
front_labelLayer
10
32.1097802
20
28.5901182
40
0.9750381
50
261.3266406
51
270.1913857
0
LINE
8
left_outsideCutPath
10
50
20
58
11
50
21
46.625
0
LINE
8
left_outsideCutPath
10
50
20
46.625
11
48
21
46.625
0
LINE
8
left_outsideCutPath
10
48
20
46.625
11
48
21
35.875
0
LINE
8
left_outsideCutPath
10
48
20
35.875
11
50
21
35.875
0
LINE
8
left_outsideCutPath
10
50
20
35.875
11
50
21
25.125
0
LINE
8
left_outsideCutPath
10
50
20
25.125
11
48
21
25.125
0
LINE
8
left_outsideCutPath
10
48
20
25.125
11
48
21
14.375
0
LINE
8
left_outsideCutPath
10
48
20
14.375
11
50
21
14.375
0
LINE
8
left_outsideCutPath
10
50
20
14.375
11
50
21
3
0
LINE
8
left_outsideCutPath
10
50
20
3
11
64.375
21
3
0
LINE
8
left_outsideCutPath
10
64.375
20
3
11
64.375
21
5
0
LINE
8
left_outsideCutPath
10
64.375
20
5
11
75.125
21
5
0
LINE
8
left_outsideCutPath
10
75.125
20
5
11
75.125
21
3
0
LINE
8
left_outsideCutPath
10
75.125
20
3
11
85.875
21
3
0
LINE
8
left_outsideCutPath
10
85.875
20
3
11
85.875
21
5
0
LINE
8
left_outsideCutPath
10
85.875
20
5
11
96.625
21
5
0
LINE
8
left_outsideCutPath
10
96.625
20
5
11
96.625
21
3
0
LINE
8
left_outsideCutPath
10
96.625
20
3
11
107.375
21
3
0
LINE
8
left_outsideCutPath
10
107.375
20
3
11
107.375
21
5
0
LINE
8
left_outsideCutPath
10
107.375
20
5
11
118.125
21
5
0
LINE
8
left_outsideCutPath
10
118.125
20
5
11
118.125
21
3
0
LINE
8
left_outsideCutPath
10
118.125
20
3
11
128.875
21
3
0
LINE
8
left_outsideCutPath
10
128.875
20
3
11
128.875
21
5
0
LINE
8
left_outsideCutPath
10
128.875
20
5
11
139.625
21
5
0
LINE
8
left_outsideCutPath
10
139.625
20
5
11
139.625
21
3
0
LINE
8
left_outsideCutPath
10
139.625
20
3
11
150.375
21
3
0
LINE
8
left_outsideCutPath
10
150.375
20
3
11
154
21
3
0
LINE
8
left_outsideCutPath
10
154
20
3
11
154
21
14.375
0
LINE
8
left_outsideCutPath
10
154
20
14.375
11
156
21
14.375
0
LINE
8
left_outsideCutPath
10
156
20
14.375
11
156
21
25.125
0
LINE
8
left_outsideCutPath
10
156
20
25.125
11
154
21
25.125
0
LINE
8
left_outsideCutPath
10
154
20
25.125
11
154
21
35.875
0
LINE
8
left_outsideCutPath
10
154
20
35.875
11
156
21
35.875
0
LINE
8
left_outsideCutPath
10
156
20
35.875
11
156
21
46.625
0
LINE
8
left_outsideCutPath
10
156
20
46.625
11
154
21
46.625
0
LINE
8
left_outsideCutPath
10
154
20
46.625
11
154
21
58
0
LINE
8
left_outsideCutPath
10
154
20
58
11
50
21
58
0
LINE
8
left_labelLayer
10
95.1975097
20
34.7029973
11
95.1975097
21
26.3455754
0
LINE
8
left_labelLayer
10
95.1975097
20
26.3455754
11
94.3059082
21
26.3455754
0
LINE
8
left_labelLayer
10
94.3059082
20
26.3455754
11
94.3059082
21
34.7029973
0
LINE
8
left_labelLayer
10
94.3059082
20
34.7029973
11
95.1975097
21
34.7029973
0
LINE
8
left_labelLayer
10
101.7395019
20
29.6917668
11
101.7395019
21
29.127802
0
LINE
8
left_labelLayer
10
101.7395019
20
29.127802
11
97.6843261
21
29.127802
0
LINE
8
left_labelLayer
10
101.4870605
20
27.4144231
11
101.4870605
21
26.6195012
0
LINE
8
left_labelLayer
10
97.7058105
20
29.8528997
11
100.7834472
21
29.8528997
0
ARC
8
left_labelLayer
10
99.5456351
20
29.7027524
40
3.4647228
50
256.0087833
51
270.4848021
0
ARC
8
left_labelLayer
10
99.2933344
20
28.7232716
40
2.4533141
50
223.5465776
51
256.1956995
0
ARC
8
left_labelLayer
10
99.4325171
20
28.8244314
40
2.6239863
50
194.0877324
51
223.0538139
0
ARC
8
left_labelLayer
10
100.7078096
20
29.1731755
40
3.9459083
50
181.3574538
51
194.4919766
0
ARC
8
left_labelLayer
10
101.8536014
20
29.2395918
40
5.0931034
50
179.9887145
51
181.7990539
0
ARC
8
left_labelLayer
10
101.4421712
20
29.2720005
40
4.6817785
50
168.9539234
51
180.3843446
0
ARC
8
left_labelLayer
10
99.9131251
20
29.5833404
40
3.1214337
50
149.4070947
51
169.1853728
0
ARC
8
left_labelLayer
10
99.4870977
20
29.8084362
40
2.6402489
50
140.1055847
51
148.9067402
0
ARC
8
left_labelLayer
10
99.2253754
20
30.0497344
40
2.2847509
50
92.4762661
51
140.5386394
0
ARC
8
left_labelLayer
10
99.3420007
20
29.1878996
40
3.1518171
50
89.9637624
51
93.9176277
0
ARC
8
left_labelLayer
10
99.3698317
20
29.6234695
40
2.7163695
50
74.2125847
51
90.544996
0
ARC
8
left_labelLayer
10
99.5399669
20
30.2503202
40
2.0668878
50
41.2064593
51
74.0232689
0
ARC
8
left_labelLayer
10
99.217765
20
29.9714775
40
2.4929892
50
11.5994301
51
41.1496095
0
ARC
8
left_labelLayer
10
98.1106902
20
29.7161649
40
3.6288937
50
359.6147813
51
12.0336395
0
ARC
8
left_labelLayer
10
101.2621723
20
29.1992927
40
3.5785603
50
181.1447029
51
190.8007029
0
ARC
8
left_labelLayer
10
99.9996989
20
28.9502985
40
2.2918058
50
190.6005962
51
206.0275204
0
ARC
8
left_labelLayer
10
99.441131
20
28.6862314
40
1.6740309
50
206.2949956
51
222.5557825
0
ARC
8
left_labelLayer
10
99.391639
20
28.66032
40
1.6201137
50
223.0645191
51
258.1401264
0
ARC
8
left_labelLayer
10
99.5886732
20
29.4716278
40
2.4547355
50
257.5311704
51
270.4319156
0
ARC
8
left_labelLayer
10
99.5908711
20
31.7259748
40
4.7090409
50
270.1984062
51
292.2090398
0
ARC
8
left_labelLayer
10
99.364805
20
32.3752465
40
5.3957147
50
291.8254692
51
293.1613881
0
ARC
8
left_labelLayer
10
99.3539092
20
31.528653
40
5.3525793
50
287.9022954
51
293.4861717
0
ARC
8
left_labelLayer
10
99.742201
20
30.3306246
40
4.0931983
50
281.9935411
51
287.8851645
0
ARC
8
left_labelLayer
10
99.8362954
20
29.9924212
40
3.7428878
50
275.9054271
51
281.6604187
0
ARC
8
left_labelLayer
10
99.6479125
20
31.7507823
40
5.5113033
50
271.9119398
51
275.9727011
0
ARC
8
left_labelLayer
10
99.5791451
20
33.5021799
40
7.2640276
50
269.9669198
51
271.9931545
0
ARC
8
left_labelLayer
10
99.316142
20
29.8356664
40
1.7575509
50
89.4422102
51
106.2089715
0
ARC
8
left_labelLayer
10
99.2104064
20
30.2211936
40
1.3578468
50
106.4656971
51
137.9176428
0
ARC
8
left_labelLayer
10
99.5135568
20
29.9549773
40
1.7612662
50
138.0994839
51
160.5866277
0
ARC
8
left_labelLayer
10
100.2928021
20
29.6683069
40
2.5915164
50
160.3353539
51
172.5315272
0
ARC
8
left_labelLayer
10
101.0600333
20
29.5453769
40
3.3682904
50
172.1545414
51
174.761637
0
ARC
8
left_labelLayer
10
97.74523
20
29.870158
40
3.0382662
50
359.6745403
51
8.9224599
0
ARC
8
left_labelLayer
10
98.8308726
20
30.0470471
40
1.9383364
50
8.7342252
51
23.2771731
0
ARC
8
left_labelLayer
10
99.3462734
20
30.2633996
40
1.3793979
50
23.4821002
51
39.7071947
0
ARC
8
left_labelLayer
10
99.4728708
20
30.3581353
40
1.2215067
50
40.0822858
51
80.624326
0
ARC
8
left_labelLayer
10
99.3425586
20
29.760783
40
1.8323746
50
79.6468686
51
90.2910086
0
LINE
8
left_labelLayer
10
105.9128418
20
32.2322942
11
105.9128418
21
31.5394231
0
LINE
8
left_labelLayer
10
105.9128418
20
31.5394231
11
104.4143066
21
31.5394231
0
LINE
8
left_labelLayer
10
104.4143066
20
31.5394231
11
104.4143066
21
26.3455754
0
LINE
8
left_labelLayer
10
104.4143066
20
26.3455754
11
103.522705
21
26.3455754
0
LINE
8
left_labelLayer
10
103.522705
20
26.3455754
11
103.522705
21
31.5394231
0
LINE
8
left_labelLayer
10
103.522705
20
31.5394231
11
102.4699707
21
31.5394231
0
LINE
8
left_labelLayer
10
102.4699707
20
31.5394231
11
102.4699707
21
31.9422551
0
LINE
8
left_labelLayer
10
102.4699707
20
31.9422551
11
103.522705
21
32.2645207
0
LINE
8
left_labelLayer
10
103.522705
20
32.2645207
11
103.522705
21
32.5921575
0
LINE
8
left_labelLayer
10
106.5144043
20
34.5740911
11
106.2834472
21
33.8597356
0
LINE
8
left_labelLayer
10
104.4143066
20
32.6136418
11
104.4143066
21
32.2322942
0
LINE
8
left_labelLayer
10
104.4143066
20
32.2322942
11
105.9128418
21
32.2322942
0
ARC
8
left_labelLayer
10
107.1360567
20
32.6336985
40
3.6135904
50
167.5776052
51
180.6586734
0
ARC
8
left_labelLayer
10
105.4368271
20
33.0298597
40
1.8690437
50
141.7433868
51
168.2322045
0
ARC
8
left_labelLayer
10
105.1601588
20
33.1742592
40
1.5634544
50
98.2551685
51
139.6203196
0
ARC
8
left_labelLayer
10
105.4030776
20
32.0520664
40
2.710058
50
89.6696877
51
99.9314374
0
ARC
8
left_labelLayer
10
105.4037536
20
31.8909321
40
2.8711861
50
81.5641257
51
89.7017143
0
ARC
8
left_labelLayer
10
105.2018894
20
30.4826614
40
4.2938398
50
75.9740498
51
81.6564182
0
ARC
8
left_labelLayer
10
104.8554995
20
29.0459332
40
5.7716978
50
73.2964066
51
76.0946105
0
ARC
8
left_labelLayer
10
104.9427539
20
29.7429604
40
4.3295839
50
71.9613361
51
76.5918384
0
ARC
8
left_labelLayer
10
105.2786534
20
31.167886
40
2.8656096
50
76.5183177
51
83.0217398
0
ARC
8
left_labelLayer
10
105.3956519
20
32.1088054
40
1.9174466
50
83.0760318
51
89.792744
0
ARC
8
left_labelLayer
10
105.3917986
20
32.8238738
40
1.2024141
50
89.4858793
51
103.4197926
0
ARC
8
left_labelLayer
10
105.2833929
20
33.2403537
40
0.7721966
50
102.7677585
51
144.3380162
0
ARC
8
left_labelLayer
10
105.501794
20
33.0998339
40
1.0316485
50
145.068925
51
162.18012
0
ARC
8
left_labelLayer
10
106.2505867
20
32.8479034
40
1.8216451
50
161.8437636
51
171.7847147
0
ARC
8
left_labelLayer
10
107.4718947
20
32.6644669
40
3.0566402
50
171.6527935
51
178.4383741
0
ARC
8
left_labelLayer
10
108.6243055
20
32.615338
40
4.2099992
50
178.197419
51
180.0230841
0
LINE
8
left_labelLayer
10
109.6940918
20
27.0814153
11
109.6940918
21
26.3992864
0
LINE
8
left_labelLayer
10
107.0515136
20
28.03747
11
107.0515136
21
31.5394231
0
LINE
8
left_labelLayer
10
107.0515136
20
31.5394231
11
106.2082519
21
31.5394231
0
LINE
8
left_labelLayer
10
106.2082519
20
31.5394231
11
106.2082519
21
31.9691106
0
LINE
8
left_labelLayer
10
106.2082519
20
31.9691106
11
107.0515136
21
32.3397161
0
LINE
8
left_labelLayer
10
107.0515136
20
32.3397161
11
107.4274902
21
33.596552
0
LINE
8
left_labelLayer
10
107.4274902
20
33.596552
11
107.9431152
21
33.596552
0
LINE
8
left_labelLayer
10
107.9431152
20
33.596552
11
107.9431152
21
32.2322942
0
LINE
8
left_labelLayer
10
107.9431152
20
32.2322942
11
109.651123
21
32.2322942
0
LINE
8
left_labelLayer
10
109.651123
20
32.2322942
11
109.651123
21
31.5394231
0
LINE
8
left_labelLayer
10
109.651123
20
31.5394231
11
107.9431152
21
31.5394231
0
LINE
8
left_labelLayer
10
107.9431152
20
31.5394231
11
107.9431152
21
28.0750676
0
ARC
8
left_labelLayer
10
108.894541
20
29.902135
40
2.928148
50
269.8803797
51
278.3028385
0
ARC
8
left_labelLayer
10
108.922398
20
29.6743961
40
2.6987788
50
278.4158191
51
279.008397
0
ARC
8
left_labelLayer
10
108.5939582
20
31.7727116
40
4.8226412
50
278.9589268
51
280.5105527
0
ARC
8
left_labelLayer
10
108.9069411
20
30.0933977
40
3.1144111
50
280.4848567
51
282.6267828
0
ARC
8
left_labelLayer
10
109.1816112
20
28.8731093
40
1.8635935
50
282.5876529
51
285.57966
0
ARC
8
left_labelLayer
10
109.3187541
20
28.3687235
40
1.3409106
50
285.7233499
51
286.254984
0
ARC
8
left_labelLayer
10
109.3192397
20
27.1921186
40
0.8769817
50
287.9888231
51
295.3048409
0
ARC
8
left_labelLayer
10
109.1077258
20
27.8320377
40
1.5509457
50
283.3069162
51
288.1198701
0
ARC
8
left_labelLayer
10
108.8842702
20
28.764135
40
2.509451
50
280.0069957
51
283.3735345
0
ARC
8
left_labelLayer
10
108.7343935
20
29.5776588
40
3.336648
50
279.18659
51
280.1140073
0
ARC
8
left_labelLayer
10
108.6429934
20
30.0974587
40
3.8643795
50
275.5259981
51
279.2939596
0
ARC
8
left_labelLayer
10
108.7463988
20
29.0173736
40
2.7793566
50
270.8933151
51
275.5483557
0
ARC
8
left_labelLayer
10
108.7593805
20
28.5250356
40
2.2868821
50
270.003531
51
270.760421
0
ARC
8
left_labelLayer
10
108.7235426
20
28.5666073
40
2.3287317
50
253.7847863
51
270.8852527
0
ARC
8
left_labelLayer
10
108.4476498
20
27.6257086
40
1.3482222
50
190.3817649
51
253.8772349
0
ARC
8
left_labelLayer
10
109.8538643
20
28.0059253
40
2.8025282
50
179.355078
51
192.8477777
0
ARC
8
left_labelLayer
10
109.7384783
20
28.0638399
40
1.7953982
50
179.641693
51
189.7505793
0
ARC
8
left_labelLayer
10
109.1046678
20
27.9507931
40
1.1516053
50
189.5479848
51
205.787319
0
ARC
8
left_labelLayer
10
108.8441963
20
27.8306823
40
0.8648361
50
206.1294311
51
221.4083575
0
ARC
8
left_labelLayer
10
108.8149892
20
27.8085211
40
0.8282768
50
221.5949158
51
262.3505128
0
ARC
8
left_labelLayer
10
108.8844473
20
28.1656915
40
1.1917048
50
261.3265659
51
270.1913745
0
LINE
8
back_outsideCutPath
10
0
20
116
11
0
21
104.625
0
LINE
8
back_outsideCutPath
10
0
20
104.625
11
2
21
104.625
0
LINE
8
back_outsideCutPath
10
2
20
104.625
11
2
21
93.875
0
LINE
8
back_outsideCutPath
10
2
20
93.875
11
0
21
93.875
0
LINE
8
back_outsideCutPath
10
0
20
93.875
11
0
21
83.125
0
LINE
8
back_outsideCutPath
10
0
20
83.125
11
2
21
83.125
0
LINE
8
back_outsideCutPath
10
2
20
83.125
11
2
21
72.375
0
LINE
8
back_outsideCutPath
10
2
20
72.375
11
0
21
72.375
0
LINE
8
back_outsideCutPath
10
0
20
72.375
11
0
21
61
0
LINE
8
back_outsideCutPath
10
0
20
61
11
6.375
21
61
0
LINE
8
back_outsideCutPath
10
6.375
20
61
11
6.375
21
63
0
LINE
8
back_outsideCutPath
10
6.375
20
63
11
17.125
21
63
0
LINE
8
back_outsideCutPath
10
17.125
20
63
11
17.125
21
61
0
LINE
8
back_outsideCutPath
10
17.125
20
61
11
27.875
21
61
0
LINE
8
back_outsideCutPath
10
27.875
20
61
11
27.875
21
63
0
LINE
8
back_outsideCutPath
10
27.875
20
63
11
38.625
21
63
0
LINE
8
back_outsideCutPath
10
38.625
20
63
11
38.625
21
61
0
LINE
8
back_outsideCutPath
10
38.625
20
61
11
45
21
61
0
LINE
8
back_outsideCutPath
10
45
20
61
11
45
21
72.375
0
LINE
8
back_outsideCutPath
10
45
20
72.375
11
43
21
72.375
0
LINE
8
back_outsideCutPath
10
43
20
72.375
11
43
21
83.125
0
LINE
8
back_outsideCutPath
10
43
20
83.125
11
45
21
83.125
0
LINE
8
back_outsideCutPath
10
45
20
83.125
11
45
21
93.875
0
LINE
8
back_outsideCutPath
10
45
20
93.875
11
43
21
93.875
0
LINE
8
back_outsideCutPath
10
43
20
93.875
11
43
21
104.625
0
LINE
8
back_outsideCutPath
10
43
20
104.625
11
45
21
104.625
0
LINE
8
back_outsideCutPath
10
45
20
104.625
11
45
21
116
0
LINE
8
back_outsideCutPath
10
45
20
116
11
0
21
116
0
LINE
8
back_labelLayer
10
13.8999023
20
85.7446786
11
13.847168
21
85.7446786
0
LINE
8
back_labelLayer
10
13.847168
20
85.7446786
11
13.6933594
21
85.1250496
0
LINE
8
back_labelLayer
10
13.6933594
20
85.1250496
11
13.1704102
21
85.1250496
0
LINE
8
back_labelLayer
10
13.1704102
20
85.1250496
11
13.1704102
21
91.9629403
0
LINE
8
back_labelLayer
10
13.1704102
20
91.9629403
11
13.8999023
21
91.9629403
0
LINE
8
back_labelLayer
10
13.8999023
20
91.9629403
11
13.8999023
21
90.3018075
0
LINE
8
back_labelLayer
10
13.8647461
20
89.2998543
11
13.8999023
21
89.2998543
0
ARC
8
back_labelLayer
10
15.4335049
20
87.7910834
40
2.2295814
50
74.2393332
51
90.5623791
0
ARC
8
back_labelLayer
10
15.5809325
20
88.3319279
40
1.6690335
50
38.5631227
51
74.06704
0
ARC
8
back_labelLayer
10
15.2015334
20
88.0369234
40
2.1496008
50
16.4709355
51
38.4075152
0
ARC
8
back_labelLayer
10
14.1085549
20
87.6941969
40
3.2949539
50
5.1338333
51
16.7973493
0
ARC
8
back_labelLayer
10
12.7287295
20
87.5476213
40
4.6824141
50
359.8779546
51
5.4093665
0
ARC
8
back_labelLayer
10
13.1340318
20
87.5124119
40
4.2771754
50
350.656281
51
0.3380484
0
ARC
8
back_labelLayer
10
14.6251191
20
87.2587939
40
2.7647071
50
335.830608
51
350.82549
0
ARC
8
back_labelLayer
10
15.2810218
20
86.9756988
40
2.0504178
50
321.3161603
51
335.5435911
0
ARC
8
back_labelLayer
10
15.5317844
20
86.7713655
40
1.7269602
50
274.0639901
51
321.4081181
0
ARC
8
back_labelLayer
10
15.4149625
20
87.51139
40
2.4742332
50
269.9226237
51
275.548107
0
ARC
8
back_labelLayer
10
15.3993199
20
87.2498392
40
2.2127144
50
255.7755642
51
270.3185279
0
ARC
8
back_labelLayer
10
15.3361793
20
86.9693001
40
1.9252769
50
245.9801791
51
255.5455317
0
ARC
8
back_labelLayer
10
15.2138699
20
86.6848679
40
1.6156941
50
215.585036
51
245.8361749
0
ARC
8
back_labelLayer
10
-1.3093279
20
90.2889439
40
15.2092357
50
358.1123288
51
0.0484593
0
ARC
8
back_labelLayer
10
2.9236497
20
90.1468289
40
10.9738741
50
355.7238678
51
358.1259199
0
ARC
8
back_labelLayer
10
4.7611225
20
90.0208282
40
9.1321282
50
355.4718341
51
355.6526058
0
ARC
8
back_labelLayer
10
15.2603733
20
88.3511613
40
1.6585837
50
95.1835083
51
145.1108979
0
ARC
8
back_labelLayer
10
15.4061566
20
87.5290648
40
2.4914985
50
89.8743363
51
96.8145045
0
ARC
8
back_labelLayer
10
15.2908809
20
87.3598273
40
2.0499472
50
89.5731621
51
100.7323828
0
ARC
8
back_labelLayer
10
15.1391288
20
88.126543
40
1.2683993
50
100.446969
51
119.670061
0
ARC
8
back_labelLayer
10
14.9984072
20
88.3896387
40
0.9701728
50
120.1402845
51
142.4249026
0
ARC
8
back_labelLayer
10
15.2312186
20
88.2356269
40
1.2487637
50
143.3382571
51
161.2559997
0
ARC
8
back_labelLayer
10
16.2047865
20
87.889978
40
2.2818142
50
160.8926498
51
171.2334352
0
ARC
8
back_labelLayer
10
17.8300282
20
87.6277859
40
3.9280462
50
171.0667506
51
177.8456822
0
ARC
8
back_labelLayer
10
19.5200299
20
87.5418243
40
5.6201291
50
177.6176065
51
180.0425832
0
ARC
8
back_labelLayer
10
18.72322
20
87.5188147
40
4.8233545
50
179.7762903
51
185.7075338
0
ARC
8
back_labelLayer
10
16.8215259
20
87.3228705
40
2.9116072
50
185.5924496
51
194.2050662
0
ARC
8
back_labelLayer
10
15.603345
20
87.0067099
40
1.6531073
50
193.9430294
51
208.0218236
0
ARC
8
back_labelLayer
10
15.1104505
20
86.7559603
40
1.1002387
50
208.553616
51
217.5605895
0
ARC
8
back_labelLayer
10
15.0703034
20
86.7392643
40
1.0582955
50
218.1690583
51
253.8047227
0
ARC
8
back_labelLayer
10
15.2665966
20
87.3444539
40
1.6943324
50
253.138225
51
266.8483132
0
ARC
8
back_labelLayer
10
15.3216436
20
87.9936959
40
2.345698
50
266.3776519
51
270.0509734
0
ARC
8
back_labelLayer
10
15.3392909
20
87.1021555
40
1.4542399
50
269.3869193
51
285.8630441
0
ARC
8
back_labelLayer
10
15.4473319
20
86.7116782
40
1.0491048
50
286.0162935
51
326.8497246
0
ARC
8
back_labelLayer
10
14.9258751
20
87.0571244
40
1.6745965
50
326.7104959
51
343.6662018
0
ARC
8
back_labelLayer
10
13.9497143
20
87.3554063
40
2.6952712
50
343.4171716
51
353.6368859
0
ARC
8
back_labelLayer
10
12.4754004
20
87.5303453
40
4.1799041
50
353.493447
51
0.2205682
0
ARC
8
back_labelLayer
10
12.3454279
20
87.5638818
40
4.3098808
50
359.768079
51
6.3095564
0
ARC
8
back_labelLayer
10
13.9688503
20
87.7501808
40
2.6758265
50
6.1648884
51
16.039636
0
ARC
8
back_labelLayer
10
15.0146622
20
88.0583811
40
1.5855874
50
15.7779409
51
32.0151442
0
ARC
8
back_labelLayer
10
15.34067
20
88.2450634
40
1.2102818
50
32.7035634
51
35.524089
0
ARC
8
back_labelLayer
10
15.4600527
20
88.3299116
40
1.063819
50
35.5408547
51
79.8010973
0
ARC
8
back_labelLayer
10
15.3171926
20
87.7225849
40
1.6871689
50
78.6781168
51
90.3749282
0
LINE
8
back_labelLayer
10
22.1879883
20
85.1250496
11
21.6474609
21
85.1250496
0
LINE
8
back_labelLayer
10
21.6474609
20
85.1250496
11
21.5024414
21
85.8105965
0
LINE
8
back_labelLayer
10
21.5024414
20
85.8105965
11
21.4672852
21
85.8105965
0
LINE
8
back_labelLayer
10
20.6586914
20
87.9858895
11
21.4760742
21
88.0122567
0
LINE
8
back_labelLayer
10
21.4760742
20
88.0122567
11
21.4760742
21
88.3110848
0
LINE
8
back_labelLayer
10
19.0898438
20
89.0493661
11
18.8657227
21
89.6074715
0
LINE
8
back_labelLayer
10
22.1879883
20
88.412159
11
22.1879883
21
85.1250496
0
LINE
8
back_labelLayer
10
21.4584961
20
87.0586434
11
21.4584961
21
87.493702
0
LINE
8
back_labelLayer
10
21.4584961
20
87.493702
11
20.7290039
21
87.4629403
0
ARC
8
back_labelLayer
10
19.0937678
20
87.6846079
40
3.0241533
50
314.744565
51
321.707133
0
ARC
8
back_labelLayer
10
19.8367667
20
86.92967
40
1.9649285
50
304.8486147
51
314.8530355
0
ARC
8
back_labelLayer
10
20.1936875
20
86.4216329
40
1.3440546
50
294.3933002
51
304.7371484
0
ARC
8
back_labelLayer
10
20.0717538
20
86.7375735
40
1.6822624
50
281.2979653
51
293.7313894
0
ARC
8
back_labelLayer
10
19.9105597
20
87.5188043
40
2.479939
50
272.9335418
51
281.4139116
0
ARC
8
back_labelLayer
10
19.8571363
20
88.3199529
40
3.2827949
50
269.9538522
51
273.1491363
0
ARC
8
back_labelLayer
10
19.8386786
20
87.2758149
40
2.2387118
50
258.671944
51
270.4047224
0
ARC
8
back_labelLayer
10
19.6831734
20
86.5319457
40
1.4788027
50
238.3272839
51
258.9183739
0
ARC
8
back_labelLayer
10
19.5760235
20
86.3364584
40
1.2562226
50
227.7689967
51
237.8049231
0
ARC
8
back_labelLayer
10
19.5424943
20
86.289653
40
1.1990486
50
192.0827803
51
227.4520667
0
ARC
8
back_labelLayer
10
20.1606669
20
86.4420389
40
1.8355292
50
179.5457024
51
192.6949507
0
ARC
8
back_labelLayer
10
19.5863894
20
86.5085002
40
1.2622618
50
115.4904696
51
182.3568191
0
ARC
8
back_labelLayer
10
20.2185422
20
85.3490031
40
2.5819369
50
101.3568045
51
117.0798788
0
ARC
8
back_labelLayer
10
20.7262215
20
82.9765731
40
5.0079791
50
92.4696198
51
101.7064882
0
ARC
8
back_labelLayer
10
20.8721821
20
80.8621373
40
7.1269506
50
91.7165754
51
92.9094928
0
ARC
8
back_labelLayer
10
19.3808191
20
88.3222995
40
2.0952851
50
359.6933322
51
8.0035427
0
ARC
8
back_labelLayer
10
20.1734311
20
88.4377654
40
1.2943228
50
7.827254
51
20.604175
0
ARC
8
back_labelLayer
10
20.6219487
20
88.6093455
40
0.814119
50
20.4094331
51
41.4479462
0
ARC
8
back_labelLayer
10
20.6882194
20
88.6457725
40
0.7405183
50
42.7295759
51
71.0380686
0
ARC
8
back_labelLayer
10
20.5321984
20
88.2215488
40
1.1924585
50
70.571646
51
83.9928407
0
ARC
8
back_labelLayer
10
20.4576649
20
87.6161342
40
1.802381
50
83.6506027
51
90.1753641
0
ARC
8
back_labelLayer
10
20.4707391
20
87.0435076
40
2.3750718
50
90.4484818
51
103.7665462
0
ARC
8
back_labelLayer
10
20.7500284
20
85.8657263
40
3.5854923
50
103.6226302
51
112.4320182
0
ARC
8
back_labelLayer
10
21.2288208
20
84.6568214
40
4.8856598
50
112.2122608
51
115.9640552
0
ARC
8
back_labelLayer
10
20.4621074
20
86.6469935
40
3.3634617
50
106.3568613
51
118.3349704
0
ARC
8
back_labelLayer
10
20.6053798
20
86.204423
40
3.8284895
50
104.5162414
51
106.5489806
0
ARC
8
back_labelLayer
10
20.5003064
20
86.6421948
40
3.3783652
50
90.0714445
51
104.6520934
0
ARC
8
back_labelLayer
10
20.5135635
20
86.9396183
40
3.0809887
50
81.5679935
51
90.3248794
0
ARC
8
back_labelLayer
10
20.6917035
20
88.1001502
40
1.9068895
50
68.2273586
51
81.7494462
0
ARC
8
back_labelLayer
10
20.9398179
20
88.7174824
40
1.2415648
50
47.8683309
51
68.2934027
0
ARC
8
back_labelLayer
10
20.9800887
20
88.7978901
40
1.1551698
50
19.2330795
51
46.6741128
0
ARC
8
back_labelLayer
10
20.3092689
20
88.5483418
40
1.8708102
50
6.3378853
51
19.6815815
0
ARC
8
back_labelLayer
10
19.3176028
20
88.4220443
40
2.8704025
50
359.8026797
51
6.6583382
0
ARC
8
back_labelLayer
10
20.0142627
20
87.647659
40
2.0085034
50
269.5792004
51
282.0413598
0
ARC
8
back_labelLayer
10
20.1607682
20
86.9978208
40
1.3424219
50
281.7121077
51
306.4593789
0
ARC
8
back_labelLayer
10
20.2257097
20
86.8910103
40
1.2179767
50
306.9882051
51
313.855828
0
ARC
8
back_labelLayer
10
20.2180033
20
86.8887711
40
1.2217221
50
314.1891942
51
347.426971
0
ARC
8
back_labelLayer
10
19.6060218
20
87.0421319
40
1.8524851
50
346.9177265
51
0.2824985
0
ARC
8
back_labelLayer
10
19.1152593
20
87.0587023
40
2.3432369
50
359.8181617
51
359.9985604
0
ARC
8
back_labelLayer
10
20.902527
20
82.1093765
40
5.3563752
50
91.8564575
51
96.4478095
0
ARC
8
back_labelLayer
10
20.6609635
20
84.199692
40
3.2521588
50
96.3544886
51
102.9953752
0
ARC
8
back_labelLayer
10
20.3330762
20
85.5927739
40
1.8210341
50
102.7995512
51
113.2433318
0
ARC
8
back_labelLayer
10
20.0627731
20
86.2392369
40
1.1203887
50
113.5887075
51
121.6804852
0
ARC
8
back_labelLayer
10
19.8749667
20
86.5252629
40
0.7784103
50
120.973431
51
172.4179623
0
ARC
8
back_labelLayer
10
20.2420327
20
86.4519426
40
1.1521965
50
171.2121581
51
180.2058263
0
ARC
8
back_labelLayer
10
20.1323448
20
86.4391905
40
1.0425366
50
179.5266377
51
192.7786655
0
ARC
8
back_labelLayer
10
19.7796667
20
86.3537011
40
0.6797059
50
192.3264396
51
222.0580133
0
ARC
8
back_labelLayer
10
19.7534458
20
86.3380254
40
0.649764
50
222.5805986
51
229.2546224
0
ARC
8
back_labelLayer
10
19.8420782
20
86.4521388
40
0.7941024
50
229.7836529
51
254.27244
0
ARC
8
back_labelLayer
10
19.9601411
20
86.8455717
40
1.2048286
50
253.9396708
51
266.4533582
0
ARC
8
back_labelLayer
10
19.9978218
20
87.2799573
40
1.6407483
50
266.0784179
51
270.0590145
0
LINE
8
back_labelLayer
10
26.9033203
20
89.7788582
11
26.6791992
21
89.1592293
0
LINE
8
back_labelLayer
10
26.8330078
20
85.9336434
11
26.8330078
21
85.2876473
0
ARC
8
back_labelLayer
10
25.5924541
20
87.7634615
40
2.7264018
50
256.4243736
51
270.4889979
0
ARC
8
back_labelLayer
10
25.3745892
20
86.9131541
40
1.8487521
50
221.7976274
51
256.8020545
0
ARC
8
back_labelLayer
10
25.5855658
20
87.0690367
40
2.110073
50
196.0166479
51
221.1349273
0
ARC
8
back_labelLayer
10
26.6459236
20
87.3931375
40
3.2187501
50
183.5913845
51
196.3539614
0
ARC
8
back_labelLayer
10
27.8337618
20
87.4977836
40
4.4109128
50
179.9388521
51
183.9815133
0
ARC
8
back_labelLayer
10
27.4478128
20
87.5284066
40
4.0250447
50
169.8978378
51
180.3689061
0
ARC
8
back_labelLayer
10
26.0466116
20
87.787608
40
2.600119
50
153.0875305
51
170.1051222
0
ARC
8
back_labelLayer
10
25.5149516
20
88.0416506
40
2.0111008
50
138.654992
51
152.6853933
0
ARC
8
back_labelLayer
10
25.4157308
20
88.1139555
40
1.8888807
50
101.4912999
51
138.313382
0
ARC
8
back_labelLayer
10
25.64353
20
87.1658834
40
2.8635368
50
89.5891664
51
102.1787925
0
ARC
8
back_labelLayer
10
25.6610473
20
86.7373475
40
3.2920004
50
77.7702635
51
89.9475213
0
ARC
8
back_labelLayer
10
25.5987809
20
86.3937768
40
3.6409836
50
74.679624
51
77.9579348
0
ARC
8
back_labelLayer
10
25.9353164
20
87.6129728
40
2.3761967
50
70.0944983
51
74.7385818
0
ARC
8
back_labelLayer
10
26.255463
20
88.4903249
40
1.4422635
50
63.5034248
51
70.1861713
0
ARC
8
back_labelLayer
10
26.4079926
20
88.8096878
40
1.0884122
50
62.9291431
51
63.1889493
0
ARC
8
back_labelLayer
10
25.4808355
20
86.1433657
40
3.2452287
50
68.3294317
51
74.8831467
0
ARC
8
back_labelLayer
10
25.309575
20
85.5360845
40
3.8761645
50
74.7802341
51
77.4496542
0
ARC
8
back_labelLayer
10
25.4893929
20
86.3800952
40
3.0132573
50
77.2998164
51
81.734594
0
ARC
8
back_labelLayer
10
25.6204776
20
87.2935183
40
2.0904783
50
81.6910329
51
87.5078723
0
ARC
8
back_labelLayer
10
25.6457743
20
87.7664444
40
1.6169063
50
87.6747346
51
89.9748381
0
ARC
8
back_labelLayer
10
25.6103209
20
87.7656367
40
1.6181179
50
88.7193848
51
112.5667927
0
ARC
8
back_labelLayer
10
25.4953436
20
88.1457817
40
1.2236004
50
114.4265925
51
161.6632668
0
ARC
8
back_labelLayer
10
26.6375439
20
87.6987131
40
2.4493161
50
160.141853
51
175.1367968
0
ARC
8
back_labelLayer
10
28.2095676
20
87.5221831
40
4.0308714
50
174.5309321
51
180.1549785
0
ARC
8
back_labelLayer
10
27.7115678
20
87.4930367
40
3.532904
50
179.7041314
51
188.0743676
0
ARC
8
back_labelLayer
10
26.439049
20
87.3068525
40
2.2468561
50
187.9314987
51
200.388574
0
ARC
8
back_labelLayer
10
25.7510058
20
87.0519663
40
1.5131194
50
200.4183381
51
216.6392309
0
ARC
8
back_labelLayer
10
25.4625529
20
86.8457598
40
1.1586225
50
216.9695402
51
261.3102962
0
ARC
8
back_labelLayer
10
25.5898516
20
87.4392392
40
1.7648927
50
260.1358957
51
270.2692235
0
ARC
8
back_labelLayer
10
25.5839763
20
88.728073
40
3.0537399
50
270.2658324
51
286.2891449
0
ARC
8
back_labelLayer
10
25.398329
20
89.4204078
40
3.7703883
50
286.0460911
51
292.3654134
0
ARC
8
back_labelLayer
10
25.8927302
20
87.1373968
40
2.0750169
50
282.0344162
51
296.9454616
0
ARC
8
back_labelLayer
10
25.6793259
20
88.0991328
40
3.060122
50
272.5980517
51
282.1878166
0
ARC
8
back_labelLayer
10
25.6181348
20
89.0376099
40
4.0004515
50
269.9654529
51
272.8642757
0
LINE
8
back_labelLayer
10
28.6611328
20
87.5903817
11
28.6962891
21
87.5903817
0
LINE
8
back_labelLayer
10
29.2719727
20
88.2935067
11
30.8276367
21
89.9414559
0
LINE
8
back_labelLayer
10
30.8276367
20
89.9414559
11
31.6933594
21
89.9414559
0
LINE
8
back_labelLayer
10
31.6933594
20
89.9414559
11
29.7421875
21
87.8892098
0
LINE
8
back_labelLayer
10
29.7421875
20
87.8892098
11
31.8295898
21
85.1250496
0
LINE
8
back_labelLayer
10
31.8295898
20
85.1250496
11
30.9462891
21
85.1250496
0
LINE
8
back_labelLayer
10
30.9462891
20
85.1250496
11
29.2456055
21
87.4014168
0
LINE
8
back_labelLayer
10
29.2456055
20
87.4014168
11
28.6962891
21
86.9268075
0
LINE
8
back_labelLayer
10
28.6962891
20
86.9268075
11
28.6962891
21
85.1250496
0
LINE
8
back_labelLayer
10
28.6962891
20
85.1250496
11
27.9755859
21
85.1250496
0
LINE
8
back_labelLayer
10
27.9755859
20
85.1250496
11
27.9755859
21
91.9629403
0
LINE
8
back_labelLayer
10
27.9755859
20
91.9629403
11
28.6962891
21
91.9629403
0
LINE
8
back_labelLayer
10
28.6962891
20
91.9629403
11
28.6962891
21
88.337452
0
ARC
8
back_labelLayer
10
32.2212348
20
85.0952684
40
4.3186609
50
142.3233799
51
144.7074432
0
ARC
8
back_labelLayer
10
34.5209253
20
83.32146
40
7.2229633
50
140.433124
51
142.3365389
0
ARC
8
back_labelLayer
10
37.5172667
20
80.8549477
40
11.1039053
50
139.2798545
51
140.4703573
0
ARC
8
back_labelLayer
10
40.9834385
20
77.8742886
40
15.6754119
50
138.3418021
51
139.2877221
0
ARC
8
back_labelLayer
10
23.8348602
20
88.3465575
40
4.8614374
50
358.2738942
51
359.8926842
0
ARC
8
back_labelLayer
10
20.0532796
20
88.4519483
40
8.644481
50
357.5040827
51
358.3306603
0
ARC
8
back_labelLayer
10
14.3908433
20
88.7020526
40
14.3124376
50
356.6325699
51
357.4909595
0
ARC
8
back_labelLayer
10
4.981161
20
89.2508726
40
23.7381105
50
356.0329815
51
356.6442573
0
ARC
8
back_labelLayer
10
-1.0865921
20
89.6598745
40
29.8196234
50
356.020453
51
356.0555749
0
LINE
8
right_outsideCutPath
10
50
20
116
11
50
21
104.625
0
LINE
8
right_outsideCutPath
10
50
20
104.625
11
48
21
104.625
0
LINE
8
right_outsideCutPath
10
48
20
104.625
11
48
21
93.875
0
LINE
8
right_outsideCutPath
10
48
20
93.875
11
50
21
93.875
0
LINE
8
right_outsideCutPath
10
50
20
93.875
11
50
21
83.125
0
LINE
8
right_outsideCutPath
10
50
20
83.125
11
48
21
83.125
0
LINE
8
right_outsideCutPath
10
48
20
83.125
11
48
21
72.375
0
LINE
8
right_outsideCutPath
10
48
20
72.375
11
50
21
72.375
0
LINE
8
right_outsideCutPath
10
50
20
72.375
11
50
21
61
0
LINE
8
right_outsideCutPath
10
50
20
61
11
64.375
21
61
0
LINE
8
right_outsideCutPath
10
64.375
20
61
11
64.375
21
63
0
LINE
8
right_outsideCutPath
10
64.375
20
63
11
75.125
21
63
0
LINE
8
right_outsideCutPath
10
75.125
20
63
11
75.125
21
61
0
LINE
8
right_outsideCutPath
10
75.125
20
61
11
85.875
21
61
0
LINE
8
right_outsideCutPath
10
85.875
20
61
11
85.875
21
63
0
LINE
8
right_outsideCutPath
10
85.875
20
63
11
96.625
21
63
0
LINE
8
right_outsideCutPath
10
96.625
20
63
11
96.625
21
61
0
LINE
8
right_outsideCutPath
10
96.625
20
61
11
107.375
21
61
0
LINE
8
right_outsideCutPath
10
107.375
20
61
11
107.375
21
63
0
LINE
8
right_outsideCutPath
10
107.375
20
63
11
118.125
21
63
0
LINE
8
right_outsideCutPath
10
118.125
20
63
11
118.125
21
61
0
LINE
8
right_outsideCutPath
10
118.125
20
61
11
128.875
21
61
0
LINE
8
right_outsideCutPath
10
128.875
20
61
11
128.875
21
63
0
LINE
8
right_outsideCutPath
10
128.875
20
63
11
139.625
21
63
0
LINE
8
right_outsideCutPath
10
139.625
20
63
11
139.625
21
61
0
LINE
8
right_outsideCutPath
10
139.625
20
61
11
150.375
21
61
0
LINE
8
right_outsideCutPath
10
150.375
20
61
11
154
21
61
0
LINE
8
right_outsideCutPath
10
154
20
61
11
154
21
72.375
0
LINE
8
right_outsideCutPath
10
154
20
72.375
11
156
21
72.375
0
LINE
8
right_outsideCutPath
10
156
20
72.375
11
156
21
83.125
0
LINE
8
right_outsideCutPath
10
156
20
83.125
11
154
21
83.125
0
LINE
8
right_outsideCutPath
10
154
20
83.125
11
154
21
93.875
0
LINE
8
right_outsideCutPath
10
154
20
93.875
11
156
21
93.875
0
LINE
8
right_outsideCutPath
10
156
20
93.875
11
156
21
104.625
0
LINE
8
right_outsideCutPath
10
156
20
104.625
11
154
21
104.625
0
LINE
8
right_outsideCutPath
10
154
20
104.625
11
154
21
116
0
LINE
8
right_outsideCutPath
10
154
20
116
11
50
21
116
0
LINE
8
right_labelLayer
10
94.010498
20
91.572298
11
93.8869629
21
90.7451496
0
LINE
8
right_labelLayer
10
91.5129394
20
88.8008136
11
91.5129394
21
85.6426105
0
LINE
8
right_labelLayer
10
91.5129394
20
85.6426105
11
90.6213379
21
85.6426105
0
LINE
8
right_labelLayer
10
90.6213379
20
85.6426105
11
90.6213379
21
91.5293292
0
LINE
8
right_labelLayer
10
90.6213379
20
91.5293292
11
91.3571777
21
91.5293292
0
LINE
8
right_labelLayer
10
91.3571777
20
91.5293292
11
91.4592285
21
90.4389972
0
LINE
8
right_labelLayer
10
91.4592285
20
90.4389972
11
91.5021972
21
90.4389972
0
ARC
8
right_labelLayer
10
93.3160364
20
87.5435411
40
4.0932202
50
84.9923129
51
90.1281021
0
ARC
8
right_labelLayer
10
93.4143355
20
88.6449026
40
2.9874826
50
78.4891517
51
85.0265796
0
ARC
8
right_labelLayer
10
93.0328108
20
86.9096332
40
3.9294734
50
77.4453569
51
81.6360684
0
ARC
8
right_labelLayer
10
93.2040036
20
88.0896512
40
2.7371052
50
81.588474
51
87.191653
0
ARC
8
right_labelLayer
10
93.2411945
20
88.7345727
40
2.0911435
50
87.3436663
51
89.9661042
0
ARC
8
right_labelLayer
10
93.2325509
20
89.2808654
40
1.5448822
50
89.6335466
51
137.0880694
0
ARC
8
right_labelLayer
10
93.6117617
20
88.8544428
40
2.1136493
50
135.6209092
51
138.8375795
0
ARC
8
right_labelLayer
10
93.5561371
20
88.9087383
40
2.0360397
50
138.9575797
51
174.5422228
0
ARC
8
right_labelLayer
10
94.219192
20
88.8049849
40
2.7062559
50
173.6907038
51
180.0883136
0
ARC
8
right_labelLayer
10
94.1254759
20
88.9610538
40
3.0109646
50
139.4139179
51
150.6032862
0
ARC
8
right_labelLayer
10
93.5856157
20
89.4236569
40
2.3000141
50
124.2321727
51
139.4160802
0
ARC
8
right_labelLayer
10
93.2969472
20
89.8593991
40
1.7773797
50
89.6796503
51
124.4405729
0
LINE
8
right_labelLayer
10
96.0031738
20
91.5293292
11
96.0031738
21
85.6426105
0
LINE
8
right_labelLayer
10
96.0031738
20
85.6426105
11
95.1115722
21
85.6426105
0
LINE
8
right_labelLayer
10
95.1115722
20
85.6426105
11
95.1115722
21
91.5293292
0
LINE
8
right_labelLayer
10
95.1115722
20
91.5293292
11
96.0031738
21
91.5293292
0
ARC
8
right_labelLayer
10
96.0243729
20
93.1306556
40
0.9880149
50
170.8452535
51
180.3544135
0
ARC
8
right_labelLayer
10
95.654501
20
93.1924968
40
0.6130193
50
155.9679597
51
171.0514657
0
ARC
8
right_labelLayer
10
95.4753472
20
93.2719768
40
0.4170271
50
133.7880613
51
155.9172051
0
ARC
8
right_labelLayer
10
95.541487
20
93.198856
40
0.5155894
50
92.6445765
51
133.4710733
0
ARC
8
right_labelLayer
10
95.5623759
20
93.0348798
40
0.6804847
50
89.9689974
51
93.7645529
0
ARC
8
right_labelLayer
10
95.5708849
20
93.1901071
40
0.5253204
50
46.3708435
51
90.8879382
0
ARC
8
right_labelLayer
10
95.623167
20
93.2440817
40
0.4501787
50
17.7251652
51
46.4473426
0
ARC
8
right_labelLayer
10
95.379359
20
93.1601245
40
0.7079968
50
4.9427887
51
18.1900078
0
ARC
8
right_labelLayer
10
95.0692419
20
93.1265971
40
1.0198715
50
359.8846627
51
5.3182199
0
ARC
8
right_labelLayer
10
95.1666339
20
93.1182797
40
0.9224987
50
349.8345191
51
0.3890824
0
ARC
8
right_labelLayer
10
95.5024778
20
93.0556298
40
0.5808744
50
332.6321933
51
350.070533
0
ARC
8
right_labelLayer
10
95.6331962
20
92.991081
40
0.4351227
50
313.615339
51
332.2678086
0
ARC
8
right_labelLayer
10
95.5701988
20
93.0484423
40
0.5201429
50
269.1788059
51
314.2807598
0
ARC
8
right_labelLayer
10
95.5568341
20
93.0946815
40
0.5663596
50
250.5000293
51
270.5978956
0
ARC
8
right_labelLayer
10
95.5396948
20
93.0305912
40
0.5002516
50
225.1300789
51
249.9001412
0
ARC
8
right_labelLayer
10
95.5128587
20
93.000947
40
0.4603134
50
197.7933326
51
224.894214
0
ARC
8
right_labelLayer
10
95.7640229
20
93.0870182
40
0.7257839
50
184.9924966
51
198.2040042
0
ARC
8
right_labelLayer
10
96.0890389
20
93.1223474
40
1.0526642
50
179.8804378
51
185.3686403
0
LINE
8
right_labelLayer
10
100.6760254
20
91.5293292
11
102.7116699
21
91.5293292
0
LINE
8
right_labelLayer
10
102.7116699
20
91.5293292
11
102.7116699
21
90.9653644
0
LINE
8
right_labelLayer
10
102.7116699
20
90.9653644
11
101.6213379
21
90.8364582
0
LINE
8
right_labelLayer
10
99.6125488
20
86.5771808
11
100.654541
21
86.5771808
0
LINE
8
right_labelLayer
10
100.369873
20
85.7768878
11
99.3010254
21
85.7768878
0
ARC
8
right_labelLayer
10
100.485123
20
89.9372724
40
1.4489718
50
29.4584279
51
38.3576355
0
ARC
8
right_labelLayer
10
99.8930331
20
89.59927
40
2.1307412
50
23.184596
51
29.5422713
0
ARC
8
right_labelLayer
10
99.3278201
20
89.3486288
40
2.7489956
50
21.2507543
51
23.3488001
0
ARC
8
right_labelLayer
10
100.2883582
20
89.7306442
40
1.7153277
50
6.8505145
51
20.987136
0
ARC
8
right_labelLayer
10
99.8052655
20
89.6651453
40
2.2027966
50
359.8710737
51
7.0432066
0
ARC
8
right_labelLayer
10
99.9642093
20
89.6389363
40
2.0439578
50
342.5649903
51
0.59575
0
ARC
8
right_labelLayer
10
100.3411788
20
89.5348417
40
1.6531743
50
310.6097814
51
342.0923615
0
ARC
8
right_labelLayer
10
100.1297893
20
89.7807267
40
1.9774348
50
284.9315951
51
310.6222692
0
ARC
8
right_labelLayer
10
99.8652621
20
90.7076674
40
2.9412837
50
272.5334778
51
285.2579705
0
ARC
8
right_labelLayer
10
99.7972444
20
91.6367077
40
3.8725159
50
269.9692492
51
272.9312543
0
ARC
8
right_labelLayer
10
99.7888058
20
90.6296401
40
2.8654547
50
263.4836829
51
270.1271744
0
ARC
8
right_labelLayer
10
99.7421166
20
90.1862159
40
2.4195996
50
259.4962863
51
263.3905043
0
ARC
8
right_labelLayer
10
100.0309984
20
86.3985079
40
1.5865576
50
117.3934751
51
128.4095827
0
ARC
8
right_labelLayer
10
99.6225593
20
86.9052043
40
0.9357758
50
128.0882035
51
147.1400468
0
ARC
8
right_labelLayer
10
99.4025138
20
87.0528717
40
0.6708314
50
147.5369168
51
180.2591892
0
ARC
8
right_labelLayer
10
99.1937608
20
87.0441256
40
0.4621067
50
179.2918268
51
198.3579955
0
ARC
8
right_labelLayer
10
99.10724
20
87.0213877
40
0.3728707
50
199.2291846
51
239.5690972
0
ARC
8
right_labelLayer
10
99.1792873
20
87.1210261
40
0.495412
50
238.2209901
51
239.8447757
0
ARC
8
right_labelLayer
10
99.2362137
20
87.2382542
40
0.6254467
50
240.7303386
51
254.5025329
0
ARC
8
right_labelLayer
10
99.4069047
20
87.8264476
40
1.2378842
50
254.1636185
51
262.2123777
0
ARC
8
right_labelLayer
10
99.5421191
20
88.7708583
40
2.1919147
50
262.055584
51
267.2083604
0
ARC
8
right_labelLayer
10
99.6074389
20
89.9688736
40
3.3916967
50
267.0918992
51
270.0863213
0
ARC
8
right_labelLayer
10
100.6740298
20
82.9275041
40
3.6497288
50
81.5744667
51
90.3059495
0
ARC
8
right_labelLayer
10
100.8742281
20
84.233168
40
2.3288325
50
68.3671315
51
81.7399617
0
ARC
8
right_labelLayer
10
101.1356972
20
84.9013869
40
1.6112902
50
52.1879901
51
68.250086
0
ARC
8
right_labelLayer
10
101.318658
20
85.1479151
40
1.3043747
50
8.6201419
51
51.8982608
0
ARC
8
right_labelLayer
10
100.6774084
20
85.0122345
40
1.9590858
50
359.7430963
51
9.7326064
0
ARC
8
right_labelLayer
10
100.7061385
20
84.9791865
40
1.9304886
50
340.5268917
51
0.7201556
0
ARC
8
right_labelLayer
10
100.9897752
20
84.9085647
40
1.6397721
50
302.9903594
51
339.5494561
0
ARC
8
right_labelLayer
10
100.6918845
20
85.2871477
40
2.1199651
50
303.1869334
51
304.1721019
0
ARC
8
right_labelLayer
10
100.4145423
20
85.7673595
40
2.6738355
50
286.2542296
51
302.5279984
0
ARC
8
right_labelLayer
10
99.9095679
20
87.4329954
40
4.414276
50
276.4939578
51
286.4953778
0
ARC
8
right_labelLayer
10
99.5944893
20
90.0668613
40
7.0668937
50
269.7544971
51
276.6169576
0
ARC
8
right_labelLayer
10
99.5406781
20
87.9953967
40
4.9954198
50
262.5634904
51
270.2698919
0
ARC
8
right_labelLayer
10
99.2960108
20
86.1819252
40
3.1655447
50
251.2101914
51
262.7064122
0
ARC
8
right_labelLayer
10
98.943365
20
85.1468602
40
2.0720555
50
235.9668089
51
251.222924
0
ARC
8
right_labelLayer
10
98.5695942
20
84.6136356
40
1.4210206
50
208.9036333
51
236.4231348
0
ARC
8
right_labelLayer
10
98.6039068
20
84.5992507
40
1.444401
50
182.2079781
51
207.7461513
0
ARC
8
right_labelLayer
10
99.0406207
20
84.6428786
40
1.882662
50
179.9784384
51
183.022715
0
ARC
8
right_labelLayer
10
98.5210514
20
84.6675048
40
1.3633022
50
138.3916126
51
181.0052491
0
ARC
8
right_labelLayer
10
98.6650177
20
84.5381216
40
1.5568617
50
113.8121348
51
138.3496133
0
ARC
8
right_labelLayer
10
98.9381038
20
83.9484171
40
2.206654
50
102.2870756
51
114.1172959
0
ARC
8
right_labelLayer
10
98.8522952
20
86.9465511
40
0.9253664
50
216.5861494
51
245.4968586
0
ARC
8
right_labelLayer
10
98.9844852
20
87.0587283
40
1.0984289
50
215.464655
51
217.1747867
0
ARC
8
right_labelLayer
10
98.7641147
20
86.8995647
40
0.8265983
50
182.1767062
51
215.341588
0
ARC
8
right_labelLayer
10
98.9607178
20
86.9206432
40
1.0239503
50
179.9839064
51
182.9374989
0
ARC
8
right_labelLayer
10
98.9563323
20
86.9295491
40
1.0196012
50
161.7226361
51
180.4843023
0
ARC
8
right_labelLayer
10
98.8442251
20
86.9601387
40
0.903577
50
144.496332
51
161.3350448
0
ARC
8
right_labelLayer
10
99.1430511
20
86.7374292
40
1.2762082
50
132.7259032
51
144.1480209
0
ARC
8
right_labelLayer
10
99.6219774
20
86.2259956
40
1.9768646
50
125.2211926
51
132.8655896
0
ARC
8
right_labelLayer
10
100.1035089
20
85.5573372
40
2.8008394
50
121.2352943
51
125.3795253
0
ARC
8
right_labelLayer
10
99.2499113
20
89.3959865
40
1.5630491
50
215.1640754
51
247.4747895
0
ARC
8
right_labelLayer
10
99.5416825
20
89.6314548
40
1.9373391
50
212.4713299
51
215.8874855
0
ARC
8
right_labelLayer
10
99.4649567
20
89.5765655
40
1.8431469
50
183.016094
51
212.3123069
0
ARC
8
right_labelLayer
10
99.869384
20
89.6216435
40
2.2495111
50
179.9758668
51
183.6206694
0
ARC
8
right_labelLayer
10
100.195774
20
89.6443472
40
2.5759929
50
166.8195827
51
180.4839135
0
ARC
8
right_labelLayer
10
99.3412121
20
89.8601052
40
1.6948145
50
132.3287864
51
167.3340795
0
ARC
8
right_labelLayer
10
99.4555392
20
89.6957682
40
1.8934742
50
106.2188857
51
131.5377531
0
ARC
8
right_labelLayer
10
99.7448105
20
88.7591323
40
2.8736747
50
93.6329573
51
106.5408727
0
ARC
8
right_labelLayer
10
99.8392493
20
87.6988936
40
3.9378599
50
89.9380682
51
94.0267918
0
ARC
8
right_labelLayer
10
99.8545392
20
88.219238
40
3.4175309
50
82.5851828
51
90.1849776
0
ARC
8
right_labelLayer
10
99.9589614
20
89.0271579
40
2.6028912
50
74.0089324
51
82.5694507
0
ARC
8
right_labelLayer
10
98.9127168
20
84.6421504
40
0.8954657
50
179.2207194
51
200.9355196
0
ARC
8
right_labelLayer
10
98.8062291
20
84.617494
40
0.7873409
50
202.0287042
51
236.1457451
0
ARC
8
right_labelLayer
10
98.9667387
20
84.8212991
40
1.0461961
50
235.0634986
51
238.504062
0
ARC
8
right_labelLayer
10
99.153297
20
85.154524
40
1.4278734
50
239.106587
51
254.4862862
0
ARC
8
right_labelLayer
10
99.4020623
20
86.0122582
40
2.320917
50
254.2323929
51
263.4937191
0
ARC
8
right_labelLayer
10
99.5583206
20
87.33574
40
3.6535846
50
263.4108344
51
270.1457741
0
ARC
8
right_labelLayer
10
99.574825
20
88.1607065
40
4.4785452
50
269.9077749
51
270.001614
0
ARC
8
right_labelLayer
10
99.5963211
20
89.6758891
40
5.9937659
50
269.7957193
51
275.3991219
0
ARC
8
right_labelLayer
10
99.8206448
20
87.372987
40
3.6799795
50
275.2957179
51
283.3515836
0
ARC
8
right_labelLayer
10
100.1861266
20
85.8676305
40
2.1309265
50
283.1370826
51
295.8573036
0
ARC
8
right_labelLayer
10
100.4569024
20
85.2764776
40
1.4809319
50
296.4049073
51
301.8007561
0
ARC
8
right_labelLayer
10
100.5631131
20
85.1300656
40
1.3005951
50
301.2230842
51
318.6238164
0
ARC
8
right_labelLayer
10
100.8025898
20
84.9088513
40
0.9747029
50
319.0765717
51
1.1406834
0
ARC
8
right_labelLayer
10
100.5708209
20
84.9378113
40
1.2063165
50
359.5461058
51
10.9904413
0
ARC
8
right_labelLayer
10
101.0367796
20
85.0325857
40
0.7308478
50
10.6609136
51
30.9361442
0
ARC
8
right_labelLayer
10
101.1845206
20
85.1145763
40
0.5620024
50
31.5095589
51
58.0777591
0
ARC
8
right_labelLayer
10
101.0460553
20
84.8666482
40
0.8457604
50
58.9972043
51
73.8586693
0
ARC
8
right_labelLayer
10
100.7661784
20
83.950421
40
1.8037321
50
73.4099636
51
81.590683
0
ARC
8
right_labelLayer
10
100.5290468
20
82.415853
40
3.3564956
50
81.417234
51
86.5756974
0
ARC
8
right_labelLayer
10
100.3837272
20
80.1037855
40
5.6731194
50
86.5053966
51
90.139921
0
ARC
8
right_labelLayer
10
99.2882724
20
83.727412
40
2.0495155
50
89.6434788
51
100.0209603
0
ARC
8
right_labelLayer
10
99.1594572
20
84.4281484
40
1.3370636
50
99.8103028
51
116.8229819
0
ARC
8
right_labelLayer
10
99.0339749
20
84.692772
40
1.0443166
50
117.2304377
51
130.5023552
0
ARC
8
right_labelLayer
10
98.9695485
20
84.7755744
40
0.939524
50
130.7944624
51
169.0413655
0
ARC
8
right_labelLayer
10
99.4439944
20
84.663841
40
1.4266922
50
168.2580772
51
180.3819927
0
ARC
8
right_labelLayer
10
100.2410775
20
89.6307647
40
1.740396
50
179.5617934
51
191.6528524
0
ARC
8
right_labelLayer
10
99.6359562
20
89.5000284
40
1.1213554
50
191.3555563
51
213.3660295
0
ARC
8
right_labelLayer
10
99.4906397
20
89.4161221
40
0.9538945
50
213.9574193
51
227.7971075
0
ARC
8
right_labelLayer
10
99.6170651
20
89.5694566
40
1.1524454
50
228.2620359
51
254.7341394
0
ARC
8
right_labelLayer
10
99.7785874
20
90.1231585
40
1.7291671
50
254.4016584
51
267.4348734
0
ARC
8
right_labelLayer
10
99.8207273
20
90.6882036
40
2.2955936
50
267.0153313
51
270.0323018
0
ARC
8
right_labelLayer
10
99.8482717
20
90.3348319
40
1.9423988
50
269.2256605
51
284.3772989
0
ARC
8
right_labelLayer
10
100.1130166
20
89.4124546
40
0.9835532
50
282.7796802
51
346.4828435
0
ARC
8
right_labelLayer
10
99.3214901
20
89.6366587
40
1.8058603
50
345.4362474
51
0.7465725
0
ARC
8
right_labelLayer
10
99.2102366
20
89.6876044
40
1.9171566
50
359.1806287
51
15.0431855
0
ARC
8
right_labelLayer
10
100.0789335
20
89.9410131
40
1.0126413
50
13.9535601
51
77.6673908
0
ARC
8
right_labelLayer
10
99.8296957
20
89.0478534
40
1.9391412
50
76.109494
51
90.702869
0
ARC
8
right_labelLayer
10
99.7923882
20
89.1160691
40
1.8708285
50
89.5859347
51
101.3334289
0
ARC
8
right_labelLayer
10
99.6586936
20
89.7537347
40
1.2193377
50
101.0620835
51
121.9739056
0
ARC
8
right_labelLayer
10
99.5647308
20
89.9227673
40
1.0262396
50
122.5210933
51
134.99672
0
ARC
8
right_labelLayer
10
99.6034206
20
89.8995854
40
1.0700451
50
135.5840292
51
163.0015834
0
ARC
8
right_labelLayer
10
100.1684917
20
89.7143766
40
1.6646177
50
162.591238
51
175.7342818
0
ARC
8
right_labelLayer
10
100.8461647
20
89.6476145
40
2.3454351
50
175.3392552
51
180.086456
0
LINE
8
right_labelLayer
10
108.8400879
20
85.6426105
11
107.9484863
21
85.6426105
0
LINE
8
right_labelLayer
10
107.9484863
20
85.6426105
11
107.9484863
21
89.450716
0
LINE
8
right_labelLayer
10
104.8117675
20
88.7202472
11
104.8117675
21
85.6426105
0
LINE
8
right_labelLayer
10
104.8117675
20
85.6426105
11
103.920166
21
85.6426105
0
LINE
8
right_labelLayer
10
103.920166
20
85.6426105
11
103.920166
21
94.0000324
0
LINE
8
right_labelLayer
10
103.920166
20
94.0000324
11
104.8117675
21
94.0000324
0
LINE
8
right_labelLayer
10
104.8117675
20
94.0000324
11
104.8117675
21
91.4702472
0
LINE
8
right_labelLayer
10
104.7687988
20
90.712923
11
104.8225097
21
90.712923
0
LINE
8
right_labelLayer
10
108.8400879
20
89.4829425
11
108.8400879
21
85.6426105
0
ARC
8
right_labelLayer
10
105.4282143
20
89.4651711
40
2.5203135
50
359.6713806
51
8.6877642
0
ARC
8
right_labelLayer
10
106.36231
20
89.6133157
40
1.5745673
50
8.4930914
51
22.658021
0
ARC
8
right_labelLayer
10
106.8368948
20
89.8105401
40
1.0606342
50
22.7024026
51
42.3419806
0
ARC
8
right_labelLayer
10
106.8902382
20
89.8345344
40
1.0052092
50
43.3791057
51
71.5385973
0
ARC
8
right_labelLayer
10
106.6907483
20
89.277103
40
1.5971758
50
71.0828548
51
84.369075
0
ARC
8
right_labelLayer
10
106.6012027
20
88.5157656
40
2.3636696
50
84.0197461
51
90.1510661
0
ARC
8
right_labelLayer
10
106.5757563
20
88.1813686
40
2.6981268
50
89.5919725
51
100.3594975
0
ARC
8
right_labelLayer
10
106.3847023
20
89.1853848
40
1.6761374
50
100.1067594
51
118.0847669
0
ARC
8
right_labelLayer
10
106.1903878
20
89.5666744
40
1.2482912
50
118.4550916
51
139.6706404
0
ARC
8
right_labelLayer
10
106.3854682
20
89.4333326
40
1.4835084
50
140.6208166
51
160.5049075
0
ARC
8
right_labelLayer
10
107.4137616
20
89.052663
40
2.5799368
50
160.1567357
51
171.5312665
0
ARC
8
right_labelLayer
10
109.0775204
20
88.7890611
40
4.2644041
50
171.3202364
51
178.3407014
0
ARC
8
right_labelLayer
10
110.5660717
20
88.7225532
40
5.7543046
50
178.1079333
51
180.0229608
0
ARC
8
right_labelLayer
10
96.7908575
20
91.4606914
40
8.0209157
50
357.867464
51
0.0682601
0
ARC
8
right_labelLayer
10
99.5158349
20
91.356735
40
5.2939578
50
354.9828821
51
357.8943564
0
ARC
8
right_labelLayer
10
101.3155184
20
91.2000184
40
3.4874643
50
351.9712275
51
354.96198
0
ARC
8
right_labelLayer
10
106.3327327
20
89.7682254
40
1.7813554
50
119.8315995
51
147.9725719
0
ARC
8
right_labelLayer
10
106.5484217
20
89.436893
40
2.1761925
50
116.665812
51
120.4183706
0
ARC
8
right_labelLayer
10
106.5887113
20
89.3310697
40
2.2888705
50
96.6652646
51
116.3782487
0
ARC
8
right_labelLayer
10
106.675489
20
88.7323417
40
2.8936721
50
89.8926981
51
96.9958862
0
ARC
8
right_labelLayer
10
106.70324
20
88.008721
40
3.6173569
50
80.6863101
51
90.3537195
0
ARC
8
right_labelLayer
10
106.9284836
20
89.3335641
40
2.2735392
50
65.6022376
51
80.8844448
0
ARC
8
right_labelLayer
10
107.198956
20
89.9427215
40
1.6070649
50
46.7400428
51
65.4131093
0
ARC
8
right_labelLayer
10
107.2173324
20
90.0007564
40
1.5524316
50
19.2204602
51
45.7660456
0
ARC
8
right_labelLayer
10
106.322186
20
89.6689201
40
2.5069927
50
6.4734027
51
19.6467832
0
ARC
8
right_labelLayer
10
104.9846561
20
89.4967708
40
3.8554566
50
359.7944975
51
6.7744262
0
LINE
8
right_labelLayer
10
113.3786621
20
86.3784503
11
113.3786621
21
85.6963214
0
LINE
8
right_labelLayer
10
110.7360839
20
87.334505
11
110.7360839
21
90.8364582
0
LINE
8
right_labelLayer
10
110.7360839
20
90.8364582
11
109.8928222
21
90.8364582
0
LINE
8
right_labelLayer
10
109.8928222
20
90.8364582
11
109.8928222
21
91.2661457
0
LINE
8
right_labelLayer
10
109.8928222
20
91.2661457
11
110.7360839
21
91.6367511
0
LINE
8
right_labelLayer
10
110.7360839
20
91.6367511
11
111.1120605
21
92.8935871
0
LINE
8
right_labelLayer
10
111.1120605
20
92.8935871
11
111.6276855
21
92.8935871
0
LINE
8
right_labelLayer
10
111.6276855
20
92.8935871
11
111.6276855
21
91.5293292
0
LINE
8
right_labelLayer
10
111.6276855
20
91.5293292
11
113.3356933
21
91.5293292
0
LINE
8
right_labelLayer
10
113.3356933
20
91.5293292
11
113.3356933
21
90.8364582
0
LINE
8
right_labelLayer
10
113.3356933
20
90.8364582
11
111.6276855
21
90.8364582
0
LINE
8
right_labelLayer
10
111.6276855
20
90.8364582
11
111.6276855
21
87.3721027
0
ARC
8
right_labelLayer
10
112.5791113
20
89.1991701
40
2.928148
50
269.8803797
51
278.3028385
0
ARC
8
right_labelLayer
10
112.6069683
20
88.9714312
40
2.6987788
50
278.4158191
51
279.008397
0
ARC
8
right_labelLayer
10
112.2785285
20
91.0697467
40
4.8226412
50
278.9589268
51
280.5105527
0
ARC
8
right_labelLayer
10
112.5915114
20
89.3904328
40
3.1144111
50
280.4848567
51
282.6267828
0
ARC
8
right_labelLayer
10
112.8661815
20
88.1701443
40
1.8635935
50
282.5876529
51
285.57966
0
ARC
8
right_labelLayer
10
113.0033244
20
87.6657585
40
1.3409106
50
285.7233499
51
286.254984
0
ARC
8
right_labelLayer
10
113.00381
20
86.4891537
40
0.8769817
50
287.9888231
51
295.3048409
0
ARC
8
right_labelLayer
10
112.7922961
20
87.1290728
40
1.5509457
50
283.3069162
51
288.1198701
0
ARC
8
right_labelLayer
10
112.5688405
20
88.0611701
40
2.509451
50
280.0069957
51
283.3735345
0
ARC
8
right_labelLayer
10
112.4189638
20
88.8746939
40
3.336648
50
279.18659
51
280.1140073
0
ARC
8
right_labelLayer
10
112.3275637
20
89.3944937
40
3.8643795
50
275.5259981
51
279.2939596
0
ARC
8
right_labelLayer
10
112.4309691
20
88.3144086
40
2.7793566
50
270.8933151
51
275.5483557
0
ARC
8
right_labelLayer
10
112.4439508
20
87.8220707
40
2.2868821
50
270.003531
51
270.760421
0
ARC
8
right_labelLayer
10
112.4081129
20
87.8636424
40
2.3287317
50
253.7847863
51
270.8852527
0
ARC
8
right_labelLayer
10
112.1322201
20
86.9227437
40
1.3482222
50
190.3817649
51
253.8772349
0
ARC
8
right_labelLayer
10
113.5384346
20
87.3029604
40
2.8025282
50
179.355078
51
192.8477777
0
ARC
8
right_labelLayer
10
113.4230486
20
87.360875
40
1.7953982
50
179.641693
51
189.7505793
0
ARC
8
right_labelLayer
10
112.7892382
20
87.2478281
40
1.1516053
50
189.5479848
51
205.787319
0
ARC
8
right_labelLayer
10
112.5287666
20
87.1277174
40
0.8648361
50
206.1294311
51
221.4083575
0
ARC
8
right_labelLayer
10
112.4995595
20
87.1055561
40
0.8282768
50
221.5949158
51
262.3505128
0
ARC
8
right_labelLayer
10
112.5690176
20
87.4627266
40
1.1917048
50
261.3265659
51
270.1913745
0
LINE
8
bottom_outsideCutPath
10
161
20
109
11
161
21
94.625
0
LINE
8
bottom_outsideCutPath
10
161
20
94.625
11
159
21
94.625
0
LINE
8
bottom_outsideCutPath
10
159
20
94.625
11
159
21
83.875
0
LINE
8
bottom_outsideCutPath
10
159
20
83.875
11
161
21
83.875
0
LINE
8
bottom_outsideCutPath
10
161
20
83.875
11
161
21
73.125
0
LINE
8
bottom_outsideCutPath
10
161
20
73.125
11
159
21
73.125
0
LINE
8
bottom_outsideCutPath
10
159
20
73.125
11
159
21
62.375
0
LINE
8
bottom_outsideCutPath
10
159
20
62.375
11
161
21
62.375
0
LINE
8
bottom_outsideCutPath
10
161
20
62.375
11
161
21
51.625
0
LINE
8
bottom_outsideCutPath
10
161
20
51.625
11
159
21
51.625
0
LINE
8
bottom_outsideCutPath
10
159
20
51.625
11
159
21
40.875
0
LINE
8
bottom_outsideCutPath
10
159
20
40.875
11
161
21
40.875
0
LINE
8
bottom_outsideCutPath
10
161
20
40.875
11
161
21
30.125
0
LINE
8
bottom_outsideCutPath
10
161
20
30.125
11
159
21
30.125
0
LINE
8
bottom_outsideCutPath
10
159
20
30.125
11
159
21
19.375
0
LINE
8
bottom_outsideCutPath
10
159
20
19.375
11
161
21
19.375
0
LINE
8
bottom_outsideCutPath
10
161
20
19.375
11
161
21
8.625
0
LINE
8
bottom_outsideCutPath
10
161
20
8.625
11
161
21
5
0
LINE
8
bottom_outsideCutPath
10
161
20
5
11
165.375
21
5
0
LINE
8
bottom_outsideCutPath
10
165.375
20
5
11
165.375
21
3
0
LINE
8
bottom_outsideCutPath
10
165.375
20
3
11
176.125
21
3
0
LINE
8
bottom_outsideCutPath
10
176.125
20
3
11
176.125
21
5
0
LINE
8
bottom_outsideCutPath
10
176.125
20
5
11
186.875
21
5
0
LINE
8
bottom_outsideCutPath
10
186.875
20
5
11
186.875
21
3
0
LINE
8
bottom_outsideCutPath
10
186.875
20
3
11
197.625
21
3
0
LINE
8
bottom_outsideCutPath
10
197.625
20
3
11
197.625
21
5
0
LINE
8
bottom_outsideCutPath
10
197.625
20
5
11
202
21
5
0
LINE
8
bottom_outsideCutPath
10
202
20
5
11
202
21
19.375
0
LINE
8
bottom_outsideCutPath
10
202
20
19.375
11
204
21
19.375
0
LINE
8
bottom_outsideCutPath
10
204
20
19.375
11
204
21
30.125
0
LINE
8
bottom_outsideCutPath
10
204
20
30.125
11
202
21
30.125
0
LINE
8
bottom_outsideCutPath
10
202
20
30.125
11
202
21
40.875
0
LINE
8
bottom_outsideCutPath
10
202
20
40.875
11
204
21
40.875
0
LINE
8
bottom_outsideCutPath
10
204
20
40.875
11
204
21
51.625
0
LINE
8
bottom_outsideCutPath
10
204
20
51.625
11
202
21
51.625
0
LINE
8
bottom_outsideCutPath
10
202
20
51.625
11
202
21
62.375
0
LINE
8
bottom_outsideCutPath
10
202
20
62.375
11
204
21
62.375
0
LINE
8
bottom_outsideCutPath
10
204
20
62.375
11
204
21
73.125
0
LINE
8
bottom_outsideCutPath
10
204
20
73.125
11
202
21
73.125
0
LINE
8
bottom_outsideCutPath
10
202
20
73.125
11
202
21
83.875
0
LINE
8
bottom_outsideCutPath
10
202
20
83.875
11
204
21
83.875
0
LINE
8
bottom_outsideCutPath
10
204
20
83.875
11
204
21
94.625
0
LINE
8
bottom_outsideCutPath
10
204
20
94.625
11
202
21
94.625
0
LINE
8
bottom_outsideCutPath
10
202
20
94.625
11
202
21
105.375
0
LINE
8
bottom_outsideCutPath
10
202
20
105.375
11
202
21
109
0
LINE
8
bottom_outsideCutPath
10
202
20
109
11
197.625
21
109
0
LINE
8
bottom_outsideCutPath
10
197.625
20
109
11
197.625
21
111
0
LINE
8
bottom_outsideCutPath
10
197.625
20
111
11
186.875
21
111
0
LINE
8
bottom_outsideCutPath
10
186.875
20
111
11
186.875
21
109
0
LINE
8
bottom_outsideCutPath
10
186.875
20
109
11
176.125
21
109
0
LINE
8
bottom_outsideCutPath
10
176.125
20
109
11
176.125
21
111
0
LINE
8
bottom_outsideCutPath
10
176.125
20
111
11
165.375
21
111
0
LINE
8
bottom_outsideCutPath
10
165.375
20
111
11
165.375
21
109
0
LINE
8
bottom_outsideCutPath
10
165.375
20
109
11
161
21
109
0
LINE
8
bottom_labelLayer
10
167.4242951
20
54.2447426
11
167.3715608
21
54.2447426
0
LINE
8
bottom_labelLayer
10
167.3715608
20
54.2447426
11
167.2177522
21
53.6251137
0
LINE
8
bottom_labelLayer
10
167.2177522
20
53.6251137
11
166.694803
21
53.6251137
0
LINE
8
bottom_labelLayer
10
166.694803
20
53.6251137
11
166.694803
21
60.4630043
0
LINE
8
bottom_labelLayer
10
166.694803
20
60.4630043
11
167.4242951
21
60.4630043
0
LINE
8
bottom_labelLayer
10
167.4242951
20
60.4630043
11
167.4242951
21
58.8018715
0
LINE
8
bottom_labelLayer
10
167.3891389
20
57.7999184
11
167.4242951
21
57.7999184
0
ARC
8
bottom_labelLayer
10
168.9578977
20
56.2911475
40
2.2295814
50
74.2393332
51
90.5623791
0
ARC
8
bottom_labelLayer
10
169.1053253
20
56.831992
40
1.6690335
50
38.5631227
51
74.06704
0
ARC
8
bottom_labelLayer
10
168.7259262
20
56.5369875
40
2.1496008
50
16.4709355
51
38.4075152
0
ARC
8
bottom_labelLayer
10
167.6329477
20
56.194261
40
3.2949539
50
5.1338333
51
16.7973493
0
ARC
8
bottom_labelLayer
10
166.2531223
20
56.0476853
40
4.6824141
50
359.8779546
51
5.4093665
0
ARC
8
bottom_labelLayer
10
166.6584246
20
56.0124759
40
4.2771754
50
350.656281
51
0.3380484
0
ARC
8
bottom_labelLayer
10
168.1495119
20
55.758858
40
2.7647071
50
335.830608
51
350.82549
0
ARC
8
bottom_labelLayer
10
168.8054146
20
55.4757628
40
2.0504178
50
321.3161603
51
335.5435911
0
ARC
8
bottom_labelLayer
10
169.0561772
20
55.2714295
40
1.7269602
50
274.0639901
51
321.4081181
0
ARC
8
bottom_labelLayer
10
168.9393553
20
56.011454
40
2.4742332
50
269.9226237
51
275.548107
0
ARC
8
bottom_labelLayer
10
168.9237127
20
55.7499033
40
2.2127144
50
255.7755642
51
270.3185279
0
ARC
8
bottom_labelLayer
10
168.8605721
20
55.4693641
40
1.9252769
50
245.9801791
51
255.5455317
0
ARC
8
bottom_labelLayer
10
168.7382627
20
55.184932
40
1.6156941
50
215.585036
51
245.8361749
0
ARC
8
bottom_labelLayer
10
152.2150649
20
58.7890079
40
15.2092357
50
358.1123288
51
0.0484593
0
ARC
8
bottom_labelLayer
10
156.4480425
20
58.6468929
40
10.9738741
50
355.7238678
51
358.1259199
0
ARC
8
bottom_labelLayer
10
158.2855153
20
58.5208922
40
9.1321282
50
355.4718341
51
355.6526058
0
ARC
8
bottom_labelLayer
10
168.7847661
20
56.8512253
40
1.6585837
50
95.1835083
51
145.1108979
0
ARC
8
bottom_labelLayer
10
168.9305494
20
56.0291289
40
2.4914985
50
89.8743363
51
96.8145045
0
ARC
8
bottom_labelLayer
10
168.8152737
20
55.8598913
40
2.0499472
50
89.5731621
51
100.7323828
0
ARC
8
bottom_labelLayer
10
168.6635216
20
56.626607
40
1.2683993
50
100.446969
51
119.670061
0
ARC
8
bottom_labelLayer
10
168.5228
20
56.8897028
40
0.9701728
50
120.1402845
51
142.4249026
0
ARC
8
bottom_labelLayer
10
168.7556114
20
56.735691
40
1.2487637
50
143.3382571
51
161.2559997
0
ARC
8
bottom_labelLayer
10
169.7291793
20
56.3900421
40
2.2818142
50
160.8926498
51
171.2334352
0
ARC
8
bottom_labelLayer
10
171.354421
20
56.1278499
40
3.9280462
50
171.0667506
51
177.8456822
0
ARC
8
bottom_labelLayer
10
173.0444227
20
56.0418883
40
5.6201291
50
177.6176065
51
180.0425832
0
ARC
8
bottom_labelLayer
10
172.2476128
20
56.0188788
40
4.8233545
50
179.7762903
51
185.7075338
0
ARC
8
bottom_labelLayer
10
170.3459187
20
55.8229345
40
2.9116072
50
185.5924496
51
194.2050662
0
ARC
8
bottom_labelLayer
10
169.1277378
20
55.506774
40
1.6531073
50
193.9430294
51
208.0218236
0
ARC
8
bottom_labelLayer
10
168.6348433
20
55.2560244
40
1.1002387
50
208.553616
51
217.5605895
0
ARC
8
bottom_labelLayer
10
168.5946962
20
55.2393284
40
1.0582955
50
218.1690583
51
253.8047227
0
ARC
8
bottom_labelLayer
10
168.7909894
20
55.844518
40
1.6943324
50
253.138225
51
266.8483132
0
ARC
8
bottom_labelLayer
10
168.8460364
20
56.49376
40
2.345698
50
266.3776519
51
270.0509734
0
ARC
8
bottom_labelLayer
10
168.8636837
20
55.6022196
40
1.4542399
50
269.3869193
51
285.8630441
0
ARC
8
bottom_labelLayer
10
168.9717247
20
55.2117423
40
1.0491048
50
286.0162935
51
326.8497246
0
ARC
8
bottom_labelLayer
10
168.4502679
20
55.5571884
40
1.6745965
50
326.7104959
51
343.6662018
0
ARC
8
bottom_labelLayer
10
167.4741071
20
55.8554704
40
2.6952712
50
343.4171716
51
353.6368859
0
ARC
8
bottom_labelLayer
10
165.9997932
20
56.0304093
40
4.1799041
50
353.493447
51
0.2205682
0
ARC
8
bottom_labelLayer
10
165.8698207
20
56.0639459
40
4.3098808
50
359.768079
51
6.3095564
0
ARC
8
bottom_labelLayer
10
167.4932431
20
56.2502449
40
2.6758265
50
6.1648884
51
16.039636
0
ARC
8
bottom_labelLayer
10
168.539055
20
56.5584451
40
1.5855874
50
15.7779409
51
32.0151442
0
ARC
8
bottom_labelLayer
10
168.8650628
20
56.7451275
40
1.2102818
50
32.7035634
51
35.524089
0
ARC
8
bottom_labelLayer
10
168.9844455
20
56.8299756
40
1.063819
50
35.5408547
51
79.8010973
0
ARC
8
bottom_labelLayer
10
168.8415854
20
56.222649
40
1.6871689
50
78.6781168
51
90.3749282
0
ARC
8
bottom_labelLayer
10
172.5991275
20
56.0123085
40
3.7681243
50
349.176186
51
0.3862627
0
ARC
8
bottom_labelLayer
10
173.8677704
20
55.7594007
40
2.474579
50
330.2506862
51
349.4116721
0
ARC
8
bottom_labelLayer
10
174.2581802
20
55.5564827
40
2.0350099
50
318.1439871
51
329.7565781
0
ARC
8
bottom_labelLayer
10
174.3286531
20
55.5000059
40
1.9448416
50
278.895929
51
317.9979055
0
ARC
8
bottom_labelLayer
10
174.1470902
20
56.3698948
40
2.8326985
50
269.7502858
51
279.8033132
0
ARC
8
bottom_labelLayer
10
174.117644
20
55.879762
40
2.3426014
50
253.5436755
51
270.4182467
0
ARC
8
bottom_labelLayer
10
174.0396624
20
55.5781126
40
2.0312459
50
238.8115288
51
253.2428349
0
ARC
8
bottom_labelLayer
10
174.0144969
20
55.527506
40
1.9749271
50
207.7947115
51
238.6757922
0
ARC
8
bottom_labelLayer
10
174.3756042
20
55.7486727
40
2.3976573
50
205.6560898
51
208.4462248
0
ARC
8
bottom_labelLayer
10
174.653789
20
55.8645804
40
2.6986471
50
188.9102648
51
205.3171319
0
ARC
8
bottom_labelLayer
10
175.5912011
20
56.0233455
40
3.6493559
50
179.7744518
51
189.0932639
0
ARC
8
bottom_labelLayer
10
175.7294812
20
56.0633662
40
3.7876948
50
169.2442964
51
180.3880785
0
ARC
8
bottom_labelLayer
10
174.4432085
20
56.3176163
40
2.4765901
50
150.7111513
51
169.4695588
0
ARC
8
bottom_labelLayer
10
174.0326062
20
56.5284727
40
2.015395
50
138.1759981
51
150.2286925
0
ARC
8
bottom_labelLayer
10
173.9642886
20
56.5808978
40
1.9295365
50
99.1759267
51
137.9832778
0
ARC
8
bottom_labelLayer
10
174.152286
20
55.6961535
40
2.8332879
50
89.7326569
51
100.075952
0
ARC
8
bottom_labelLayer
10
174.1898587
20
56.0782503
40
2.4512813
50
73.5222889
51
90.5692228
0
ARC
8
bottom_labelLayer
10
174.3336119
20
56.6005463
40
1.909689
50
41.1445501
51
73.2133805
0
ARC
8
bottom_labelLayer
10
174.0591972
20
56.3646905
40
2.2715236
50
13.5014467
51
41.07033
0
ARC
8
bottom_labelLayer
10
172.9990131
20
56.0872546
40
3.3672549
50
1.1277041
51
13.8800057
0
ARC
8
bottom_labelLayer
10
172.0859958
20
56.0383166
40
4.2811705
50
359.9919002
51
1.5420457
0
ARC
8
bottom_labelLayer
10
176.3918273
20
56.0187547
40
3.6941433
50
179.7059835
51
187.9160785
0
ARC
8
bottom_labelLayer
10
175.0369215
20
55.8241239
40
2.3253518
50
187.7639257
51
200.0977047
0
ARC
8
bottom_labelLayer
10
174.2905182
20
55.5506397
40
1.5304234
50
200.0845794
51
216.9131653
0
ARC
8
bottom_labelLayer
10
174.0179584
20
55.356019
40
1.1956365
50
217.3009476
51
261.7099072
0
ARC
8
bottom_labelLayer
10
174.1444894
20
55.9598117
40
1.8117656
50
260.503323
51
270.2477159
0
ARC
8
bottom_labelLayer
10
174.1686411
20
55.8424115
40
1.6944271
50
269.4481884
51
284.7255567
0
ARC
8
bottom_labelLayer
10
174.30278
20
55.3449341
40
1.1791976
50
284.5662076
51
322.6333899
0
ARC
8
bottom_labelLayer
10
173.9891539
20
55.5715142
40
1.5660057
50
323.0089607
51
342.6390112
0
ARC
8
bottom_labelLayer
10
173.0921253
20
55.8646864
40
2.5096783
50
342.3616026
51
353.7537335
0
ARC
8
bottom_labelLayer
10
171.7687118
20
56.0242046
40
3.8426188
50
353.5363195
51
0.2013938
0
ARC
8
bottom_labelLayer
10
171.9715224
20
56.0562903
40
3.6398318
50
359.7075417
51
7.8973047
0
ARC
8
bottom_labelLayer
10
173.3045098
20
56.2473886
40
2.2932383
50
7.7439945
51
20.0689969
0
ARC
8
bottom_labelLayer
10
174.0473276
20
56.5199744
40
1.5019865
50
20.0256834
51
37.435074
0
ARC
8
bottom_labelLayer
10
174.2937826
20
56.6948558
40
1.2000369
50
37.9577656
51
80.4006217
0
ARC
8
bottom_labelLayer
10
174.1537281
20
56.0699433
40
1.8398665
50
79.3453632
51
90.3174777
0
ARC
8
bottom_labelLayer
10
174.127796
20
56.1737421
40
1.7361109
50
89.4806194
51
103.8804923
0
ARC
8
bottom_labelLayer
10
173.9819181
20
56.7292481
40
1.161861
50
103.4685453
51
142.3118881
0
ARC
8
bottom_labelLayer
10
174.2655179
20
56.5298008
40
1.5083029
50
142.9025852
51
162.3749368
0
ARC
8
bottom_labelLayer
10
175.1591243
20
56.2320078
40
2.4501653
50
162.0652816
51
173.1674956
0
ARC
8
bottom_labelLayer
10
176.5525474
20
56.0542864
40
3.8548504
50
173.008644
51
180.2463605
0
LINE
8
bottom_labelLayer
10
179.8608186
20
54.2271645
11
179.8608186
21
53.669059
0
LINE
8
bottom_labelLayer
10
177.6987092
20
55.0093911
11
177.6987092
21
57.8746254
0
LINE
8
bottom_labelLayer
10
177.6987092
20
57.8746254
11
177.0087678
21
57.8746254
0
LINE
8
bottom_labelLayer
10
177.0087678
20
57.8746254
11
177.0087678
21
58.2261879
0
LINE
8
bottom_labelLayer
10
177.0087678
20
58.2261879
11
177.6987092
21
58.5294106
0
LINE
8
bottom_labelLayer
10
177.6987092
20
58.5294106
11
178.0063264
21
59.5577309
0
LINE
8
bottom_labelLayer
10
178.0063264
20
59.5577309
11
178.4282014
21
59.5577309
0
LINE
8
bottom_labelLayer
10
178.4282014
20
59.5577309
11
178.4282014
21
58.44152
0
LINE
8
bottom_labelLayer
10
178.4282014
20
58.44152
11
179.8256623
21
58.44152
0
LINE
8
bottom_labelLayer
10
179.8256623
20
58.44152
11
179.8256623
21
57.8746254
0
LINE
8
bottom_labelLayer
10
179.8256623
20
57.8746254
11
178.4282014
21
57.8746254
0
LINE
8
bottom_labelLayer
10
178.4282014
20
57.8746254
11
178.4282014
21
55.0401528
0
ARC
8
bottom_labelLayer
10
179.2066417
20
56.53501
40
2.3957414
50
269.8803549
51
278.3028703
0
ARC
8
bottom_labelLayer
10
179.2295364
20
56.3480793
40
2.2074682
50
278.4154932
51
279.0082385
0
ARC
8
bottom_labelLayer
10
178.9607365
20
58.065342
40
3.9456392
50
278.9588888
51
280.510577
0
ARC
8
bottom_labelLayer
10
179.2168766
20
56.6910823
40
2.5477139
50
280.4846244
51
282.6269211
0
ARC
8
bottom_labelLayer
10
179.4414962
20
55.693196
40
1.5248603
50
282.587572
51
285.5793792
0
ARC
8
bottom_labelLayer
10
179.5528611
20
55.2833648
40
1.1001804
50
285.7250075
51
286.2551572
0
ARC
8
bottom_labelLayer
10
179.5541172
20
54.3177516
40
0.7175429
50
287.9888619
51
295.3047535
0
ARC
8
bottom_labelLayer
10
179.3810365
20
54.8414138
40
1.2690629
50
283.3070714
51
288.1196181
0
ARC
8
bottom_labelLayer
10
179.1982383
20
55.6039297
40
2.0531816
50
280.0069965
51
283.3735444
0
ARC
8
bottom_labelLayer
10
179.0758829
20
56.2678995
40
2.7283164
50
279.1864695
51
280.1144539
0
ARC
8
bottom_labelLayer
10
179.0008241
20
56.6948641
40
3.1617932
50
275.5260369
51
279.2939649
0
ARC
8
bottom_labelLayer
10
179.0854414
20
55.8110108
40
2.2738993
50
270.8931608
51
275.5484466
0
ARC
8
bottom_labelLayer
10
179.0960673
20
55.4062301
40
1.8690071
50
270.0031525
51
270.7608841
0
ARC
8
bottom_labelLayer
10
179.0667328
20
55.4423218
40
1.9053261
50
253.7847922
51
270.8852573
0
ARC
8
bottom_labelLayer
10
178.8410023
20
54.6724954
40
1.1030908
50
190.3817648
51
253.8772446
0
ARC
8
bottom_labelLayer
10
179.9915458
20
54.9835817
40
2.2929817
50
179.3550776
51
192.8477524
0
ARC
8
bottom_labelLayer
10
179.8971375
20
55.0309656
40
1.4689649
50
179.6416581
51
189.7505266
0
ARC
8
bottom_labelLayer
10
179.378558
20
54.9384722
40
0.9422177
50
189.5479465
51
205.7873647
0
ARC
8
bottom_labelLayer
10
179.1654437
20
54.8401975
40
0.7075864
50
206.1293733
51
221.4084476
0
ARC
8
bottom_labelLayer
10
179.1415526
20
54.8220689
40
0.6776806
50
221.5949082
51
262.3505276
0
ARC
8
bottom_labelLayer
10
179.198382
20
55.1143066
40
0.9750381
50
261.3266406
51
270.1913857
0
LINE
8
bottom_labelLayer
10
183.0380647
20
54.2271645
11
183.0380647
21
53.669059
0
LINE
8
bottom_labelLayer
10
180.8759553
20
55.0093911
11
180.8759553
21
57.8746254
0
LINE
8
bottom_labelLayer
10
180.8759553
20
57.8746254
11
180.1860139
21
57.8746254
0
LINE
8
bottom_labelLayer
10
180.1860139
20
57.8746254
11
180.1860139
21
58.2261879
0
LINE
8
bottom_labelLayer
10
180.1860139
20
58.2261879
11
180.8759553
21
58.5294106
0
LINE
8
bottom_labelLayer
10
180.8759553
20
58.5294106
11
181.1835725
21
59.5577309
0
LINE
8
bottom_labelLayer
10
181.1835725
20
59.5577309
11
181.6054475
21
59.5577309
0
LINE
8
bottom_labelLayer
10
181.6054475
20
59.5577309
11
181.6054475
21
58.44152
0
LINE
8
bottom_labelLayer
10
181.6054475
20
58.44152
11
183.0029084
21
58.44152
0
LINE
8
bottom_labelLayer
10
183.0029084
20
58.44152
11
183.0029084
21
57.8746254
0
LINE
8
bottom_labelLayer
10
183.0029084
20
57.8746254
11
181.6054475
21
57.8746254
0
LINE
8
bottom_labelLayer
10
181.6054475
20
57.8746254
11
181.6054475
21
55.0401528
0
ARC
8
bottom_labelLayer
10
182.3838878
20
56.53501
40
2.3957414
50
269.8803549
51
278.3028703
0
ARC
8
bottom_labelLayer
10
182.4067825
20
56.3480793
40
2.2074682
50
278.4154932
51
279.0082385
0
ARC
8
bottom_labelLayer
10
182.1379826
20
58.065342
40
3.9456392
50
278.9588888
51
280.510577
0
ARC
8
bottom_labelLayer
10
182.3941227
20
56.6910823
40
2.5477139
50
280.4846244
51
282.6269211
0
ARC
8
bottom_labelLayer
10
182.6187422
20
55.693196
40
1.5248603
50
282.587572
51
285.5793792
0
ARC
8
bottom_labelLayer
10
182.7301072
20
55.2833648
40
1.1001804
50
285.7250075
51
286.2551572
0
ARC
8
bottom_labelLayer
10
182.7313633
20
54.3177516
40
0.7175429
50
287.9888619
51
295.3047535
0
ARC
8
bottom_labelLayer
10
182.5582826
20
54.8414138
40
1.2690629
50
283.3070714
51
288.1196181
0
ARC
8
bottom_labelLayer
10
182.3754844
20
55.6039297
40
2.0531816
50
280.0069965
51
283.3735444
0
ARC
8
bottom_labelLayer
10
182.253129
20
56.2678995
40
2.7283164
50
279.1864695
51
280.1144539
0
ARC
8
bottom_labelLayer
10
182.1780702
20
56.6948641
40
3.1617932
50
275.5260369
51
279.2939649
0
ARC
8
bottom_labelLayer
10
182.2626875
20
55.8110108
40
2.2738993
50
270.8931608
51
275.5484466
0
ARC
8
bottom_labelLayer
10
182.2733134
20
55.4062301
40
1.8690071
50
270.0031525
51
270.7608841
0
ARC
8
bottom_labelLayer
10
182.2439789
20
55.4423218
40
1.9053261
50
253.7847922
51
270.8852573
0
ARC
8
bottom_labelLayer
10
182.0182484
20
54.6724954
40
1.1030908
50
190.3817648
51
253.8772446
0
ARC
8
bottom_labelLayer
10
183.1687919
20
54.9835817
40
2.2929817
50
179.3550776
51
192.8477524
0
ARC
8
bottom_labelLayer
10
183.0743836
20
55.0309656
40
1.4689649
50
179.6416581
51
189.7505266
0
ARC
8
bottom_labelLayer
10
182.5558041
20
54.9384722
40
0.9422177
50
189.5479465
51
205.7873647
0
ARC
8
bottom_labelLayer
10
182.3426898
20
54.8401975
40
0.7075864
50
206.1293733
51
221.4084476
0
ARC
8
bottom_labelLayer
10
182.3187987
20
54.8220689
40
0.6776806
50
221.5949082
51
262.3505276
0
ARC
8
bottom_labelLayer
10
182.3756281
20
55.1143066
40
0.9750381
50
261.3266406
51
270.1913857
0
ARC
8
bottom_labelLayer
10
184.3896549
20
56.0123085
40
3.7681243
50
349.176186
51
0.3862627
0
ARC
8
bottom_labelLayer
10
185.6582977
20
55.7594007
40
2.474579
50
330.2506862
51
349.4116721
0
ARC
8
bottom_labelLayer
10
186.0487075
20
55.5564827
40
2.0350099
50
318.1439871
51
329.7565781
0
ARC
8
bottom_labelLayer
10
186.1191805
20
55.5000059
40
1.9448416
50
278.895929
51
317.9979055
0
ARC
8
bottom_labelLayer
10
185.9376175
20
56.3698948
40
2.8326985
50
269.7502858
51
279.8033132
0
ARC
8
bottom_labelLayer
10
185.9081714
20
55.879762
40
2.3426014
50
253.5436755
51
270.4182467
0
ARC
8
bottom_labelLayer
10
185.8301897
20
55.5781126
40
2.0312459
50
238.8115288
51
253.2428349
0
ARC
8
bottom_labelLayer
10
185.8050243
20
55.527506
40
1.9749271
50
207.7947115
51
238.6757922
0
ARC
8
bottom_labelLayer
10
186.1661315
20
55.7486727
40
2.3976573
50
205.6560898
51
208.4462248
0
ARC
8
bottom_labelLayer
10
186.4443163
20
55.8645804
40
2.6986471
50
188.9102648
51
205.3171319
0
ARC
8
bottom_labelLayer
10
187.3817284
20
56.0233455
40
3.6493559
50
179.7744518
51
189.0932639
0
ARC
8
bottom_labelLayer
10
187.5200085
20
56.0633662
40
3.7876948
50
169.2442964
51
180.3880785
0
ARC
8
bottom_labelLayer
10
186.2337359
20
56.3176163
40
2.4765901
50
150.7111513
51
169.4695588
0
ARC
8
bottom_labelLayer
10
185.8231335
20
56.5284727
40
2.015395
50
138.1759981
51
150.2286925
0
ARC
8
bottom_labelLayer
10
185.754816
20
56.5808978
40
1.9295365
50
99.1759267
51
137.9832778
0
ARC
8
bottom_labelLayer
10
185.9428133
20
55.6961535
40
2.8332879
50
89.7326569
51
100.075952
0
ARC
8
bottom_labelLayer
10
185.980386
20
56.0782503
40
2.4512813
50
73.5222889
51
90.5692228
0
ARC
8
bottom_labelLayer
10
186.1241393
20
56.6005463
40
1.909689
50
41.1445501
51
73.2133805
0
ARC
8
bottom_labelLayer
10
185.8497245
20
56.3646905
40
2.2715236
50
13.5014467
51
41.07033
0
ARC
8
bottom_labelLayer
10
184.7895405
20
56.0872546
40
3.3672549
50
1.1277041
51
13.8800057
0
ARC
8
bottom_labelLayer
10
183.8765232
20
56.0383166
40
4.2811705
50
359.9919002
51
1.5420457
0
ARC
8
bottom_labelLayer
10
188.1823547
20
56.0187547
40
3.6941433
50
179.7059835
51
187.9160785
0
ARC
8
bottom_labelLayer
10
186.8274488
20
55.8241239
40
2.3253518
50
187.7639257
51
200.0977047
0
ARC
8
bottom_labelLayer
10
186.0810456
20
55.5506397
40
1.5304234
50
200.0845794
51
216.9131653
0
ARC
8
bottom_labelLayer
10
185.8084858
20
55.356019
40
1.1956365
50
217.3009476
51
261.7099072
0
ARC
8
bottom_labelLayer
10
185.9350168
20
55.9598117
40
1.8117656
50
260.503323
51
270.2477159
0
ARC
8
bottom_labelLayer
10
185.9591685
20
55.8424115
40
1.6944271
50
269.4481884
51
284.7255567
0
ARC
8
bottom_labelLayer
10
186.0933073
20
55.3449341
40
1.1791976
50
284.5662076
51
322.6333899
0
ARC
8
bottom_labelLayer
10
185.7796812
20
55.5715142
40
1.5660057
50
323.0089607
51
342.6390112
0
ARC
8
bottom_labelLayer
10
184.8826526
20
55.8646864
40
2.5096783
50
342.3616026
51
353.7537335
0
ARC
8
bottom_labelLayer
10
183.5592392
20
56.0242046
40
3.8426188
50
353.5363195
51
0.2013938
0
ARC
8
bottom_labelLayer
10
183.7620498
20
56.0562903
40
3.6398318
50
359.7075417
51
7.8973047
0
ARC
8
bottom_labelLayer
10
185.0950372
20
56.2473886
40
2.2932383
50
7.7439945
51
20.0689969
0
ARC
8
bottom_labelLayer
10
185.8378549
20
56.5199744
40
1.5019865
50
20.0256834
51
37.435074
0
ARC
8
bottom_labelLayer
10
186.08431
20
56.6948558
40
1.2000369
50
37.9577656
51
80.4006217
0
ARC
8
bottom_labelLayer
10
185.9442555
20
56.0699433
40
1.8398665
50
79.3453632
51
90.3174777
0
ARC
8
bottom_labelLayer
10
185.9183233
20
56.1737421
40
1.7361109
50
89.4806194
51
103.8804923
0
ARC
8
bottom_labelLayer
10
185.7724454
20
56.7292481
40
1.161861
50
103.4685453
51
142.3118881
0
ARC
8
bottom_labelLayer
10
186.0560452
20
56.5298008
40
1.5083029
50
142.9025852
51
162.3749368
0
ARC
8
bottom_labelLayer
10
186.9496516
20
56.2320078
40
2.4501653
50
162.0652816
51
173.1674956
0
ARC
8
bottom_labelLayer
10
188.3430747
20
56.0542864
40
3.8548504
50
173.008644
51
180.2463605
0
LINE
8
bottom_labelLayer
10
196.3051545
20
53.6251137
11
195.5756623
21
53.6251137
0
LINE
8
bottom_labelLayer
10
195.5756623
20
53.6251137
11
195.5756623
21
56.7584145
0
LINE
8
bottom_labelLayer
10
193.2333772
20
56.3145668
11
193.2333772
21
53.6251137
0
LINE
8
bottom_labelLayer
10
193.2333772
20
53.6251137
11
192.503885
21
53.6251137
0
LINE
8
bottom_labelLayer
10
192.503885
20
53.6251137
11
192.503885
21
56.7584145
0
LINE
8
bottom_labelLayer
10
190.1659944
20
56.1519692
11
190.1659944
21
53.6251137
0
LINE
8
bottom_labelLayer
10
190.1659944
20
53.6251137
11
189.4365022
21
53.6251137
0
LINE
8
bottom_labelLayer
10
189.4365022
20
53.6251137
11
189.4365022
21
58.44152
0
LINE
8
bottom_labelLayer
10
189.4365022
20
58.44152
11
190.0297639
21
58.44152
0
LINE
8
bottom_labelLayer
10
190.0297639
20
58.44152
11
190.1484162
21
57.7823403
0
LINE
8
bottom_labelLayer
10
190.1484162
20
57.7823403
11
190.1835725
21
57.7823403
0
LINE
8
bottom_labelLayer
10
193.0839631
20
57.7120278
11
193.1191194
21
57.7120278
0
LINE
8
bottom_labelLayer
10
196.3051545
20
56.7672036
11
196.3051545
21
53.6251137
0
ARC
8
bottom_labelLayer
10
193.4236145
20
56.7698755
40
2.1520784
50
359.6948675
51
8.1471115
0
ARC
8
bottom_labelLayer
10
194.2163102
20
56.8871842
40
1.3507639
50
7.9864475
51
20.7950016
0
ARC
8
bottom_labelLayer
10
194.6544705
20
57.0550284
40
0.8815589
50
20.7071126
51
40.0217518
0
ARC
8
bottom_labelLayer
10
194.7505944
20
57.1179206
40
0.767624
50
41.0408256
51
73.1792702
0
ARC
8
bottom_labelLayer
10
194.6115035
20
56.6972405
40
1.2106088
50
72.6395223
51
86.2567815
0
ARC
8
bottom_labelLayer
10
194.5669454
20
56.2164498
40
1.6933332
50
85.8143814
51
90.0685265
0
ARC
8
bottom_labelLayer
10
194.5505751
20
56.0327382
40
1.8770983
50
89.562135
51
101.2961702
0
ARC
8
bottom_labelLayer
10
194.4091993
20
56.709556
40
1.1857147
50
101.0032633
51
121.7840212
0
ARC
8
bottom_labelLayer
10
194.301717
20
56.9014444
40
0.9660377
50
122.3597521
51
140.2884309
0
ARC
8
bottom_labelLayer
10
194.4950866
20
56.7596584
40
1.2054687
50
140.9765142
51
161.1699466
0
ARC
8
bottom_labelLayer
10
195.2235634
20
56.5004113
40
1.9786591
50
160.8732092
51
172.5272567
0
ARC
8
bottom_labelLayer
10
196.4408114
20
56.3322985
40
3.2074438
50
172.3776267
51
180.1829511
0
ARC
8
bottom_labelLayer
10
197.3533953
20
56.3144614
40
4.1200182
50
179.8943724
51
179.9985333
0
ARC
8
bottom_labelLayer
10
190.3518372
20
56.7698755
40
2.1520784
50
359.6948675
51
8.1471115
0
ARC
8
bottom_labelLayer
10
191.1445328
20
56.8871842
40
1.3507639
50
7.9864475
51
20.7950016
0
ARC
8
bottom_labelLayer
10
191.5826931
20
57.0550284
40
0.8815589
50
20.7071126
51
40.0217518
0
ARC
8
bottom_labelLayer
10
191.6808162
20
57.1193032
40
0.7652083
50
41.0610296
51
72.8993652
0
ARC
8
bottom_labelLayer
10
191.5390909
20
56.6973738
40
1.2102121
50
72.3600733
51
85.9561926
0
ARC
8
bottom_labelLayer
10
191.4911141
20
56.2015414
40
1.7082419
50
85.5237889
51
90.0793503
0
ARC
8
bottom_labelLayer
10
191.4747498
20
56.0979867
40
1.8118491
50
89.5573249
51
101.4832173
0
ARC
8
bottom_labelLayer
10
191.3356839
20
56.7495396
40
1.1456718
50
101.1546196
51
123.065545
0
ARC
8
bottom_labelLayer
10
191.2411554
20
56.914205
40
0.9561587
50
123.7020524
51
142.302189
0
ARC
8
bottom_labelLayer
10
191.4625903
20
56.7639823
40
1.2233409
50
143.0770329
51
161.3913355
0
ARC
8
bottom_labelLayer
10
192.3551708
20
56.4487466
40
2.1698947
50
161.0235015
51
171.4468689
0
ARC
8
bottom_labelLayer
10
193.8327363
20
56.2172891
40
3.6654626
50
171.3041525
51
178.3501978
0
ARC
8
bottom_labelLayer
10
195.2450957
20
56.1542078
40
5.079102
50
178.0975922
51
180.0252529
0
ARC
8
bottom_labelLayer
10
191.4194309
20
57.0555944
40
1.4337035
50
117.1209539
51
149.5423666
0
ARC
8
bottom_labelLayer
10
191.5657532
20
56.7955236
40
1.7319219
50
93.8343422
51
117.50719
0
ARC
8
bottom_labelLayer
10
191.6061639
20
56.4376127
40
2.0917982
50
89.9661256
51
94.2831724
0
ARC
8
bottom_labelLayer
10
191.6303811
20
56.141158
40
2.3883632
50
77.5572313
51
90.5513003
0
ARC
8
bottom_labelLayer
10
191.8519955
20
57.0943624
40
1.409841
50
52.7026953
51
78.005392
0
ARC
8
bottom_labelLayer
10
191.9309513
20
57.2412624
40
1.2454141
50
22.2097964
51
51.4970512
0
ARC
8
bottom_labelLayer
10
194.4406265
20
56.9546688
40
1.5231461
50
119.4041758
51
150.1828724
0
ARC
8
bottom_labelLayer
10
194.6095777
20
56.6977344
40
1.8300521
50
118.2583595
51
120.0629213
0
ARC
8
bottom_labelLayer
10
194.60907
20
56.6790049
40
1.8463327
50
95.8635278
51
117.9693062
0
ARC
8
bottom_labelLayer
10
194.6715564
20
56.2271623
40
2.3022505
50
89.9196906
51
96.2617094
0
ARC
8
bottom_labelLayer
10
194.6916165
20
55.9937032
40
2.5357633
50
79.9361134
51
90.3803484
0
ARC
8
bottom_labelLayer
10
194.8605781
20
56.9087843
40
1.6052497
50
62.9723354
51
80.1665078
0
ARC
8
bottom_labelLayer
10
195.0372041
20
57.2711546
40
1.2022147
50
44.2289968
51
62.6228855
0
ARC
8
bottom_labelLayer
10
194.9846709
20
57.2479477
40
1.2562047
50
19.5612081
51
43.3160996
0
ARC
8
bottom_labelLayer
10
194.2217352
20
56.9613867
40
2.0711031
50
7.5041623
51
19.9645764
0
ARC
8
bottom_labelLayer
10
192.9592431
20
56.7840958
40
3.3459539
50
359.7107371
51
7.6906972
0
ENDSEC
0
EOF