  0
SECTION
  2
HEADER
  9
$ACADVER
  1
AC1032
  9
$ACADMAINTVER
 90
      228
  9
$DWGCODEPAGE
  3
ANSI_1258
  9
$REQUIREDVERSIONS
160
                 0
  9
$INSBASE
 10
0.0
 20
0.0
 30
0.0
  9
$EXTMIN
 10
1.000000000000000E+20
 20
1.000000000000000E+20
 30
1.000000000000000E+20
  9
$EXTMAX
 10
-1.000000000000000E+20
 20
-1.000000000000000E+20
 30
-1.000000000000000E+20
  9
$LIMMIN
 10
0.0
 20
0.0
  9
$LIMMAX
 10
12.0
 20
9.0
  9
$ORTHOMODE
 70
     0
  9
$REGENMODE
 70
     1
  9
$FILLMODE
 70
     1
  9
$QTEXTMODE
 70
     0
  9
$MIRRTEXT
 70
     0
  9
$LTSCALE
 40
1.0
  9
$ATTMODE
 70
     1
  9
$TEXTSIZE
 40
0.2
  9
$TRACEWID
 40
0.05
  9
$TEXTSTYLE
  7
Standard
  9
$CLAYER
  8
0
  9
$CELTYPE
  6
ByLayer
  9
$CECOLOR
 62
   256
  9
$CELTSCALE
 40
1.0
  9
$DISPSILH
 70
     0
  9
$DIMSCALE
 40
1.0
  9
$DIMASZ
 40
0.18
  9
$DIMEXO
 40
0.0625
  9
$DIMDLI
 40
0.38
  9
$DIMRND
 40
0.0
  9
$DIMDLE
 40
0.0
  9
$DIMEXE
 40
0.18
  9
$DIMTP
 40
0.0
  9
$DIMTM
 40
0.0
  9
$DIMTXT
 40
0.18
  9
$DIMCEN
 40
0.09
  9
$DIMTSZ
 40
0.0
  9
$DIMTOL
 70
     0
  9
$DIMLIM
 70
     0
  9
$DIMTIH
 70
     1
  9
$DIMTOH
 70
     1
  9
$DIMSE1
 70
     0
  9
$DIMSE2
 70
     0
  9
$DIMTAD
 70
     0
  9
$DIMZIN
 70
     0
  9
$DIMBLK
  1

  9
$DIMASO
 70
     1
  9
$DIMSHO
 70
     1
  9
$DIMPOST
  1

  9
$DIMAPOST
  1

  9
$DIMALT
 70
     0
  9
$DIMALTD
 70
     2
  9
$DIMALTF
 40
25.4
  9
$DIMLFAC
 40
1.0
  9
$DIMTOFL
 70
     0
  9
$DIMTVP
 40
0.0
  9
$DIMTIX
 70
     0
  9
$DIMSOXD
 70
     0
  9
$DIMSAH
 70
     0
  9
$DIMBLK1
  1

  9
$DIMBLK2
  1

  9
$DIMSTYLE
  2
Standard
  9
$DIMCLRD
 70
     0
  9
$DIMCLRE
 70
     0
  9
$DIMCLRT
 70
     0
  9
$DIMTFAC
 40
1.0
  9
$DIMGAP
 40
0.09
  9
$DIMJUST
 70
     0
  9
$DIMSD1
 70
     0
  9
$DIMSD2
 70
     0
  9
$DIMTOLJ
 70
     1
  9
$DIMTZIN
 70
     0
  9
$DIMALTZ
 70
     0
  9
$DIMALTTZ
 70
     0
  9
$DIMUPT
 70
     0
  9
$DIMDEC
 70
     4
  9
$DIMTDEC
 70
     4
  9
$DIMALTU
 70
     2
  9
$DIMALTTD
 70
     2
  9
$DIMTXSTY
  7
Standard
  9
$DIMAUNIT
 70
     0
  9
$DIMADEC
 70
     0
  9
$DIMALTRND
 40
0.0
  9
$DIMAZIN
 70
     0
  9
$DIMDSEP
 70
    46
  9
$DIMATFIT
 70
     3
  9
$DIMFRAC
 70
     0
  9
$DIMLDRBLK
  1

  9
$DIMLUNIT
 70
     2
  9
$DIMLWD
 70
    -2
  9
$DIMLWE
 70
    -2
  9
$DIMTMOVE
 70
     0
  9
$DIMFXL
 40
1.0
  9
$DIMFXLON
 70
     0
  9
$DIMJOGANG
 40
0.7853981633974483
  9
$DIMTFILL
 70
     0
  9
$DIMTFILLCLR
 70
     0
  9
$DIMARCSYM
 70
     0
  9
$DIMLTYPE
  6

  9
$DIMLTEX1
  6

  9
$DIMLTEX2
  6

  9
$DIMTXTDIRECTION
 70
     0
  9
$LUNITS
 70
     2
  9
$LUPREC
 70
     4
  9
$SKETCHINC
 40
0.1
  9
$FILLETRAD
 40
0.0
  9
$AUNITS
 70
     0
  9
$AUPREC
 70
     0
  9
$MENU
  1
.
  9
$ELEVATION
 40
0.0
  9
$PELEVATION
 40
0.0
  9
$THICKNESS
 40
0.0
  9
$LIMCHECK
 70
     0
  9
$CHAMFERA
 40
0.0
  9
$CHAMFERB
 40
0.0
  9
$CHAMFERC
 40
0.0
  9
$CHAMFERD
 40
0.0
  9
$SKPOLY
 70
     0
  9
$TDCREATE
 40
2460412.381157408
  9
$TDUCREATE
 40
2460412.089490741
  9
$TDUPDATE
 40
2460412.381157408
  9
$TDUUPDATE
 40
2460412.089490741
  9
$TDINDWG
 40
0.0000000000
  9
$TDUSRTIMER
 40
0.0000000000
  9
$USRTIMER
 70
     1
  9
$ANGBASE
 50
0.0
  9
$ANGDIR
 70
     0
  9
$PDMODE
 70
     0
  9
$PDSIZE
 40
0.0
  9
$PLINEWID
 40
0.0
  9
$SPLFRAME
 70
     0
  9
$SPLINETYPE
 70
     6
  9
$SPLINESEGS
 70
     8
  9
$HANDSEED
  5
BA
  9
$SURFTAB1
 70
     6
  9
$SURFTAB2
 70
     6
  9
$SURFTYPE
 70
     6
  9
$SURFU
 70
     6
  9
$SURFV
 70
     6
  9
$UCSBASE
  2

  9
$UCSNAME
  2

  9
$UCSORG
 10
0.0
 20
0.0
 30
0.0
  9
$UCSXDIR
 10
1.0
 20
0.0
 30
0.0
  9
$UCSYDIR
 10
0.0
 20
1.0
 30
0.0
  9
$UCSORTHOREF
  2

  9
$UCSORTHOVIEW
 70
     0
  9
$UCSORGTOP
 10
0.0
 20
0.0
 30
0.0
  9
$UCSORGBOTTOM
 10
0.0
 20
0.0
 30
0.0
  9
$UCSORGLEFT
 10
0.0
 20
0.0
 30
0.0
  9
$UCSORGRIGHT
 10
0.0
 20
0.0
 30
0.0
  9
$UCSORGFRONT
 10
0.0
 20
0.0
 30
0.0
  9
$UCSORGBACK
 10
0.0
 20
0.0
 30
0.0
  9
$PUCSBASE
  2

  9
$PUCSNAME
  2

  9
$PUCSORG
 10
0.0
 20
0.0
 30
0.0
  9
$PUCSXDIR
 10
1.0
 20
0.0
 30
0.0
  9
$PUCSYDIR
 10
0.0
 20
1.0
 30
0.0
  9
$PUCSORTHOREF
  2

  9
$PUCSORTHOVIEW
 70
     0
  9
$PUCSORGTOP
 10
0.0
 20
0.0
 30
0.0
  9
$PUCSORGBOTTOM
 10
0.0
 20
0.0
 30
0.0
  9
$PUCSORGLEFT
 10
0.0
 20
0.0
 30
0.0
  9
$PUCSORGRIGHT
 10
0.0
 20
0.0
 30
0.0
  9
$PUCSORGFRONT
 10
0.0
 20
0.0
 30
0.0
  9
$PUCSORGBACK
 10
0.0
 20
0.0
 30
0.0
  9
$USERI1
 70
     0
  9
$USERI2
 70
     0
  9
$USERI3
 70
     0
  9
$USERI4
 70
     0
  9
$USERI5
 70
     0
  9
$USERR1
 40
0.0
  9
$USERR2
 40
0.0
  9
$USERR3
 40
0.0
  9
$USERR4
 40
0.0
  9
$USERR5
 40
0.0
  9
$WORLDVIEW
 70
     1
  9
$SHADEDGE
 70
     3
  9
$SHADEDIF
 70
    70
  9
$TILEMODE
 70
     1
  9
$MAXACTVP
 70
    64
  9
$PINSBASE
 10
0.0
 20
0.0
 30
0.0
  9
$PLIMCHECK
 70
     0
  9
$PEXTMIN
 10
1.000000000000000E+20
 20
1.000000000000000E+20
 30
1.000000000000000E+20
  9
$PEXTMAX
 10
-1.000000000000000E+20
 20
-1.000000000000000E+20
 30
-1.000000000000000E+20
  9
$PLIMMIN
 10
0.0
 20
0.0
  9
$PLIMMAX
 10
12.0
 20
9.0
  9
$UNITMODE
 70
     0
  9
$VISRETAIN
 70
     1
  9
$PLINEGEN
 70
     0
  9
$PSLTSCALE
 70
     1
  9
$TREEDEPTH
 70
  3020
  9
$CMLSTYLE
  2
Standard
  9
$CMLJUST
 70
     0
  9
$CMLSCALE
 40
1.0
  9
$PROXYGRAPHICS
 70
     1
  9
$MEASUREMENT
 70
     0
  9
$CELWEIGHT
370
    -1
  9
$ENDCAPS
280
     0
  9
$JOINSTYLE
280
     0
  9
$LWDISPLAY
290
     1
  9
$INSUNITS
 70
     4
  9
$HYPERLINKBASE
  1

  9
$STYLESHEET
  1

  9
$XEDIT
290
     1
  9
$CEPSNTYPE
380
     0
  9
$PSTYLEMODE
290
     1
  9
$FINGERPRINTGUID
  2
{A0F2E8AE-BC41-7D45-96C6-2ADF2EC21A24}
  9
$VERSIONGUID
  2
{1D4CA466-76C9-E947-944D-275D04A761A4}
  9
$EXTNAMES
290
     1
  9
$PSVPSCALE
 40
0.0
  9
$OLESTARTUP
290
     0
  9
$SORTENTS
280
   127
  9
$INDEXCTL
280
     0
  9
$HIDETEXT
280
     1
  9
$XCLIPFRAME
280
     2
  9
$HALOGAP
280
     0
  9
$OBSCOLOR
 70
   257
  9
$OBSLTYPE
280
     0
  9
$INTERSECTIONDISPLAY
280
     0
  9
$INTERSECTIONCOLOR
 70
   257
  9
$DIMASSOC
280
     2
  9
$PROJECTNAME
  1

  9
$CAMERADISPLAY
290
     0
  9
$LENSLENGTH
 40
50.0
  9
$CAMERAHEIGHT
 40
0.0
  9
$STEPSPERSEC
 40
2.0
  9
$STEPSIZE
 40
6.0
  9
$3DDWFPREC
 40
2.0
  9
$PSOLWIDTH
 40
0.25
  9
$PSOLHEIGHT
 40
4.0
  9
$LOFTANG1
 40
1.570796326794896
  9
$LOFTANG2
 40
1.570796326794896
  9
$LOFTMAG1
 40
0.0
  9
$LOFTMAG2
 40
0.0
  9
$LOFTPARAM
 70
     7
  9
$LOFTNORMALS
280
     1
  9
$LATITUDE
 40
37.795
  9
$LONGITUDE
 40
-122.394
  9
$NORTHDIRECTION
 40
0.0
  9
$TIMEZONE
 70
 -8000
  9
$LIGHTGLYPHDISPLAY
280
     1
  9
$TILEMODELIGHTSYNCH
280
     1
  9
$CMATERIAL
347
11
  9
$SOLIDHIST
280
     0
  9
$SHOWHIST
280
     1
  9
$DWFFRAME
280
     2
  9
$DGNFRAME
280
     0
  9
$REALWORLDSCALE
290
     1
  9
$INTERFERECOLOR
 62
     1
  9
$INTERFEREOBJVS
345
33
  9
$INTERFEREVPVS
346
30
  9
$CSHADOW
280
     0
  9
$SHADOWPLANELOCATION
 40
0.0
  0
ENDSEC
  0
SECTION
  2
CLASSES
  0
CLASS
  1
ACDBDICTIONARYWDFLT
  2
AcDbDictionaryWithDefault
  3
ObjectDBX Classes
 90
        0
 91
        1
280
     0
281
     0
  0
CLASS
  1
MATERIAL
  2
AcDbMaterial
  3
ObjectDBX Classes
 90
     1153
 91
        3
280
     0
281
     0
  0
CLASS
  1
VISUALSTYLE
  2
AcDbVisualStyle
  3
ObjectDBX Classes
 90
     4095
 91
       24
280
     0
281
     0
  0
CLASS
  1
SCALE
  2
AcDbScale
  3
ObjectDBX Classes
 90
     1153
 91
       17
280
     0
281
     0
  0
CLASS
  1
TABLESTYLE
  2
AcDbTableStyle
  3
ObjectDBX Classes
 90
     4095
 91
        1
280
     0
281
     0
  0
CLASS
  1
MLEADERSTYLE
  2
AcDbMLeaderStyle
  3
ACDB_MLEADERSTYLE_CLASS
 90
     4095
 91
        1
280
     0
281
     0
  0
CLASS
  1
ACDBSECTIONVIEWSTYLE
  2
AcDbSectionViewStyle
  3
ObjectDBX Classes
 90
     1025
 91
        1
280
     0
281
     0
  0
CLASS
  1
ACDBDETAILVIEWSTYLE
  2
AcDbDetailViewStyle
  3
ObjectDBX Classes
 90
     1025
 91
        1
280
     0
281
     0
  0
CLASS
  1
DICTIONARYVAR
  2
AcDbDictionaryVar
  3
ObjectDBX Classes
 90
        0
 91
        5
280
     0
281
     0
  0
CLASS
  1
CELLSTYLEMAP
  2
AcDbCellStyleMap
  3
ObjectDBX Classes
 90
     1152
 91
        1
280
     0
281
     0
  0
ENDSEC
  0
SECTION
  2
TABLES
  0
TABLE
  2
VPORT
  5
8
330
0
100
AcDbSymbolTable
 70
     1
  0
VPORT
  5
57
330
8
100
AcDbSymbolTableRecord
100
AcDbViewportTableRecord
  2
*Active
 70
     0
 10
0.0
 20
0.0
 11
1.0
 21
1.0
 12
0.0
 22
0.0
 13
0.0
 23
0.0
 14
1.0
 24
1.0
 15
0.0
 25
0.0
 16
0.0
 26
0.0
 36
1.0
 17
147.718540737353
 27
-16.91005276142402
 37
0.0
 40
1179.206404926277
 41
2.457008324432401
 42
50.0
 43
0.0
 44
0.0
 50
0.0
 51
0.0
 71
     0
 72
   100
 73
     1
 74
     1
 75
     0
 76
     0
 77
     0
 78
     0
281
     0
 65
     1
110
0.0
120
0.0
130
0.0
111
1.0
121
0.0
131
0.0
112
0.0
122
1.0
132
0.0
 79
     0
146
0.0
 60
     3
 61
     5
292
     1
282
     1
141
0.0
142
0.0
 63
   250
421
  3355443
  0
ENDTAB
  0
TABLE
  2
LTYPE
  5
5
330
0
100
AcDbSymbolTable
 70
     1
  0
LTYPE
  5
5B
330
5
100
AcDbSymbolTableRecord
100
AcDbLinetypeTableRecord
  2
ByBlock
 70
     0
  3

 72
    65
 73
     0
 40
0.0
  0
LTYPE
  5
5C
330
5
100
AcDbSymbolTableRecord
100
AcDbLinetypeTableRecord
  2
ByLayer
 70
     0
  3

 72
    65
 73
     0
 40
0.0
  0
LTYPE
  5
5D
330
5
100
AcDbSymbolTableRecord
100
AcDbLinetypeTableRecord
  2
Continuous
 70
     0
  3
Solid line
 72
    65
 73
     0
 40
0.0
  0
ENDTAB
  0
TABLE
  2
LAYER
  5
2
330
0
100
AcDbSymbolTable
 70
     7
  0
LAYER
  5
54
330
2
100
AcDbSymbolTableRecord
100
AcDbLayerTableRecord
  2
0
 70
     0
 62
     7
  6
Continuous
370
    -3
390
F
347
21
348
0
  0
LAYER
  5
78
330
2
100
AcDbSymbolTableRecord
100
AcDbLayerTableRecord
  2
Layer 3
 70
     5
 62
     7
  6
Continuous
370
     0
390
F
347
21
348
0
  0
LAYER
  5
79
330
2
100
AcDbSymbolTableRecord
100
AcDbLayerTableRecord
  2
Layer 1
 70
     0
 62
     7
  6
Continuous
370
     0
390
F
347
21
348
0
  0
LAYER
  5
AD
330
2
100
AcDbSymbolTableRecord
100
AcDbLayerTableRecord
  2
specs
 70
     4
 62
     7
  6
Continuous
370
     0
390
F
347
21
348
0
  0
LAYER
  5
AE
330
2
100
AcDbSymbolTableRecord
100
AcDbLayerTableRecord
  2
names
 70
     5
 62
     7
  6
Continuous
370
     0
390
F
347
21
348
0
  0
LAYER
  5
AF
330
2
100
AcDbSymbolTableRecord
100
AcDbLayerTableRecord
  2
notes
 70
     5
 62
     7
  6
Continuous
370
     0
390
F
347
21
348
0
  0
LAYER
  5
B0
330
2
100
AcDbSymbolTableRecord
100
AcDbLayerTableRecord
  2
names_0
 70
     5
 62
     7
  6
Continuous
370
     0
390
F
347
21
348
0
  0
ENDTAB
  0
TABLE
  2
STYLE
  5
3
330
0
100
AcDbSymbolTable
 70
     2
  0
STYLE
  5
55
330
3
100
AcDbSymbolTableRecord
100
AcDbTextStyleTableRecord
  2
Standard
 70
     0
 40
0.0
 41
1.0
 50
0.0
 71
     0
 42
0.2
  3
txt
  4

  0
STYLE
  5
5A
330
3
100
AcDbSymbolTableRecord
100
AcDbTextStyleTableRecord
  2
Annotative
 70
     0
 40
0.0
 41
1.0
 50
0.0
 71
     0
 42
0.2
  3
txt
  4

1001
AcadAnnotative
1000
AnnotativeData
1002
{
1070
     1
1070
     1
1002
}
  0
ENDTAB
  0
TABLE
  2
VIEW
  5
6
330
0
100
AcDbSymbolTable
 70
     0
  0
ENDTAB
  0
TABLE
  2
UCS
  5
7
330
0
100
AcDbSymbolTable
 70
     0
  0
ENDTAB
  0
TABLE
  2
APPID
  5
9
330
0
100
AcDbSymbolTable
 70
     2
  0
APPID
  5
56
330
9
100
AcDbSymbolTableRecord
100
AcDbRegAppTableRecord
  2
ACAD
 70
     0
  0
APPID
  5
5E
330
9
100
AcDbSymbolTableRecord
100
AcDbRegAppTableRecord
  2
AcadAnnotative
 70
     0
  0
ENDTAB
  0
TABLE
  2
DIMSTYLE
  5
A
330
0
100
AcDbSymbolTable
 70
     2
100
AcDbDimStyleTable
 71
     0
  0
DIMSTYLE
105
58
330
A
100
AcDbSymbolTableRecord
100
AcDbDimStyleTableRecord
  2
Standard
 70
     0
340
55
  0
DIMSTYLE
105
59
330
A
100
AcDbSymbolTableRecord
100
AcDbDimStyleTableRecord
  2
Annotative
 70
     0
340
55
1001
AcadAnnotative
1000
AnnotativeData
1002
{
1070
     1
1070
     1
1002
}
  0
ENDTAB
  0
TABLE
  2
BLOCK_RECORD
  5
1
330
0
100
AcDbSymbolTable
 70
     1
  0
BLOCK_RECORD
  5
70
330
1
100
AcDbSymbolTableRecord
100
AcDbBlockTableRecord
  2
*Model_Space
340
73
 70
     0
280
     1
281
     0
  0
BLOCK_RECORD
  5
6C
330
1
100
AcDbSymbolTableRecord
100
AcDbBlockTableRecord
  2
*Paper_Space
340
6F
 70
     0
280
     1
281
     0
  0
BLOCK_RECORD
  5
74
330
1
100
AcDbSymbolTableRecord
100
AcDbBlockTableRecord
  2
*Paper_Space0
340
77
 70
     0
280
     1
281
     0
  0
ENDTAB
  0
ENDSEC
  0
SECTION
  2
BLOCKS
  0
BLOCK
  5
71
330
70
100
AcDbEntity
  8
0
100
AcDbBlockBegin
  2
*Model_Space
 70
     0
 10
0.0
 20
0.0
 30
0.0
  3
*Model_Space
  1

  0
ENDBLK
  5
72
330
70
100
AcDbEntity
  8
0
100
AcDbBlockEnd
  0
BLOCK
  5
6D
330
6C
100
AcDbEntity
 67
     1
  8
0
100
AcDbBlockBegin
  2
*Paper_Space
 70
     0
 10
0.0
 20
0.0
 30
0.0
  3
*Paper_Space
  1

  0
ENDBLK
  5
6E
330
6C
100
AcDbEntity
 67
     1
  8
0
100
AcDbBlockEnd
  0
BLOCK
  5
75
330
74
100
AcDbEntity
 67
     1
  8
0
100
AcDbBlockBegin
  2
*Paper_Space0
 70
     0
 10
0.0
 20
0.0
 30
0.0
  3
*Paper_Space0
  1

  0
ENDBLK
  5
76
330
74
100
AcDbEntity
 67
     1
  8
0
100
AcDbBlockEnd
  0
ENDSEC
  0
SECTION
  2
ENTITIES
  0
LWPOLYLINE
  5
7A
330
70
100
AcDbEntity
  8
Layer 1
 62
   240
420
 15540772
370
    25
100
AcDbPolyline
 90
      108
 70
     1
 43
0.0
 10
161.9894811103189
 20
-27.00369735194622
 10
161.9894811103189
 20
-36.98719771479306
 10
163.9999999590003
 20
-36.98719771479306
 10
163.9999999590003
 20
-47.00597223053581
 10
161.9894811103189
 20
-47.00597223053581
 10
161.9894811103189
 20
-56.98947259338297
 10
163.9999999590003
 20
-56.98947259338297
 10
163.9999999590003
 20
-67.00824980057674
 10
161.9894811103189
 20
-67.00824980057674
 10
161.9894811103189
 20
-76.99174881769824
 10
163.9999999590003
 20
-76.99174881769824
 10
163.9999999590003
 20
-87.01052535202917
 10
161.9894811103189
 20
-87.01052535202917
 10
161.9894811103189
 20
-96.99402449531222
 10
163.9999999590003
 20
-96.99402449531222
 10
163.9999999590003
 20
-107.0128009034816
 10
161.9894811103189
 20
-107.0128009034816
 10
161.9894811103189
 20
-116.9962999206031
 10
163.9999999590003
 20
-116.9962999206031
 10
163.9999999590003
 20
-133.9999999665
 10
152.0073286546463
 20
-133.9999999665
 10
152.0073286546463
 20
-131.9891875413214
 10
141.9899122477797
 20
-131.9891875413214
 10
141.9899122477797
 20
-133.9999999665
 10
132.0078028494345
 20
-133.9999999665
 10
132.0078028494345
 20
-131.9891875413214
 10
121.9903864425678
 20
-131.9891875413214
 10
121.9903864425678
 20
-133.9999999665
 10
109.9977151382139
 20
-133.9999999665
 10
109.9977151382139
 20
-116.9962999206031
 10
112.0082339868953
 20
-116.9962999206031
 10
112.0082339868953
 20
-107.0128009034816
 10
109.9977151382139
 20
-107.0128009034816
 10
109.9977151382139
 20
-96.99402449531222
 10
112.0082339868953
 20
-96.99402449531222
 10
112.0082339868953
 20
-87.01052535202917
 10
109.9977151382139
 20
-87.01052535202917
 10
109.9977151382139
 20
-71.98236021410135
 10
64.00228481828628
 20
-71.98236021410135
 10
64.00228481828628
 20
-87.01052535202917
 10
61.99176596960491
 20
-87.01052535202917
 10
61.99176596960491
 20
-96.99402449531222
 10
64.00228481828628
 20
-96.99402449531222
 10
64.00228481828628
 20
-107.0128009034816
 10
61.99176596960491
 20
-107.0128009034816
 10
61.99176596960491
 20
-116.9962999206031
 10
64.00228481828628
 20
-116.9962999206031
 10
64.00228481828628
 20
-133.9999999665
 10
52.00961351393239
 20
-133.9999999665
 10
52.00961351393239
 20
-131.9891875413214
 10
41.99219710706543
 20
-131.9891875413214
 10
41.99219710706543
 20
-133.9999999665
 10
32.0100877087205
 20
-133.9999999665
 10
32.0100877087205
 20
-131.9891875413214
 10
22.02793525304797
 20
-131.9891875413214
 10
22.02793525304797
 20
-133.9999999665
 10
9.999999997499973
 20
-133.9999999665
 10
9.999999997499973
 20
-116.9962999206031
 10
12.01051884618134
 20
-116.9962999206031
 10
12.01051884618134
 20
-107.0128009034816
 10
9.999999997499973
 20
-107.0128009034816
 10
9.999999997499973
 20
-96.99402449531222
 10
12.01051884618134
 20
-96.99402449531222
 10
12.01051884618134
 20
-87.01052535202917
 10
9.999999997499973
 20
-87.01052535202917
 10
9.999999997499973
 20
-76.99174881769824
 10
12.01051884618134
 20
-76.99174881769824
 10
12.01051884618134
 20
-67.00824980057674
 10
9.999999997499973
 20
-67.00824980057674
 10
9.999999997499973
 20
-56.98947259338297
 10
12.01051884618134
 20
-56.98947259338297
 10
12.01051884618134
 20
-47.00597223053581
 10
9.999999997499973
 20
-47.00597223053581
 10
9.999999997499973
 20
-36.98719771479306
 10
12.01051884618134
 20
-36.98719771479306
 10
12.01051884618134
 20
-27.00369735194622
 10
9.999999997499973
 20
-27.00369735194622
 10
9.999999997499973
 20
-9.999999997499973
 10
22.02793525304797
 20
-9.999999997499973
 10
22.02793525304797
 20
-12.01080973122783
 10
32.0100877087205
 20
-12.01080973122783
 10
32.0100877087205
 20
-9.999999997499973
 10
41.99219710706543
 20
-9.999999997499973
 10
41.99219710706543
 20
-12.01080973122783
 10
52.00961351393239
 20
-12.01080973122783
 10
52.00961351393239
 20
-9.999999997499973
 10
61.99176596960491
 20
-9.999999997499973
 10
61.99176596960491
 20
-12.01080973122783
 10
72.00918237647154
 20
-12.01080973122783
 10
72.00918237647154
 20
-9.999999997499973
 10
81.9912917748168
 20
-9.999999997499973
 10
81.9912917748168
 20
-12.01080973122783
 10
92.00870818168375
 20
-12.01080973122783
 10
92.00870818168375
 20
-9.999999997499973
 10
101.9908606373562
 20
-9.999999997499973
 10
101.9908606373562
 20
-12.01080973122783
 10
112.0082339868953
 20
-12.01080973122783
 10
112.0082339868953
 20
-9.999999997499973
 10
121.9903864425678
 20
-9.999999997499973
 10
121.9903864425678
 20
-12.01080973122783
 10
132.0078028494345
 20
-12.01080973122783
 10
132.0078028494345
 20
-9.999999997499973
 10
141.9899122477797
 20
-9.999999997499973
 10
141.9899122477797
 20
-12.01080973122783
 10
152.0073286546463
 20
-12.01080973122783
 10
152.0073286546463
 20
-9.999999997499973
 10
163.9999999590003
 20
-9.999999997499973
 10
163.9999999590003
 20
-27.00369735194622
  0
LWPOLYLINE
  5
7B
330
70
100
AcDbEntity
  8
Layer 1
 62
   240
420
 15540772
370
    25
100
AcDbPolyline
 90
        4
 70
     1
 43
0.0
 10
122.0131944139416
 20
-71.99999998199999
 10
131.9968227480342
 20
-71.99999998199999
 10
131.9968227480342
 20
-74.01083358397838
 10
122.0131944139416
 20
-74.01083358397838
  0
LWPOLYLINE
  5
7C
330
70
100
AcDbEntity
  8
Layer 1
 62
   240
420
 15540772
370
    25
100
AcDbPolyline
 90
        4
 70
     1
 43
0.0
 10
22.00069443894406
 20
-71.99999998199999
 10
31.9843227730367
 20
-71.99999998199999
 10
31.9843227730367
 20
-74.01083358397838
 10
22.00069443894406
 20
-74.01083358397838
  0
LWPOLYLINE
  5
7D
330
70
100
AcDbEntity
  8
Layer 1
 62
   240
420
 15540772
370
    25
100
AcDbPolyline
 90
        4
 70
     1
 43
0.0
 10
42.00317720846601
 20
-71.99999998199999
 10
51.98680554255865
 20
-71.99999998199999
 10
51.98680554255865
 20
-74.01083358397838
 10
42.00317720846601
 20
-74.01083358397838
  0
LWPOLYLINE
  5
7E
330
70
100
AcDbEntity
  8
Layer 1
 62
   240
420
 15540772
370
    25
100
AcDbPolyline
 90
        4
 70
     1
 43
0.0
 10
142.0156771834635
 20
-71.99999998199999
 10
151.9993055175561
 20
-71.99999998199999
 10
151.9993055175561
 20
-74.01083358397838
 10
142.0156771834635
 20
-74.01083358397838
  0
SPLINE
  5
7F
330
70
100
AcDbEntity
  8
Layer 1
 62
   240
420
 15540772
370
    25
100
AcDbSpline
210
0.0
220
0.0
230
1.0
 70
    11
 71
     3
 72
   305
 73
   301
 74
     0
 42
0.0000000001
 43
0.0000000001
 40
0.0
 40
0.0
 40
0.0
 40
0.0
 40
1.0
 40
1.0
 40
1.0
 40
2.0
 40
2.0
 40
2.0
 40
3.0
 40
3.0
 40
3.0
 40
4.0
 40
4.0
 40
4.0
 40
5.0
 40
5.0
 40
5.0
 40
6.0
 40
6.0
 40
6.0
 40
7.0
 40
7.0
 40
7.0
 40
8.0
 40
8.0
 40
8.0
 40
9.0
 40
9.0
 40
9.0
 40
10.0
 40
10.0
 40
10.0
 40
11.0
 40
11.0
 40
11.0
 40
12.0
 40
12.0
 40
12.0
 40
13.0
 40
13.0
 40
13.0
 40
14.0
 40
14.0
 40
14.0
 40
15.0
 40
15.0
 40
15.0
 40
16.0
 40
16.0
 40
16.0
 40
17.0
 40
17.0
 40
17.0
 40
18.0
 40
18.0
 40
18.0
 40
19.0
 40
19.0
 40
19.0
 40
20.0
 40
20.0
 40
20.0
 40
21.0
 40
21.0
 40
21.0
 40
22.0
 40
22.0
 40
22.0
 40
23.0
 40
23.0
 40
23.0
 40
24.0
 40
24.0
 40
24.0
 40
25.0
 40
25.0
 40
25.0
 40
26.0
 40
26.0
 40
26.0
 40
27.0
 40
27.0
 40
27.0
 40
28.0
 40
28.0
 40
28.0
 40
29.0
 40
29.0
 40
29.0
 40
30.0
 40
30.0
 40
30.0
 40
31.0
 40
31.0
 40
31.0
 40
32.0
 40
32.0
 40
32.0
 40
33.0
 40
33.0
 40
33.0
 40
34.0
 40
34.0
 40
34.0
 40
35.0
 40
35.0
 40
35.0
 40
36.0
 40
36.0
 40
36.0
 40
37.0
 40
37.0
 40
37.0
 40
38.0
 40
38.0
 40
38.0
 40
39.0
 40
39.0
 40
39.0
 40
40.0
 40
40.0
 40
40.0
 40
41.0
 40
41.0
 40
41.0
 40
42.0
 40
42.0
 40
42.0
 40
43.0
 40
43.0
 40
43.0
 40
44.0
 40
44.0
 40
44.0
 40
45.0
 40
45.0
 40
45.0
 40
46.0
 40
46.0
 40
46.0
 40
47.0
 40
47.0
 40
47.0
 40
48.0
 40
48.0
 40
48.0
 40
49.0
 40
49.0
 40
49.0
 40
50.0
 40
50.0
 40
50.0
 40
51.0
 40
51.0
 40
51.0
 40
52.0
 40
52.0
 40
52.0
 40
53.0
 40
53.0
 40
53.0
 40
54.0
 40
54.0
 40
54.0
 40
55.0
 40
55.0
 40
55.0
 40
56.0
 40
56.0
 40
56.0
 40
57.0
 40
57.0
 40
57.0
 40
58.0
 40
58.0
 40
58.0
 40
59.0
 40
59.0
 40
59.0
 40
60.0
 40
60.0
 40
60.0
 40
61.0
 40
61.0
 40
61.0
 40
62.0
 40
62.0
 40
62.0
 40
63.0
 40
63.0
 40
63.0
 40
64.0
 40
64.0
 40
64.0
 40
65.0
 40
65.0
 40
65.0
 40
66.0
 40
66.0
 40
66.0
 40
67.0
 40
67.0
 40
67.0
 40
68.0
 40
68.0
 40
68.0
 40
69.0
 40
69.0
 40
69.0
 40
70.0
 40
70.0
 40
70.0
 40
71.0
 40
71.0
 40
71.0
 40
72.0
 40
72.0
 40
72.0
 40
73.0
 40
73.0
 40
73.0
 40
74.0
 40
74.0
 40
74.0
 40
75.0
 40
75.0
 40
75.0
 40
76.0
 40
76.0
 40
76.0
 40
77.0
 40
77.0
 40
77.0
 40
78.0
 40
78.0
 40
78.0
 40
79.0
 40
79.0
 40
79.0
 40
80.0
 40
80.0
 40
80.0
 40
81.0
 40
81.0
 40
81.0
 40
82.0
 40
82.0
 40
82.0
 40
83.0
 40
83.0
 40
83.0
 40
84.0
 40
84.0
 40
84.0
 40
85.0
 40
85.0
 40
85.0
 40
86.0
 40
86.0
 40
86.0
 40
87.0
 40
87.0
 40
87.0
 40
88.0
 40
88.0
 40
88.0
 40
89.0
 40
89.0
 40
89.0
 40
90.0
 40
90.0
 40
90.0
 40
91.0
 40
91.0
 40
91.0
 40
92.0
 40
92.0
 40
92.0
 40
93.0
 40
93.0
 40
93.0
 40
94.0
 40
94.0
 40
94.0
 40
95.0
 40
95.0
 40
95.0
 40
96.0
 40
96.0
 40
96.0
 40
97.0
 40
97.0
 40
97.0
 40
98.0
 40
98.0
 40
98.0
 40
99.0
 40
99.0
 40
99.0
 40
100.0
 40
100.0
 40
100.0
 40
100.0
 10
306.7299230049929
 20
-290.123832184209
 30
0.0
 10
306.7299230049929
 20
-290.123832184209
 30
0.0
 10
306.7299230049929
 20
-299.1196655152934
 30
0.0
 10
306.7299230049929
 20
-299.1196655152934
 30
0.0
 10
306.7299230049929
 20
-299.1196655152934
 30
0.0
 10
304.7161779996907
 20
-299.1196655152934
 30
0.0
 10
304.7161779996907
 20
-299.1196655152934
 30
0.0
 10
304.7161779996907
 20
-299.1196655152934
 30
0.0
 10
304.7161779996907
 20
-309.1032777005028
 30
0.0
 10
304.7161779996907
 20
-309.1032777005028
 30
0.0
 10
304.7161779996907
 20
-309.1032777005028
 30
0.0
 10
306.7299230049929
 20
-309.1032777005028
 30
0.0
 10
306.7299230049929
 20
-309.1032777005028
 30
0.0
 10
306.7299230049929
 20
-309.1032777005028
 30
0.0
 10
306.7299230049929
 20
-319.0868898857104
 30
0.0
 10
306.7299230049929
 20
-319.0868898857104
 30
0.0
 10
306.7299230049929
 20
-319.0868898857104
 30
0.0
 10
304.7161779996907
 20
-319.0868898857104
 30
0.0
 10
304.7161779996907
 20
-319.0868898857104
 30
0.0
 10
304.7161779996907
 20
-319.0868898857104
 30
0.0
 10
304.7161779996907
 20
-329.0705020709192
 30
0.0
 10
304.7161779996907
 20
-329.0705020709192
 30
0.0
 10
304.7161779996907
 20
-329.0705020709192
 30
0.0
 10
306.7299230049929
 20
-329.0705020709192
 30
0.0
 10
306.7299230049929
 20
-329.0705020709192
 30
0.0
 10
306.7299230049929
 20
-329.0705020709192
 30
0.0
 10
306.7299230049929
 20
-339.0541088731651
 30
0.0
 10
306.7299230049929
 20
-339.0541088731651
 30
0.0
 10
306.7299230049929
 20
-339.0541088731651
 30
0.0
 10
304.7161779996907
 20
-339.0541088731651
 30
0.0
 10
304.7161779996907
 20
-339.0541088731651
 30
0.0
 10
304.7161779996907
 20
-339.0541088731651
 30
0.0
 10
304.7161779996907
 20
-349.0377156754109
 30
0.0
 10
304.7161779996907
 20
-349.0377156754109
 30
0.0
 10
304.7161779996907
 20
-349.0377156754109
 30
0.0
 10
306.7299230049929
 20
-349.0377156754109
 30
0.0
 10
306.7299230049929
 20
-349.0377156754109
 30
0.0
 10
306.7299230049929
 20
-349.0377156754109
 30
0.0
 10
306.7299230049929
 20
-359.0213224776555
 30
0.0
 10
306.7299230049929
 20
-359.0213224776555
 30
0.0
 10
306.7299230049929
 20
-359.0213224776555
 30
0.0
 10
304.7161779996907
 20
-359.0213224776555
 30
0.0
 10
304.7161779996907
 20
-359.0213224776555
 30
0.0
 10
304.7161779996907
 20
-359.0213224776555
 30
0.0
 10
304.7161779996907
 20
-369.004929279902
 30
0.0
 10
304.7161779996907
 20
-369.004929279902
 30
0.0
 10
304.7161779996907
 20
-369.004929279902
 30
0.0
 10
306.7299230049929
 20
-369.004929279902
 30
0.0
 10
306.7299230049929
 20
-369.004929279902
 30
0.0
 10
306.7299230049929
 20
-369.004929279902
 30
0.0
 10
306.7299230049929
 20
-378.9885360821478
 30
0.0
 10
306.7299230049929
 20
-378.9885360821478
 30
0.0
 10
306.7299230049929
 20
-378.9885360821478
 30
0.0
 10
304.7161779996907
 20
-378.9885360821478
 30
0.0
 10
304.7161779996907
 20
-378.9885360821478
 30
0.0
 10
304.7161779996907
 20
-378.9885360821478
 30
0.0
 10
304.7161779996907
 20
-388.9721428843943
 30
0.0
 10
304.7161779996907
 20
-388.9721428843943
 30
0.0
 10
304.7161779996907
 20
-388.9721428843943
 30
0.0
 10
306.7299230049929
 20
-388.9721428843943
 30
0.0
 10
306.7299230049929
 20
-388.9721428843943
 30
0.0
 10
306.7299230049929
 20
-388.9721428843943
 30
0.0
 10
306.7299230049929
 20
-397.9679762154787
 30
0.0
 10
306.7299230049929
 20
-397.9679762154787
 30
0.0
 10
306.7299230049929
 20
-397.9679762154787
 30
0.0
 10
316.7280932101485
 20
-397.9679762154787
 30
0.0
 10
316.7280932101485
 20
-397.9679762154787
 30
0.0
 10
316.7280932101485
 20
-397.9679762154787
 30
0.0
 10
316.7280932101485
 20
-399.978813854678
 30
0.0
 10
316.7280932101485
 20
-399.978813854678
 30
0.0
 10
316.7280932101485
 20
-399.978813854678
 30
0.0
 10
326.7262634153016
 20
-399.978813854678
 30
0.0
 10
326.7262634153016
 20
-399.978813854678
 30
0.0
 10
326.7262634153016
 20
-399.978813854678
 30
0.0
 10
326.7262634153016
 20
-397.9679762154787
 30
0.0
 10
326.7262634153016
 20
-397.9679762154787
 30
0.0
 10
326.7262634153016
 20
-397.9679762154787
 30
0.0
 10
336.7244336204566
 20
-397.9679762154787
 30
0.0
 10
336.7244336204566
 20
-397.9679762154787
 30
0.0
 10
336.7244336204566
 20
-397.9679762154787
 30
0.0
 10
336.7244336204566
 20
-399.978813854678
 30
0.0
 10
336.7244336204566
 20
-399.978813854678
 30
0.0
 10
336.7244336204566
 20
-399.978813854678
 30
0.0
 10
346.7226038256104
 20
-399.978813854678
 30
0.0
 10
346.7226038256104
 20
-399.978813854678
 30
0.0
 10
346.7226038256104
 20
-399.978813854678
 30
0.0
 10
346.7226038256104
 20
-397.9679762154787
 30
0.0
 10
346.7226038256104
 20
-397.9679762154787
 30
0.0
 10
346.7226038256104
 20
-397.9679762154787
 30
0.0
 10
356.7207740307661
 20
-397.9679762154787
 30
0.0
 10
356.7207740307661
 20
-397.9679762154787
 30
0.0
 10
356.7207740307661
 20
-397.9679762154787
 30
0.0
 10
356.7207740307661
 20
-399.978813854678
 30
0.0
 10
356.7207740307661
 20
-399.978813854678
 30
0.0
 10
356.7207740307661
 20
-399.978813854678
 30
0.0
 10
366.7189011095027
 20
-399.978813854678
 30
0.0
 10
366.7189011095027
 20
-399.978813854678
 30
0.0
 10
366.7189011095027
 20
-399.978813854678
 30
0.0
 10
366.7189011095027
 20
-397.9679762154787
 30
0.0
 10
366.7189011095027
 20
-397.9679762154787
 30
0.0
 10
366.7189011095027
 20
-397.9679762154787
 30
0.0
 10
376.7170713146558
 20
-397.9679762154787
 30
0.0
 10
376.7170713146558
 20
-397.9679762154787
 30
0.0
 10
376.7170713146558
 20
-397.9679762154787
 30
0.0
 10
376.7170713146558
 20
-399.978813854678
 30
0.0
 10
376.7170713146558
 20
-399.978813854678
 30
0.0
 10
376.7170713146558
 20
-399.978813854678
 30
0.0
 10
386.7152415198089
 20
-399.978813854678
 30
0.0
 10
386.7152415198089
 20
-399.978813854678
 30
0.0
 10
386.7152415198089
 20
-399.978813854678
 30
0.0
 10
386.7152415198089
 20
-397.9679762154787
 30
0.0
 10
386.7152415198089
 20
-397.9679762154787
 30
0.0
 10
386.7152415198089
 20
-397.9679762154787
 30
0.0
 10
396.7134117249652
 20
-397.9679762154787
 30
0.0
 10
396.7134117249652
 20
-397.9679762154787
 30
0.0
 10
396.7134117249652
 20
-397.9679762154787
 30
0.0
 10
396.7134117249652
 20
-399.978813854678
 30
0.0
 10
396.7134117249652
 20
-399.978813854678
 30
0.0
 10
396.7134117249652
 20
-399.978813854678
 30
0.0
 10
406.7115819301183
 20
-399.978813854678
 30
0.0
 10
406.7115819301183
 20
-399.978813854678
 30
0.0
 10
406.7115819301183
 20
-399.978813854678
 30
0.0
 10
406.7115819301183
 20
-397.9679762154787
 30
0.0
 10
406.7115819301183
 20
-397.9679762154787
 30
0.0
 10
406.7115819301183
 20
-397.9679762154787
 30
0.0
 10
416.7097521352713
 20
-397.9679762154787
 30
0.0
 10
416.7097521352713
 20
-397.9679762154787
 30
0.0
 10
416.7097521352713
 20
-397.9679762154787
 30
0.0
 10
416.7097521352713
 20
-399.978813854678
 30
0.0
 10
416.7097521352713
 20
-399.978813854678
 30
0.0
 10
416.7097521352713
 20
-399.978813854678
 30
0.0
 10
426.7079223404245
 20
-399.978813854678
 30
0.0
 10
426.7079223404245
 20
-399.978813854678
 30
0.0
 10
426.7079223404245
 20
-399.978813854678
 30
0.0
 10
426.7079223404245
 20
-397.9679762154787
 30
0.0
 10
426.7079223404245
 20
-397.9679762154787
 30
0.0
 10
426.7079223404245
 20
-397.9679762154787
 30
0.0
 10
436.7060925455808
 20
-397.9679762154787
 30
0.0
 10
436.7060925455808
 20
-397.9679762154787
 30
0.0
 10
436.7060925455808
 20
-397.9679762154787
 30
0.0
 10
436.7060925455808
 20
-399.978813854678
 30
0.0
 10
436.7060925455808
 20
-399.978813854678
 30
0.0
 10
436.7060925455808
 20
-399.978813854678
 30
0.0
 10
446.7042627507338
 20
-399.978813854678
 30
0.0
 10
446.7042627507338
 20
-399.978813854678
 30
0.0
 10
446.7042627507338
 20
-399.978813854678
 30
0.0
 10
446.7042627507338
 20
-397.9679762154787
 30
0.0
 10
446.7042627507338
 20
-397.9679762154787
 30
0.0
 10
446.7042627507338
 20
-397.9679762154787
 30
0.0
 10
456.7024329558902
 20
-397.9679762154787
 30
0.0
 10
456.7024329558902
 20
-397.9679762154787
 30
0.0
 10
456.7024329558902
 20
-397.9679762154787
 30
0.0
 10
456.7024329558902
 20
-388.9721428843943
 30
0.0
 10
456.7024329558902
 20
-388.9721428843943
 30
0.0
 10
456.7024329558902
 20
-388.9721428843943
 30
0.0
 10
458.716177961191
 20
-388.9721428843943
 30
0.0
 10
458.716177961191
 20
-388.9721428843943
 30
0.0
 10
458.716177961191
 20
-388.9721428843943
 30
0.0
 10
458.716177961191
 20
-378.9885360821478
 30
0.0
 10
458.716177961191
 20
-378.9885360821478
 30
0.0
 10
458.716177961191
 20
-378.9885360821478
 30
0.0
 10
456.7024329558902
 20
-378.9885360821478
 30
0.0
 10
456.7024329558902
 20
-378.9885360821478
 30
0.0
 10
456.7024329558902
 20
-378.9885360821478
 30
0.0
 10
456.7024329558902
 20
-369.004929279902
 30
0.0
 10
456.7024329558902
 20
-369.004929279902
 30
0.0
 10
456.7024329558902
 20
-369.004929279902
 30
0.0
 10
458.716177961191
 20
-369.004929279902
 30
0.0
 10
458.716177961191
 20
-369.004929279902
 30
0.0
 10
458.716177961191
 20
-369.004929279902
 30
0.0
 10
458.716177961191
 20
-359.0213224776555
 30
0.0
 10
458.716177961191
 20
-359.0213224776555
 30
0.0
 10
458.716177961191
 20
-359.0213224776555
 30
0.0
 10
456.7024329558902
 20
-359.0213224776555
 30
0.0
 10
456.7024329558902
 20
-359.0213224776555
 30
0.0
 10
456.7024329558902
 20
-359.0213224776555
 30
0.0
 10
456.7024329558902
 20
-349.0377156754109
 30
0.0
 10
456.7024329558902
 20
-349.0377156754109
 30
0.0
 10
456.7024329558902
 20
-349.0377156754109
 30
0.0
 10
458.716177961191
 20
-349.0377156754109
 30
0.0
 10
458.716177961191
 20
-349.0377156754109
 30
0.0
 10
458.716177961191
 20
-349.0377156754109
 30
0.0
 10
458.716177961191
 20
-339.0541088731651
 30
0.0
 10
458.716177961191
 20
-339.0541088731651
 30
0.0
 10
458.716177961191
 20
-339.0541088731651
 30
0.0
 10
456.7024329558902
 20
-339.0541088731651
 30
0.0
 10
456.7024329558902
 20
-339.0541088731651
 30
0.0
 10
456.7024329558902
 20
-339.0541088731651
 30
0.0
 10
456.7024329558902
 20
-329.0705020709192
 30
0.0
 10
456.7024329558902
 20
-329.0705020709192
 30
0.0
 10
456.7024329558902
 20
-329.0705020709192
 30
0.0
 10
458.716177961191
 20
-329.0705020709192
 30
0.0
 10
458.716177961191
 20
-329.0705020709192
 30
0.0
 10
458.716177961191
 20
-329.0705020709192
 30
0.0
 10
458.716177961191
 20
-319.0868898857104
 30
0.0
 10
458.716177961191
 20
-319.0868898857104
 30
0.0
 10
458.716177961191
 20
-319.0868898857104
 30
0.0
 10
456.7024329558902
 20
-319.0868898857104
 30
0.0
 10
456.7024329558902
 20
-319.0868898857104
 30
0.0
 10
456.7024329558902
 20
-319.0868898857104
 30
0.0
 10
456.7024329558902
 20
-309.1032777005028
 30
0.0
 10
456.7024329558902
 20
-309.1032777005028
 30
0.0
 10
456.7024329558902
 20
-309.1032777005028
 30
0.0
 10
458.716177961191
 20
-309.1032777005028
 30
0.0
 10
458.716177961191
 20
-309.1032777005028
 30
0.0
 10
458.716177961191
 20
-309.1032777005028
 30
0.0
 10
458.716177961191
 20
-299.1196655152934
 30
0.0
 10
458.716177961191
 20
-299.1196655152934
 30
0.0
 10
458.716177961191
 20
-299.1196655152934
 30
0.0
 10
456.7024329558902
 20
-299.1196655152934
 30
0.0
 10
456.7024329558902
 20
-299.1196655152934
 30
0.0
 10
456.7024329558902
 20
-299.1196655152934
 30
0.0
 10
456.7024329558902
 20
-290.123832184209
 30
0.0
 10
456.7024329558902
 20
-290.123832184209
 30
0.0
 10
456.7024329558902
 20
-290.123832184209
 30
0.0
 10
446.7042627507338
 20
-290.123832184209
 30
0.0
 10
446.7042627507338
 20
-290.123832184209
 30
0.0
 10
446.7042627507338
 20
-290.123832184209
 30
0.0
 10
446.7042627507338
 20
-288.1129999279717
 30
0.0
 10
446.7042627507338
 20
-288.1129999279717
 30
0.0
 10
446.7042627507338
 20
-288.1129999279717
 30
0.0
 10
436.7060925455808
 20
-288.1129999279717
 30
0.0
 10
436.7060925455808
 20
-288.1129999279717
 30
0.0
 10
436.7060925455808
 20
-288.1129999279717
 30
0.0
 10
436.7060925455808
 20
-290.123832184209
 30
0.0
 10
436.7060925455808
 20
-290.123832184209
 30
0.0
 10
436.7060925455808
 20
-290.123832184209
 30
0.0
 10
426.7079223404245
 20
-290.123832184209
 30
0.0
 10
426.7079223404245
 20
-290.123832184209
 30
0.0
 10
426.7079223404245
 20
-290.123832184209
 30
0.0
 10
426.7079223404245
 20
-288.1129999279717
 30
0.0
 10
426.7079223404245
 20
-288.1129999279717
 30
0.0
 10
426.7079223404245
 20
-288.1129999279717
 30
0.0
 10
416.7097521352713
 20
-288.1129999279717
 30
0.0
 10
416.7097521352713
 20
-288.1129999279717
 30
0.0
 10
416.7097521352713
 20
-288.1129999279717
 30
0.0
 10
416.7097521352713
 20
-290.123832184209
 30
0.0
 10
416.7097521352713
 20
-290.123832184209
 30
0.0
 10
416.7097521352713
 20
-290.123832184209
 30
0.0
 10
406.7115819301183
 20
-290.123832184209
 30
0.0
 10
406.7115819301183
 20
-290.123832184209
 30
0.0
 10
406.7115819301183
 20
-290.123832184209
 30
0.0
 10
406.7115819301183
 20
-288.1129999279717
 30
0.0
 10
406.7115819301183
 20
-288.1129999279717
 30
0.0
 10
406.7115819301183
 20
-288.1129999279717
 30
0.0
 10
396.7134117249652
 20
-288.1129999279717
 30
0.0
 10
396.7134117249652
 20
-288.1129999279717
 30
0.0
 10
396.7134117249652
 20
-288.1129999279717
 30
0.0
 10
396.7134117249652
 20
-290.123832184209
 30
0.0
 10
396.7134117249652
 20
-290.123832184209
 30
0.0
 10
396.7134117249652
 20
-290.123832184209
 30
0.0
 10
386.7152415198089
 20
-290.123832184209
 30
0.0
 10
386.7152415198089
 20
-290.123832184209
 30
0.0
 10
386.7152415198089
 20
-290.123832184209
 30
0.0
 10
386.7152415198089
 20
-288.1129999279717
 30
0.0
 10
386.7152415198089
 20
-288.1129999279717
 30
0.0
 10
386.7152415198089
 20
-288.1129999279717
 30
0.0
 10
376.7170713146558
 20
-288.1129999279717
 30
0.0
 10
376.7170713146558
 20
-288.1129999279717
 30
0.0
 10
376.7170713146558
 20
-288.1129999279717
 30
0.0
 10
376.7170713146558
 20
-290.123832184209
 30
0.0
 10
376.7170713146558
 20
-290.123832184209
 30
0.0
 10
376.7170713146558
 20
-290.123832184209
 30
0.0
 10
366.7189011095027
 20
-290.123832184209
 30
0.0
 10
366.7189011095027
 20
-290.123832184209
 30
0.0
 10
366.7189011095027
 20
-290.123832184209
 30
0.0
 10
366.7189011095027
 20
-288.1129999279717
 30
0.0
 10
366.7189011095027
 20
-288.1129999279717
 30
0.0
 10
366.7189011095027
 20
-288.1129999279717
 30
0.0
 10
356.7207309043496
 20
-288.1129999279717
 30
0.0
 10
356.7207309043496
 20
-288.1129999279717
 30
0.0
 10
356.7207309043496
 20
-288.1129999279717
 30
0.0
 10
356.7207309043496
 20
-290.123832184209
 30
0.0
 10
356.7207309043496
 20
-290.123832184209
 30
0.0
 10
356.7207309043496
 20
-290.123832184209
 30
0.0
 10
346.7225606991914
 20
-290.123832184209
 30
0.0
 10
346.7225606991914
 20
-290.123832184209
 30
0.0
 10
346.7225606991914
 20
-290.123832184209
 30
0.0
 10
346.7225606991914
 20
-288.1129999279717
 30
0.0
 10
346.7225606991914
 20
-288.1129999279717
 30
0.0
 10
346.7225606991914
 20
-288.1129999279717
 30
0.0
 10
336.7243904940389
 20
-288.1129999279717
 30
0.0
 10
336.7243904940389
 20
-288.1129999279717
 30
0.0
 10
336.7243904940389
 20
-288.1129999279717
 30
0.0
 10
336.7243904940389
 20
-290.123832184209
 30
0.0
 10
336.7243904940389
 20
-290.123832184209
 30
0.0
 10
336.7243904940389
 20
-290.123832184209
 30
0.0
 10
326.7262202888826
 20
-290.123832184209
 30
0.0
 10
326.7262202888826
 20
-290.123832184209
 30
0.0
 10
326.7262202888826
 20
-290.123832184209
 30
0.0
 10
326.7262202888826
 20
-288.1129999279717
 30
0.0
 10
326.7262202888826
 20
-288.1129999279717
 30
0.0
 10
326.7262202888826
 20
-288.1129999279717
 30
0.0
 10
316.7280500837308
 20
-288.1129999279717
 30
0.0
 10
316.7280500837308
 20
-288.1129999279717
 30
0.0
 10
316.7280500837308
 20
-288.1129999279717
 30
0.0
 10
316.7280500837308
 20
-290.123832184209
 30
0.0
 10
316.7280500837308
 20
-290.123832184209
 30
0.0
 10
316.7280500837308
 20
-290.123832184209
 30
0.0
 10
306.7299230049929
 20
-290.123832184209
 30
0.0
 10
306.7299230049929
 20
-290.123832184209
 30
0.0
  0
LWPOLYLINE
  5
80
330
70
100
AcDbEntity
  8
Layer 1
 62
   240
420
 15540772
370
    25
100
AcDbPolyline
 90
        4
 70
     1
 43
0.0
 10
316.7458916061688
 20
-300.1431994776778
 10
346.732002709784
 20
-300.1431994776778
 10
346.732002709784
 20
-315.1362550294858
 10
316.7458916061688
 20
-315.1362550294858
  0
LWPOLYLINE
  5
81
330
70
100
AcDbEntity
  8
Layer 1
 62
   240
420
 15540772
370
    25
100
AcDbPolyline
 90
        4
 70
     1
 43
0.0
 10
235.0090635241987
 20
-214.1209772769596
 10
244.99269185829
 20
-214.1209772769596
 10
244.99269185829
 20
-216.1318095331979
 10
235.0090635241987
 20
-216.1318095331979
  0
LWPOLYLINE
  5
82
330
70
100
AcDbEntity
  8
Layer 1
 62
   240
420
 15540772
370
    25
100
AcDbPolyline
 90
        4
 70
     1
 43
0.0
 10
295.0165548964552
 20
-214.1209772769596
 10
305.0001832305491
 20
-214.1209772769596
 10
305.0001832305491
 20
-216.1318095331979
 10
295.0165548964552
 20
-216.1318095331979
  0
LWPOLYLINE
  5
83
330
70
100
AcDbEntity
  8
Layer 1
 62
   240
420
 15540772
370
    25
100
AcDbPolyline
 90
        4
 70
     1
 43
0.0
 10
275.0140721269352
 20
-214.1209772769596
 10
284.9977004610259
 20
-214.1209772769596
 10
284.9977004610259
 20
-216.1318095331979
 10
275.0140721269352
 20
-216.1318095331979
  0
LWPOLYLINE
  5
84
330
70
100
AcDbEntity
  8
Layer 1
 62
   240
420
 15540772
370
    25
100
AcDbPolyline
 90
        4
 70
     1
 43
0.0
 10
255.0115462937194
 20
-214.1209772769596
 10
264.9951746278133
 20
-214.1209772769596
 10
264.9951746278133
 20
-216.1318095331979
 10
255.0115462937194
 20
-216.1318095331979
  0
LWPOLYLINE
  5
85
330
70
100
AcDbEntity
  8
Layer 1
 62
   240
420
 15540772
370
    25
100
AcDbPolyline
 90
        4
 70
     1
 43
0.0
 10
215.041849919706
 20
-214.1209772769596
 10
225.025478253797
 20
-214.1209772769596
 10
225.025478253797
 20
-216.1318095331979
 10
215.041849919706
 20
-216.1318095331979
  0
LWPOLYLINE
  5
86
330
70
100
AcDbEntity
  8
Layer 1
 62
   240
420
 15540772
370
    25
100
AcDbPolyline
 90
        4
 70
     1
 43
0.0
 10
232.4998850929954
 20
-174.1134751337767
 10
287.4998850792448
 20
-174.1134751337767
 10
287.4998850792448
 20
-201.1134751270267
 10
232.4998850929954
 20
-201.1134751270267
  0
SPLINE
  5
87
330
70
100
AcDbEntity
  8
Layer 1
 62
   240
420
 15540772
370
    25
100
AcDbSpline
210
0.0
220
0.0
230
1.0
 70
    11
 71
     3
 72
   263
 73
   259
 74
     0
 42
0.0000000001
 43
0.0000000001
 40
0.0
 40
0.0
 40
0.0
 40
0.0
 40
1.0
 40
1.0
 40
1.0
 40
2.0
 40
2.0
 40
2.0
 40
3.0
 40
3.0
 40
3.0
 40
4.0
 40
4.0
 40
4.0
 40
5.0
 40
5.0
 40
5.0
 40
6.0
 40
6.0
 40
6.0
 40
7.0
 40
7.0
 40
7.0
 40
8.0
 40
8.0
 40
8.0
 40
9.0
 40
9.0
 40
9.0
 40
10.0
 40
10.0
 40
10.0
 40
11.0
 40
11.0
 40
11.0
 40
12.0
 40
12.0
 40
12.0
 40
13.0
 40
13.0
 40
13.0
 40
14.0
 40
14.0
 40
14.0
 40
15.0
 40
15.0
 40
15.0
 40
16.0
 40
16.0
 40
16.0
 40
17.0
 40
17.0
 40
17.0
 40
18.0
 40
18.0
 40
18.0
 40
19.0
 40
19.0
 40
19.0
 40
20.0
 40
20.0
 40
20.0
 40
21.0
 40
21.0
 40
21.0
 40
22.0
 40
22.0
 40
22.0
 40
23.0
 40
23.0
 40
23.0
 40
24.0
 40
24.0
 40
24.0
 40
25.0
 40
25.0
 40
25.0
 40
26.0
 40
26.0
 40
26.0
 40
27.0
 40
27.0
 40
27.0
 40
28.0
 40
28.0
 40
28.0
 40
29.0
 40
29.0
 40
29.0
 40
30.0
 40
30.0
 40
30.0
 40
31.0
 40
31.0
 40
31.0
 40
32.0
 40
32.0
 40
32.0
 40
33.0
 40
33.0
 40
33.0
 40
34.0
 40
34.0
 40
34.0
 40
35.0
 40
35.0
 40
35.0
 40
36.0
 40
36.0
 40
36.0
 40
37.0
 40
37.0
 40
37.0
 40
38.0
 40
38.0
 40
38.0
 40
39.0
 40
39.0
 40
39.0
 40
40.0
 40
40.0
 40
40.0
 40
41.0
 40
41.0
 40
41.0
 40
42.0
 40
42.0
 40
42.0
 40
43.0
 40
43.0
 40
43.0
 40
44.0
 40
44.0
 40
44.0
 40
45.0
 40
45.0
 40
45.0
 40
46.0
 40
46.0
 40
46.0
 40
47.0
 40
47.0
 40
47.0
 40
48.0
 40
48.0
 40
48.0
 40
49.0
 40
49.0
 40
49.0
 40
50.0
 40
50.0
 40
50.0
 40
51.0
 40
51.0
 40
51.0
 40
52.0
 40
52.0
 40
52.0
 40
53.0
 40
53.0
 40
53.0
 40
54.0
 40
54.0
 40
54.0
 40
55.0
 40
55.0
 40
55.0
 40
56.0
 40
56.0
 40
56.0
 40
57.0
 40
57.0
 40
57.0
 40
58.0
 40
58.0
 40
58.0
 40
59.0
 40
59.0
 40
59.0
 40
60.0
 40
60.0
 40
60.0
 40
61.0
 40
61.0
 40
61.0
 40
62.0
 40
62.0
 40
62.0
 40
63.0
 40
63.0
 40
63.0
 40
64.0
 40
64.0
 40
64.0
 40
65.0
 40
65.0
 40
65.0
 40
66.0
 40
66.0
 40
66.0
 40
67.0
 40
67.0
 40
67.0
 40
68.0
 40
68.0
 40
68.0
 40
69.0
 40
69.0
 40
69.0
 40
70.0
 40
70.0
 40
70.0
 40
71.0
 40
71.0
 40
71.0
 40
72.0
 40
72.0
 40
72.0
 40
73.0
 40
73.0
 40
73.0
 40
74.0
 40
74.0
 40
74.0
 40
75.0
 40
75.0
 40
75.0
 40
76.0
 40
76.0
 40
76.0
 40
77.0
 40
77.0
 40
77.0
 40
78.0
 40
78.0
 40
78.0
 40
79.0
 40
79.0
 40
79.0
 40
80.0
 40
80.0
 40
80.0
 40
81.0
 40
81.0
 40
81.0
 40
82.0
 40
82.0
 40
82.0
 40
83.0
 40
83.0
 40
83.0
 40
84.0
 40
84.0
 40
84.0
 40
85.0
 40
85.0
 40
85.0
 40
86.0
 40
86.0
 40
86.0
 40
86.0
 10
205.9998881394574
 20
-154.1134751387768
 30
0.0
 10
205.9998881394574
 20
-154.1134751387768
 30
0.0
 10
205.9998881394574
 20
-171.1134741775411
 30
0.0
 10
205.9998881394574
 20
-171.1134741775411
 30
0.0
 10
205.9998881394574
 20
-171.1134741775411
 30
0.0
 10
203.9998882525437
 20
-171.1134741775411
 30
0.0
 10
203.9998882525437
 20
-171.1134741775411
 30
0.0
 10
203.9998882525437
 20
-171.1134741775411
 30
0.0
 10
203.9998882525437
 20
-181.1134736121083
 30
0.0
 10
203.9998882525437
 20
-181.1134736121083
 30
0.0
 10
203.9998882525437
 20
-181.1134736121083
 30
0.0
 10
205.9998881394574
 20
-181.1134736121083
 30
0.0
 10
205.9998881394574
 20
-181.1134736121083
 30
0.0
 10
205.9998881394574
 20
-181.1134736121083
 30
0.0
 10
205.9998881394574
 20
-191.1134730466756
 30
0.0
 10
205.9998881394574
 20
-191.1134730466756
 30
0.0
 10
205.9998881394574
 20
-191.1134730466756
 30
0.0
 10
203.9998882525437
 20
-191.1134730466756
 30
0.0
 10
203.9998882525437
 20
-191.1134730466756
 30
0.0
 10
203.9998882525437
 20
-191.1134730466756
 30
0.0
 10
203.9998882525437
 20
-201.1134724812428
 30
0.0
 10
203.9998882525437
 20
-201.1134724812428
 30
0.0
 10
203.9998882525437
 20
-201.1134724812428
 30
0.0
 10
205.9998881394574
 20
-201.1134724812428
 30
0.0
 10
205.9998881394574
 20
-201.1134724812428
 30
0.0
 10
205.9998881394574
 20
-201.1134724812428
 30
0.0
 10
205.9998881394574
 20
-211.1134719158101
 30
0.0
 10
205.9998881394574
 20
-211.1134719158101
 30
0.0
 10
205.9998881394574
 20
-211.1134719158101
 30
0.0
 10
203.9998882525437
 20
-211.1134719158101
 30
0.0
 10
203.9998882525437
 20
-211.1134719158101
 30
0.0
 10
203.9998882525437
 20
-211.1134719158101
 30
0.0
 10
203.9998882525437
 20
-221.1134713503773
 30
0.0
 10
203.9998882525437
 20
-221.1134713503773
 30
0.0
 10
203.9998882525437
 20
-221.1134713503773
 30
0.0
 10
205.9998881394574
 20
-221.1134713503773
 30
0.0
 10
205.9998881394574
 20
-221.1134713503773
 30
0.0
 10
205.9998881394574
 20
-221.1134713503773
 30
0.0
 10
205.9998881394574
 20
-231.1134707849446
 30
0.0
 10
205.9998881394574
 20
-231.1134707849446
 30
0.0
 10
205.9998881394574
 20
-231.1134707849446
 30
0.0
 10
203.9998882525437
 20
-231.1134707849446
 30
0.0
 10
203.9998882525437
 20
-231.1134707849446
 30
0.0
 10
203.9998882525437
 20
-231.1134707849446
 30
0.0
 10
203.9998882525437
 20
-241.1134702195118
 30
0.0
 10
203.9998882525437
 20
-241.1134702195118
 30
0.0
 10
203.9998882525437
 20
-241.1134702195118
 30
0.0
 10
205.9998881394574
 20
-241.1134702195118
 30
0.0
 10
205.9998881394574
 20
-241.1134702195118
 30
0.0
 10
205.9998881394574
 20
-241.1134702195118
 30
0.0
 10
205.9998881394574
 20
-251.1134696540791
 30
0.0
 10
205.9998881394574
 20
-251.1134696540791
 30
0.0
 10
205.9998881394574
 20
-251.1134696540791
 30
0.0
 10
203.9998882525437
 20
-251.1134696540791
 30
0.0
 10
203.9998882525437
 20
-251.1134696540791
 30
0.0
 10
203.9998882525437
 20
-251.1134696540791
 30
0.0
 10
203.9998882525437
 20
-261.1134690886463
 30
0.0
 10
203.9998882525437
 20
-261.1134690886463
 30
0.0
 10
203.9998882525437
 20
-261.1134690886463
 30
0.0
 10
205.9998881394574
 20
-261.1134690886463
 30
0.0
 10
205.9998881394574
 20
-261.1134690886463
 30
0.0
 10
205.9998881394574
 20
-261.1134690886463
 30
0.0
 10
205.9998881394574
 20
-271.1134685232135
 30
0.0
 10
205.9998881394574
 20
-271.1134685232135
 30
0.0
 10
205.9998881394574
 20
-271.1134685232135
 30
0.0
 10
205.9998881394574
 20
-278.1134681274109
 30
0.0
 10
205.9998881394574
 20
-278.1134681274109
 30
0.0
 10
205.9998881394574
 20
-278.1134681274109
 30
0.0
 10
214.999887630567
 20
-278.1134681274109
 30
0.0
 10
214.999887630567
 20
-278.1134681274109
 30
0.0
 10
214.999887630567
 20
-278.1134681274109
 30
0.0
 10
214.999887630567
 20
-276.1134682404971
 30
0.0
 10
214.999887630567
 20
-276.1134682404971
 30
0.0
 10
214.999887630567
 20
-276.1134682404971
 30
0.0
 10
224.9998870651352
 20
-276.1134682404971
 30
0.0
 10
224.9998870651352
 20
-276.1134682404971
 30
0.0
 10
224.9998870651352
 20
-276.1134682404971
 30
0.0
 10
224.9998870651352
 20
-278.1134681274109
 30
0.0
 10
224.9998870651352
 20
-278.1134681274109
 30
0.0
 10
224.9998870651352
 20
-278.1134681274109
 30
0.0
 10
234.9998864997028
 20
-278.1134681274109
 30
0.0
 10
234.9998864997028
 20
-278.1134681274109
 30
0.0
 10
234.9998864997028
 20
-278.1134681274109
 30
0.0
 10
234.9998864997028
 20
-276.1134682404971
 30
0.0
 10
234.9998864997028
 20
-276.1134682404971
 30
0.0
 10
234.9998864997028
 20
-276.1134682404971
 30
0.0
 10
244.9998859342713
 20
-276.1134682404971
 30
0.0
 10
244.9998859342713
 20
-276.1134682404971
 30
0.0
 10
244.9998859342713
 20
-276.1134682404971
 30
0.0
 10
244.9998859342713
 20
-278.1134681274109
 30
0.0
 10
244.9998859342713
 20
-278.1134681274109
 30
0.0
 10
244.9998859342713
 20
-278.1134681274109
 30
0.0
 10
254.9998853688389
 20
-278.1134681274109
 30
0.0
 10
254.9998853688389
 20
-278.1134681274109
 30
0.0
 10
254.9998853688389
 20
-278.1134681274109
 30
0.0
 10
254.9998853688389
 20
-276.1134682404971
 30
0.0
 10
254.9998853688389
 20
-276.1134682404971
 30
0.0
 10
254.9998853688389
 20
-276.1134682404971
 30
0.0
 10
264.9998848034032
 20
-276.1134682404971
 30
0.0
 10
264.9998848034032
 20
-276.1134682404971
 30
0.0
 10
264.9998848034032
 20
-276.1134682404971
 30
0.0
 10
264.9998848034032
 20
-278.1134681274109
 30
0.0
 10
264.9998848034032
 20
-278.1134681274109
 30
0.0
 10
264.9998848034032
 20
-278.1134681274109
 30
0.0
 10
274.9998842379705
 20
-278.1134681274109
 30
0.0
 10
274.9998842379705
 20
-278.1134681274109
 30
0.0
 10
274.9998842379705
 20
-278.1134681274109
 30
0.0
 10
274.9998842379705
 20
-276.1134682404971
 30
0.0
 10
274.9998842379705
 20
-276.1134682404971
 30
0.0
 10
274.9998842379705
 20
-276.1134682404971
 30
0.0
 10
284.9998836725387
 20
-276.1134682404971
 30
0.0
 10
284.9998836725387
 20
-276.1134682404971
 30
0.0
 10
284.9998836725387
 20
-276.1134682404971
 30
0.0
 10
284.9998836725387
 20
-278.1134681274109
 30
0.0
 10
284.9998836725387
 20
-278.1134681274109
 30
0.0
 10
284.9998836725387
 20
-278.1134681274109
 30
0.0
 10
294.9998831071059
 20
-278.1134681274109
 30
0.0
 10
294.9998831071059
 20
-278.1134681274109
 30
0.0
 10
294.9998831071059
 20
-278.1134681274109
 30
0.0
 10
294.9998831071059
 20
-276.1134682404971
 30
0.0
 10
294.9998831071059
 20
-276.1134682404971
 30
0.0
 10
294.9998831071059
 20
-276.1134682404971
 30
0.0
 10
304.9998825416732
 20
-276.1134682404971
 30
0.0
 10
304.9998825416732
 20
-276.1134682404971
 30
0.0
 10
304.9998825416732
 20
-276.1134682404971
 30
0.0
 10
304.9998825416732
 20
-278.1134681274109
 30
0.0
 10
304.9998825416732
 20
-278.1134681274109
 30
0.0
 10
304.9998825416732
 20
-278.1134681274109
 30
0.0
 10
313.999882032785
 20
-278.1134681274109
 30
0.0
 10
313.999882032785
 20
-278.1134681274109
 30
0.0
 10
313.999882032785
 20
-278.1134681274109
 30
0.0
 10
313.999882032785
 20
-261.1134690886463
 30
0.0
 10
313.999882032785
 20
-261.1134690886463
 30
0.0
 10
313.999882032785
 20
-261.1134690886463
 30
0.0
 10
315.9998819196984
 20
-261.1134690886463
 30
0.0
 10
315.9998819196984
 20
-261.1134690886463
 30
0.0
 10
315.9998819196984
 20
-261.1134690886463
 30
0.0
 10
315.9998819196984
 20
-251.1134696540791
 30
0.0
 10
315.9998819196984
 20
-251.1134696540791
 30
0.0
 10
315.9998819196984
 20
-251.1134696540791
 30
0.0
 10
313.999882032785
 20
-251.1134696540791
 30
0.0
 10
313.999882032785
 20
-251.1134696540791
 30
0.0
 10
313.999882032785
 20
-251.1134696540791
 30
0.0
 10
313.999882032785
 20
-241.1134702195118
 30
0.0
 10
313.999882032785
 20
-241.1134702195118
 30
0.0
 10
313.999882032785
 20
-241.1134702195118
 30
0.0
 10
315.9998819196984
 20
-241.1134702195118
 30
0.0
 10
315.9998819196984
 20
-241.1134702195118
 30
0.0
 10
315.9998819196984
 20
-241.1134702195118
 30
0.0
 10
315.9998819196984
 20
-231.1134707849446
 30
0.0
 10
315.9998819196984
 20
-231.1134707849446
 30
0.0
 10
315.9998819196984
 20
-231.1134707849446
 30
0.0
 10
313.999882032785
 20
-231.1134707849446
 30
0.0
 10
313.999882032785
 20
-231.1134707849446
 30
0.0
 10
313.999882032785
 20
-231.1134707849446
 30
0.0
 10
313.999882032785
 20
-221.1134713503773
 30
0.0
 10
313.999882032785
 20
-221.1134713503773
 30
0.0
 10
313.999882032785
 20
-221.1134713503773
 30
0.0
 10
315.9998819196984
 20
-221.1134713503773
 30
0.0
 10
315.9998819196984
 20
-221.1134713503773
 30
0.0
 10
315.9998819196984
 20
-221.1134713503773
 30
0.0
 10
315.9998819196984
 20
-211.1134719158101
 30
0.0
 10
315.9998819196984
 20
-211.1134719158101
 30
0.0
 10
315.9998819196984
 20
-211.1134719158101
 30
0.0
 10
313.999882032785
 20
-211.1134719158101
 30
0.0
 10
313.999882032785
 20
-211.1134719158101
 30
0.0
 10
313.999882032785
 20
-211.1134719158101
 30
0.0
 10
313.999882032785
 20
-201.1134724812428
 30
0.0
 10
313.999882032785
 20
-201.1134724812428
 30
0.0
 10
313.999882032785
 20
-201.1134724812428
 30
0.0
 10
315.9998819196984
 20
-201.1134724812428
 30
0.0
 10
315.9998819196984
 20
-201.1134724812428
 30
0.0
 10
315.9998819196984
 20
-201.1134724812428
 30
0.0
 10
315.9998819196984
 20
-191.1134730466756
 30
0.0
 10
315.9998819196984
 20
-191.1134730466756
 30
0.0
 10
315.9998819196984
 20
-191.1134730466756
 30
0.0
 10
313.999882032785
 20
-191.1134730466756
 30
0.0
 10
313.999882032785
 20
-191.1134730466756
 30
0.0
 10
313.999882032785
 20
-191.1134730466756
 30
0.0
 10
313.999882032785
 20
-181.1134736121083
 30
0.0
 10
313.999882032785
 20
-181.1134736121083
 30
0.0
 10
313.999882032785
 20
-181.1134736121083
 30
0.0
 10
315.9998819196984
 20
-181.1134736121083
 30
0.0
 10
315.9998819196984
 20
-181.1134736121083
 30
0.0
 10
315.9998819196984
 20
-181.1134736121083
 30
0.0
 10
315.9998819196984
 20
-171.1134741775411
 30
0.0
 10
315.9998819196984
 20
-171.1134741775411
 30
0.0
 10
315.9998819196984
 20
-171.1134741775411
 30
0.0
 10
313.999882032785
 20
-171.1134741775411
 30
0.0
 10
313.999882032785
 20
-171.1134741775411
 30
0.0
 10
313.999882032785
 20
-171.1134741775411
 30
0.0
 10
313.999882032785
 20
-161.1134747429738
 30
0.0
 10
313.999882032785
 20
-161.1134747429738
 30
0.0
 10
313.999882032785
 20
-161.1134747429738
 30
0.0
 10
313.999882032785
 20
-154.1134751387768
 30
0.0
 10
313.999882032785
 20
-154.1134751387768
 30
0.0
 10
313.999882032785
 20
-154.1134751387768
 30
0.0
 10
304.9998825416732
 20
-154.1134751387768
 30
0.0
 10
304.9998825416732
 20
-154.1134751387768
 30
0.0
 10
304.9998825416732
 20
-154.1134751387768
 30
0.0
 10
304.9998825416732
 20
-156.1134750256902
 30
0.0
 10
304.9998825416732
 20
-156.1134750256902
 30
0.0
 10
304.9998825416732
 20
-156.1134750256902
 30
0.0
 10
294.9998831071059
 20
-156.1134750256902
 30
0.0
 10
294.9998831071059
 20
-156.1134750256902
 30
0.0
 10
294.9998831071059
 20
-156.1134750256902
 30
0.0
 10
294.9998831071059
 20
-154.1134751387768
 30
0.0
 10
294.9998831071059
 20
-154.1134751387768
 30
0.0
 10
294.9998831071059
 20
-154.1134751387768
 30
0.0
 10
284.9998836725387
 20
-154.1134751387768
 30
0.0
 10
284.9998836725387
 20
-154.1134751387768
 30
0.0
 10
284.9998836725387
 20
-154.1134751387768
 30
0.0
 10
284.9998836725387
 20
-156.1134750256902
 30
0.0
 10
284.9998836725387
 20
-156.1134750256902
 30
0.0
 10
284.9998836725387
 20
-156.1134750256902
 30
0.0
 10
274.9998842379705
 20
-156.1134750256902
 30
0.0
 10
274.9998842379705
 20
-156.1134750256902
 30
0.0
 10
274.9998842379705
 20
-156.1134750256902
 30
0.0
 10
274.9998842379705
 20
-154.1134751387768
 30
0.0
 10
274.9998842379705
 20
-154.1134751387768
 30
0.0
 10
274.9998842379705
 20
-154.1134751387768
 30
0.0
 10
264.9998848034032
 20
-154.1134751387768
 30
0.0
 10
264.9998848034032
 20
-154.1134751387768
 30
0.0
 10
264.9998848034032
 20
-154.1134751387768
 30
0.0
 10
264.9998848034032
 20
-156.1134750256902
 30
0.0
 10
264.9998848034032
 20
-156.1134750256902
 30
0.0
 10
264.9998848034032
 20
-156.1134750256902
 30
0.0
 10
254.9998853688389
 20
-156.1134750256902
 30
0.0
 10
254.9998853688389
 20
-156.1134750256902
 30
0.0
 10
254.9998853688389
 20
-156.1134750256902
 30
0.0
 10
254.9998853688389
 20
-154.1134751387768
 30
0.0
 10
254.9998853688389
 20
-154.1134751387768
 30
0.0
 10
254.9998853688389
 20
-154.1134751387768
 30
0.0
 10
244.9998859342713
 20
-154.1134751387768
 30
0.0
 10
244.9998859342713
 20
-154.1134751387768
 30
0.0
 10
244.9998859342713
 20
-154.1134751387768
 30
0.0
 10
244.9998859342713
 20
-156.1134750256902
 30
0.0
 10
244.9998859342713
 20
-156.1134750256902
 30
0.0
 10
244.9998859342713
 20
-156.1134750256902
 30
0.0
 10
234.9998864997028
 20
-156.1134750256902
 30
0.0
 10
234.9998864997028
 20
-156.1134750256902
 30
0.0
 10
234.9998864997028
 20
-156.1134750256902
 30
0.0
 10
234.9998864997028
 20
-154.1134751387768
 30
0.0
 10
234.9998864997028
 20
-154.1134751387768
 30
0.0
 10
234.9998864997028
 20
-154.1134751387768
 30
0.0
 10
224.9998870651352
 20
-154.1134751387768
 30
0.0
 10
224.9998870651352
 20
-154.1134751387768
 30
0.0
 10
224.9998870651352
 20
-154.1134751387768
 30
0.0
 10
224.9998870651352
 20
-156.1134750256902
 30
0.0
 10
224.9998870651352
 20
-156.1134750256902
 30
0.0
 10
224.9998870651352
 20
-156.1134750256902
 30
0.0
 10
214.999887630567
 20
-156.1134750256902
 30
0.0
 10
214.999887630567
 20
-156.1134750256902
 30
0.0
 10
214.999887630567
 20
-156.1134750256902
 30
0.0
 10
214.999887630567
 20
-154.1134751387768
 30
0.0
 10
214.999887630567
 20
-154.1134751387768
 30
0.0
 10
214.999887630567
 20
-154.1134751387768
 30
0.0
 10
205.9998881394574
 20
-154.1134751387768
 30
0.0
 10
205.9998881394574
 20
-154.1134751387768
 30
0.0
  0
LWPOLYLINE
  5
88
330
70
100
AcDbEntity
  8
Layer 1
 62
   240
420
 15540772
370
    25
100
AcDbPolyline
 90
        4
 70
     1
 43
0.0
 10
352.5013737728436
 20
-214.1209772769596
 10
362.4850021069337
 20
-214.1209772769596
 10
362.4850021069337
 20
-216.1318095331979
 10
352.5013737728436
 20
-216.1318095331979
  0
LWPOLYLINE
  5
89
330
70
100
AcDbEntity
  8
Layer 1
 62
   240
420
 15540772
370
    25
100
AcDbPolyline
 90
        4
 70
     1
 43
0.0
 10
412.5088651450992
 20
-214.1209772769596
 10
422.4924934791937
 20
-214.1209772769596
 10
422.4924934791937
 20
-216.1318095331979
 10
412.5088651450992
 20
-216.1318095331979
  0
LWPOLYLINE
  5
8A
330
70
100
AcDbEntity
  8
Layer 1
 62
   240
420
 15540772
370
    25
100
AcDbPolyline
 90
        4
 70
     1
 43
0.0
 10
392.5063823755792
 20
-214.1209772769596
 10
402.4900107096699
 20
-214.1209772769596
 10
402.4900107096699
 20
-216.1318095331979
 10
392.5063823755792
 20
-216.1318095331979
  0
LWPOLYLINE
  5
8B
330
70
100
AcDbEntity
  8
Layer 1
 62
   240
420
 15540772
370
    25
100
AcDbPolyline
 90
        4
 70
     1
 43
0.0
 10
372.503856542363
 20
-214.1209772769596
 10
382.4874848764569
 20
-214.1209772769596
 10
382.4874848764569
 20
-216.1318095331979
 10
372.503856542363
 20
-216.1318095331979
  0
LWPOLYLINE
  5
8C
330
70
100
AcDbEntity
  8
Layer 1
 62
   240
420
 15540772
370
    25
100
AcDbPolyline
 90
        4
 70
     1
 43
0.0
 10
332.5341601683506
 20
-214.1209772769596
 10
342.517788502442
 20
-214.1209772769596
 10
342.517788502442
 20
-216.1318095331979
 10
332.5341601683506
 20
-216.1318095331979
  0
LWPOLYLINE
  5
8D
330
70
100
AcDbEntity
  8
Layer 1
 62
   240
420
 15540772
370
    25
100
AcDbPolyline
 90
        4
 70
     1
 43
0.0
 10
349.9921953416403
 20
-174.1129999564716
 10
404.9921953278906
 20
-174.1129999564716
 10
404.9921953278906
 20
-201.1129999497219
 10
349.9921953416403
 20
-201.1129999497219
  0
SPLINE
  5
8E
330
70
100
AcDbEntity
  8
Layer 1
 62
   240
420
 15540772
370
    25
100
AcDbSpline
210
0.0
220
0.0
230
1.0
 70
    11
 71
     3
 72
   263
 73
   259
 74
     0
 42
0.0000000001
 43
0.0000000001
 40
0.0
 40
0.0
 40
0.0
 40
0.0
 40
1.0
 40
1.0
 40
1.0
 40
2.0
 40
2.0
 40
2.0
 40
3.0
 40
3.0
 40
3.0
 40
4.0
 40
4.0
 40
4.0
 40
5.0
 40
5.0
 40
5.0
 40
6.0
 40
6.0
 40
6.0
 40
7.0
 40
7.0
 40
7.0
 40
8.0
 40
8.0
 40
8.0
 40
9.0
 40
9.0
 40
9.0
 40
10.0
 40
10.0
 40
10.0
 40
11.0
 40
11.0
 40
11.0
 40
12.0
 40
12.0
 40
12.0
 40
13.0
 40
13.0
 40
13.0
 40
14.0
 40
14.0
 40
14.0
 40
15.0
 40
15.0
 40
15.0
 40
16.0
 40
16.0
 40
16.0
 40
17.0
 40
17.0
 40
17.0
 40
18.0
 40
18.0
 40
18.0
 40
19.0
 40
19.0
 40
19.0
 40
20.0
 40
20.0
 40
20.0
 40
21.0
 40
21.0
 40
21.0
 40
22.0
 40
22.0
 40
22.0
 40
23.0
 40
23.0
 40
23.0
 40
24.0
 40
24.0
 40
24.0
 40
25.0
 40
25.0
 40
25.0
 40
26.0
 40
26.0
 40
26.0
 40
27.0
 40
27.0
 40
27.0
 40
28.0
 40
28.0
 40
28.0
 40
29.0
 40
29.0
 40
29.0
 40
30.0
 40
30.0
 40
30.0
 40
31.0
 40
31.0
 40
31.0
 40
32.0
 40
32.0
 40
32.0
 40
33.0
 40
33.0
 40
33.0
 40
34.0
 40
34.0
 40
34.0
 40
35.0
 40
35.0
 40
35.0
 40
36.0
 40
36.0
 40
36.0
 40
37.0
 40
37.0
 40
37.0
 40
38.0
 40
38.0
 40
38.0
 40
39.0
 40
39.0
 40
39.0
 40
40.0
 40
40.0
 40
40.0
 40
41.0
 40
41.0
 40
41.0
 40
42.0
 40
42.0
 40
42.0
 40
43.0
 40
43.0
 40
43.0
 40
44.0
 40
44.0
 40
44.0
 40
45.0
 40
45.0
 40
45.0
 40
46.0
 40
46.0
 40
46.0
 40
47.0
 40
47.0
 40
47.0
 40
48.0
 40
48.0
 40
48.0
 40
49.0
 40
49.0
 40
49.0
 40
50.0
 40
50.0
 40
50.0
 40
51.0
 40
51.0
 40
51.0
 40
52.0
 40
52.0
 40
52.0
 40
53.0
 40
53.0
 40
53.0
 40
54.0
 40
54.0
 40
54.0
 40
55.0
 40
55.0
 40
55.0
 40
56.0
 40
56.0
 40
56.0
 40
57.0
 40
57.0
 40
57.0
 40
58.0
 40
58.0
 40
58.0
 40
59.0
 40
59.0
 40
59.0
 40
60.0
 40
60.0
 40
60.0
 40
61.0
 40
61.0
 40
61.0
 40
62.0
 40
62.0
 40
62.0
 40
63.0
 40
63.0
 40
63.0
 40
64.0
 40
64.0
 40
64.0
 40
65.0
 40
65.0
 40
65.0
 40
66.0
 40
66.0
 40
66.0
 40
67.0
 40
67.0
 40
67.0
 40
68.0
 40
68.0
 40
68.0
 40
69.0
 40
69.0
 40
69.0
 40
70.0
 40
70.0
 40
70.0
 40
71.0
 40
71.0
 40
71.0
 40
72.0
 40
72.0
 40
72.0
 40
73.0
 40
73.0
 40
73.0
 40
74.0
 40
74.0
 40
74.0
 40
75.0
 40
75.0
 40
75.0
 40
76.0
 40
76.0
 40
76.0
 40
77.0
 40
77.0
 40
77.0
 40
78.0
 40
78.0
 40
78.0
 40
79.0
 40
79.0
 40
79.0
 40
80.0
 40
80.0
 40
80.0
 40
81.0
 40
81.0
 40
81.0
 40
82.0
 40
82.0
 40
82.0
 40
83.0
 40
83.0
 40
83.0
 40
84.0
 40
84.0
 40
84.0
 40
85.0
 40
85.0
 40
85.0
 40
86.0
 40
86.0
 40
86.0
 40
86.0
 10
323.4921983881014
 20
-154.1134751387768
 30
0.0
 10
323.4921983881014
 20
-154.1134751387768
 30
0.0
 10
323.4921983881014
 20
-171.1134741775411
 30
0.0
 10
323.4921983881014
 20
-171.1134741775411
 30
0.0
 10
323.4921983881014
 20
-171.1134741775411
 30
0.0
 10
321.4921985011879
 20
-171.1134741775411
 30
0.0
 10
321.4921985011879
 20
-171.1134741775411
 30
0.0
 10
321.4921985011879
 20
-171.1134741775411
 30
0.0
 10
321.4921985011879
 20
-181.1134736121083
 30
0.0
 10
321.4921985011879
 20
-181.1134736121083
 30
0.0
 10
321.4921985011879
 20
-181.1134736121083
 30
0.0
 10
323.4921983881014
 20
-181.1134736121083
 30
0.0
 10
323.4921983881014
 20
-181.1134736121083
 30
0.0
 10
323.4921983881014
 20
-181.1134736121083
 30
0.0
 10
323.4921983881014
 20
-191.1134730466756
 30
0.0
 10
323.4921983881014
 20
-191.1134730466756
 30
0.0
 10
323.4921983881014
 20
-191.1134730466756
 30
0.0
 10
321.4921985011879
 20
-191.1134730466756
 30
0.0
 10
321.4921985011879
 20
-191.1134730466756
 30
0.0
 10
321.4921985011879
 20
-191.1134730466756
 30
0.0
 10
321.4921985011879
 20
-201.1134724812428
 30
0.0
 10
321.4921985011879
 20
-201.1134724812428
 30
0.0
 10
321.4921985011879
 20
-201.1134724812428
 30
0.0
 10
323.4921983881014
 20
-201.1134724812428
 30
0.0
 10
323.4921983881014
 20
-201.1134724812428
 30
0.0
 10
323.4921983881014
 20
-201.1134724812428
 30
0.0
 10
323.4921983881014
 20
-211.1134719158101
 30
0.0
 10
323.4921983881014
 20
-211.1134719158101
 30
0.0
 10
323.4921983881014
 20
-211.1134719158101
 30
0.0
 10
321.4921985011879
 20
-211.1134719158101
 30
0.0
 10
321.4921985011879
 20
-211.1134719158101
 30
0.0
 10
321.4921985011879
 20
-211.1134719158101
 30
0.0
 10
321.4921985011879
 20
-221.1134713503773
 30
0.0
 10
321.4921985011879
 20
-221.1134713503773
 30
0.0
 10
321.4921985011879
 20
-221.1134713503773
 30
0.0
 10
323.4921983881014
 20
-221.1134713503773
 30
0.0
 10
323.4921983881014
 20
-221.1134713503773
 30
0.0
 10
323.4921983881014
 20
-221.1134713503773
 30
0.0
 10
323.4921983881014
 20
-231.1134707849446
 30
0.0
 10
323.4921983881014
 20
-231.1134707849446
 30
0.0
 10
323.4921983881014
 20
-231.1134707849446
 30
0.0
 10
321.4921985011879
 20
-231.1134707849446
 30
0.0
 10
321.4921985011879
 20
-231.1134707849446
 30
0.0
 10
321.4921985011879
 20
-231.1134707849446
 30
0.0
 10
321.4921985011879
 20
-241.1134702195118
 30
0.0
 10
321.4921985011879
 20
-241.1134702195118
 30
0.0
 10
321.4921985011879
 20
-241.1134702195118
 30
0.0
 10
323.4921983881014
 20
-241.1134702195118
 30
0.0
 10
323.4921983881014
 20
-241.1134702195118
 30
0.0
 10
323.4921983881014
 20
-241.1134702195118
 30
0.0
 10
323.4921983881014
 20
-251.1134696540791
 30
0.0
 10
323.4921983881014
 20
-251.1134696540791
 30
0.0
 10
323.4921983881014
 20
-251.1134696540791
 30
0.0
 10
321.4921985011879
 20
-251.1134696540791
 30
0.0
 10
321.4921985011879
 20
-251.1134696540791
 30
0.0
 10
321.4921985011879
 20
-251.1134696540791
 30
0.0
 10
321.4921985011879
 20
-261.1134690886463
 30
0.0
 10
321.4921985011879
 20
-261.1134690886463
 30
0.0
 10
321.4921985011879
 20
-261.1134690886463
 30
0.0
 10
323.4921983881014
 20
-261.1134690886463
 30
0.0
 10
323.4921983881014
 20
-261.1134690886463
 30
0.0
 10
323.4921983881014
 20
-261.1134690886463
 30
0.0
 10
323.4921983881014
 20
-271.1134685232135
 30
0.0
 10
323.4921983881014
 20
-271.1134685232135
 30
0.0
 10
323.4921983881014
 20
-271.1134685232135
 30
0.0
 10
323.4921983881014
 20
-278.1134681274109
 30
0.0
 10
323.4921983881014
 20
-278.1134681274109
 30
0.0
 10
323.4921983881014
 20
-278.1134681274109
 30
0.0
 10
332.4921978792119
 20
-278.1134681274109
 30
0.0
 10
332.4921978792119
 20
-278.1134681274109
 30
0.0
 10
332.4921978792119
 20
-278.1134681274109
 30
0.0
 10
332.4921978792119
 20
-276.1134682404971
 30
0.0
 10
332.4921978792119
 20
-276.1134682404971
 30
0.0
 10
332.4921978792119
 20
-276.1134682404971
 30
0.0
 10
342.4921973137805
 20
-276.1134682404971
 30
0.0
 10
342.4921973137805
 20
-276.1134682404971
 30
0.0
 10
342.4921973137805
 20
-276.1134682404971
 30
0.0
 10
342.4921973137805
 20
-278.1134681274109
 30
0.0
 10
342.4921973137805
 20
-278.1134681274109
 30
0.0
 10
342.4921973137805
 20
-278.1134681274109
 30
0.0
 10
352.4921967483477
 20
-278.1134681274109
 30
0.0
 10
352.4921967483477
 20
-278.1134681274109
 30
0.0
 10
352.4921967483477
 20
-278.1134681274109
 30
0.0
 10
352.4921967483477
 20
-276.1134682404971
 30
0.0
 10
352.4921967483477
 20
-276.1134682404971
 30
0.0
 10
352.4921967483477
 20
-276.1134682404971
 30
0.0
 10
362.4921961829149
 20
-276.1134682404971
 30
0.0
 10
362.4921961829149
 20
-276.1134682404971
 30
0.0
 10
362.4921961829149
 20
-276.1134682404971
 30
0.0
 10
362.4921961829149
 20
-278.1134681274109
 30
0.0
 10
362.4921961829149
 20
-278.1134681274109
 30
0.0
 10
362.4921961829149
 20
-278.1134681274109
 30
0.0
 10
372.4921956174828
 20
-278.1134681274109
 30
0.0
 10
372.4921956174828
 20
-278.1134681274109
 30
0.0
 10
372.4921956174828
 20
-278.1134681274109
 30
0.0
 10
372.4921956174828
 20
-276.1134682404971
 30
0.0
 10
372.4921956174828
 20
-276.1134682404971
 30
0.0
 10
372.4921956174828
 20
-276.1134682404971
 30
0.0
 10
382.4921950520468
 20
-276.1134682404971
 30
0.0
 10
382.4921950520468
 20
-276.1134682404971
 30
0.0
 10
382.4921950520468
 20
-276.1134682404971
 30
0.0
 10
382.4921950520468
 20
-278.1134681274109
 30
0.0
 10
382.4921950520468
 20
-278.1134681274109
 30
0.0
 10
382.4921950520468
 20
-278.1134681274109
 30
0.0
 10
392.4921944866148
 20
-278.1134681274109
 30
0.0
 10
392.4921944866148
 20
-278.1134681274109
 30
0.0
 10
392.4921944866148
 20
-278.1134681274109
 30
0.0
 10
392.4921944866148
 20
-276.1134682404971
 30
0.0
 10
392.4921944866148
 20
-276.1134682404971
 30
0.0
 10
392.4921944866148
 20
-276.1134682404971
 30
0.0
 10
402.4921939211826
 20
-276.1134682404971
 30
0.0
 10
402.4921939211826
 20
-276.1134682404971
 30
0.0
 10
402.4921939211826
 20
-276.1134682404971
 30
0.0
 10
402.4921939211826
 20
-278.1134681274109
 30
0.0
 10
402.4921939211826
 20
-278.1134681274109
 30
0.0
 10
402.4921939211826
 20
-278.1134681274109
 30
0.0
 10
412.4921933557498
 20
-278.1134681274109
 30
0.0
 10
412.4921933557498
 20
-278.1134681274109
 30
0.0
 10
412.4921933557498
 20
-278.1134681274109
 30
0.0
 10
412.4921933557498
 20
-276.1134682404971
 30
0.0
 10
412.4921933557498
 20
-276.1134682404971
 30
0.0
 10
412.4921933557498
 20
-276.1134682404971
 30
0.0
 10
422.4921927903177
 20
-276.1134682404971
 30
0.0
 10
422.4921927903177
 20
-276.1134682404971
 30
0.0
 10
422.4921927903177
 20
-276.1134682404971
 30
0.0
 10
422.4921927903177
 20
-278.1134681274109
 30
0.0
 10
422.4921927903177
 20
-278.1134681274109
 30
0.0
 10
422.4921927903177
 20
-278.1134681274109
 30
0.0
 10
431.4921922814288
 20
-278.1134681274109
 30
0.0
 10
431.4921922814288
 20
-278.1134681274109
 30
0.0
 10
431.4921922814288
 20
-278.1134681274109
 30
0.0
 10
431.4921922814288
 20
-261.1134690886463
 30
0.0
 10
431.4921922814288
 20
-261.1134690886463
 30
0.0
 10
431.4921922814288
 20
-261.1134690886463
 30
0.0
 10
433.4921921683424
 20
-261.1134690886463
 30
0.0
 10
433.4921921683424
 20
-261.1134690886463
 30
0.0
 10
433.4921921683424
 20
-261.1134690886463
 30
0.0
 10
433.4921921683424
 20
-251.1134696540791
 30
0.0
 10
433.4921921683424
 20
-251.1134696540791
 30
0.0
 10
433.4921921683424
 20
-251.1134696540791
 30
0.0
 10
431.4921922814288
 20
-251.1134696540791
 30
0.0
 10
431.4921922814288
 20
-251.1134696540791
 30
0.0
 10
431.4921922814288
 20
-251.1134696540791
 30
0.0
 10
431.4921922814288
 20
-241.1134702195118
 30
0.0
 10
431.4921922814288
 20
-241.1134702195118
 30
0.0
 10
431.4921922814288
 20
-241.1134702195118
 30
0.0
 10
433.4921921683424
 20
-241.1134702195118
 30
0.0
 10
433.4921921683424
 20
-241.1134702195118
 30
0.0
 10
433.4921921683424
 20
-241.1134702195118
 30
0.0
 10
433.4921921683424
 20
-231.1134707849446
 30
0.0
 10
433.4921921683424
 20
-231.1134707849446
 30
0.0
 10
433.4921921683424
 20
-231.1134707849446
 30
0.0
 10
431.4921922814288
 20
-231.1134707849446
 30
0.0
 10
431.4921922814288
 20
-231.1134707849446
 30
0.0
 10
431.4921922814288
 20
-231.1134707849446
 30
0.0
 10
431.4921922814288
 20
-221.1134713503773
 30
0.0
 10
431.4921922814288
 20
-221.1134713503773
 30
0.0
 10
431.4921922814288
 20
-221.1134713503773
 30
0.0
 10
433.4921921683424
 20
-221.1134713503773
 30
0.0
 10
433.4921921683424
 20
-221.1134713503773
 30
0.0
 10
433.4921921683424
 20
-221.1134713503773
 30
0.0
 10
433.4921921683424
 20
-211.1134719158101
 30
0.0
 10
433.4921921683424
 20
-211.1134719158101
 30
0.0
 10
433.4921921683424
 20
-211.1134719158101
 30
0.0
 10
431.4921922814288
 20
-211.1134719158101
 30
0.0
 10
431.4921922814288
 20
-211.1134719158101
 30
0.0
 10
431.4921922814288
 20
-211.1134719158101
 30
0.0
 10
431.4921922814288
 20
-201.1134724812428
 30
0.0
 10
431.4921922814288
 20
-201.1134724812428
 30
0.0
 10
431.4921922814288
 20
-201.1134724812428
 30
0.0
 10
433.4921921683424
 20
-201.1134724812428
 30
0.0
 10
433.4921921683424
 20
-201.1134724812428
 30
0.0
 10
433.4921921683424
 20
-201.1134724812428
 30
0.0
 10
433.4921921683424
 20
-191.1134730466756
 30
0.0
 10
433.4921921683424
 20
-191.1134730466756
 30
0.0
 10
433.4921921683424
 20
-191.1134730466756
 30
0.0
 10
431.4921922814288
 20
-191.1134730466756
 30
0.0
 10
431.4921922814288
 20
-191.1134730466756
 30
0.0
 10
431.4921922814288
 20
-191.1134730466756
 30
0.0
 10
431.4921922814288
 20
-181.1134736121083
 30
0.0
 10
431.4921922814288
 20
-181.1134736121083
 30
0.0
 10
431.4921922814288
 20
-181.1134736121083
 30
0.0
 10
433.4921921683424
 20
-181.1134736121083
 30
0.0
 10
433.4921921683424
 20
-181.1134736121083
 30
0.0
 10
433.4921921683424
 20
-181.1134736121083
 30
0.0
 10
433.4921921683424
 20
-171.1134741775411
 30
0.0
 10
433.4921921683424
 20
-171.1134741775411
 30
0.0
 10
433.4921921683424
 20
-171.1134741775411
 30
0.0
 10
431.4921922814288
 20
-171.1134741775411
 30
0.0
 10
431.4921922814288
 20
-171.1134741775411
 30
0.0
 10
431.4921922814288
 20
-171.1134741775411
 30
0.0
 10
431.4921922814288
 20
-161.1134747429738
 30
0.0
 10
431.4921922814288
 20
-161.1134747429738
 30
0.0
 10
431.4921922814288
 20
-161.1134747429738
 30
0.0
 10
431.4921922814288
 20
-154.1134751387768
 30
0.0
 10
431.4921922814288
 20
-154.1134751387768
 30
0.0
 10
431.4921922814288
 20
-154.1134751387768
 30
0.0
 10
422.4921927903177
 20
-154.1134751387768
 30
0.0
 10
422.4921927903177
 20
-154.1134751387768
 30
0.0
 10
422.4921927903177
 20
-154.1134751387768
 30
0.0
 10
422.4921927903177
 20
-156.1134750256902
 30
0.0
 10
422.4921927903177
 20
-156.1134750256902
 30
0.0
 10
422.4921927903177
 20
-156.1134750256902
 30
0.0
 10
412.4921933557498
 20
-156.1134750256902
 30
0.0
 10
412.4921933557498
 20
-156.1134750256902
 30
0.0
 10
412.4921933557498
 20
-156.1134750256902
 30
0.0
 10
412.4921933557498
 20
-154.1134751387768
 30
0.0
 10
412.4921933557498
 20
-154.1134751387768
 30
0.0
 10
412.4921933557498
 20
-154.1134751387768
 30
0.0
 10
402.4921939211826
 20
-154.1134751387768
 30
0.0
 10
402.4921939211826
 20
-154.1134751387768
 30
0.0
 10
402.4921939211826
 20
-154.1134751387768
 30
0.0
 10
402.4921939211826
 20
-156.1134750256902
 30
0.0
 10
402.4921939211826
 20
-156.1134750256902
 30
0.0
 10
402.4921939211826
 20
-156.1134750256902
 30
0.0
 10
392.4921944866148
 20
-156.1134750256902
 30
0.0
 10
392.4921944866148
 20
-156.1134750256902
 30
0.0
 10
392.4921944866148
 20
-156.1134750256902
 30
0.0
 10
392.4921944866148
 20
-154.1134751387768
 30
0.0
 10
392.4921944866148
 20
-154.1134751387768
 30
0.0
 10
392.4921944866148
 20
-154.1134751387768
 30
0.0
 10
382.4921950520468
 20
-154.1134751387768
 30
0.0
 10
382.4921950520468
 20
-154.1134751387768
 30
0.0
 10
382.4921950520468
 20
-154.1134751387768
 30
0.0
 10
382.4921950520468
 20
-156.1134750256902
 30
0.0
 10
382.4921950520468
 20
-156.1134750256902
 30
0.0
 10
382.4921950520468
 20
-156.1134750256902
 30
0.0
 10
372.4921956174828
 20
-156.1134750256902
 30
0.0
 10
372.4921956174828
 20
-156.1134750256902
 30
0.0
 10
372.4921956174828
 20
-156.1134750256902
 30
0.0
 10
372.4921956174828
 20
-154.1134751387768
 30
0.0
 10
372.4921956174828
 20
-154.1134751387768
 30
0.0
 10
372.4921956174828
 20
-154.1134751387768
 30
0.0
 10
362.4921961829149
 20
-154.1134751387768
 30
0.0
 10
362.4921961829149
 20
-154.1134751387768
 30
0.0
 10
362.4921961829149
 20
-154.1134751387768
 30
0.0
 10
362.4921961829149
 20
-156.1134750256902
 30
0.0
 10
362.4921961829149
 20
-156.1134750256902
 30
0.0
 10
362.4921961829149
 20
-156.1134750256902
 30
0.0
 10
352.4921967483477
 20
-156.1134750256902
 30
0.0
 10
352.4921967483477
 20
-156.1134750256902
 30
0.0
 10
352.4921967483477
 20
-156.1134750256902
 30
0.0
 10
352.4921967483477
 20
-154.1134751387768
 30
0.0
 10
352.4921967483477
 20
-154.1134751387768
 30
0.0
 10
352.4921967483477
 20
-154.1134751387768
 30
0.0
 10
342.4921973137805
 20
-154.1134751387768
 30
0.0
 10
342.4921973137805
 20
-154.1134751387768
 30
0.0
 10
342.4921973137805
 20
-154.1134751387768
 30
0.0
 10
342.4921973137805
 20
-156.1134750256902
 30
0.0
 10
342.4921973137805
 20
-156.1134750256902
 30
0.0
 10
342.4921973137805
 20
-156.1134750256902
 30
0.0
 10
332.4921978792119
 20
-156.1134750256902
 30
0.0
 10
332.4921978792119
 20
-156.1134750256902
 30
0.0
 10
332.4921978792119
 20
-156.1134750256902
 30
0.0
 10
332.4921978792119
 20
-154.1134751387768
 30
0.0
 10
332.4921978792119
 20
-154.1134751387768
 30
0.0
 10
332.4921978792119
 20
-154.1134751387768
 30
0.0
 10
323.4921983881014
 20
-154.1134751387768
 30
0.0
 10
323.4921983881014
 20
-154.1134751387768
 30
0.0
  0
LWPOLYLINE
  5
8F
330
70
100
AcDbEntity
  8
Layer 1
 62
   240
420
 15540772
370
    25
100
AcDbPolyline
 90
        4
 70
     1
 43
0.0
 10
112.0000310498905
 20
-303.9792803051135
 10
112.0000298341218
 20
-333.9792802976144
 10
110.0000298346222
 20
-333.9792802165626
 10
110.0000310503907
 20
-303.9792802240624
  0
LWPOLYLINE
  5
90
330
70
100
AcDbEntity
  8
Layer 1
 62
   240
420
 15540772
370
    25
100
AcDbPolyline
 90
        4
 70
     1
 43
0.0
 10
64.00000167625266
 20
-303.9792959912784
 10
64.0000004604842
 20
-333.9792959837786
 10
62.00000046098434
 20
-333.9792959027275
 10
62.00000167675312
 20
-303.9792959102273
  0
SPLINE
  5
91
330
70
100
AcDbEntity
  8
Layer 1
 62
   240
420
 15540772
370
    25
100
AcDbSpline
210
0.0
220
0.0
230
1.0
 70
     9
 71
     3
 72
    29
 73
    25
 74
     0
 42
0.0000000001
 43
0.0000000001
 40
0.0
 40
0.0
 40
0.0
 40
0.0
 40
1.0
 40
1.0
 40
1.0
 40
2.0
 40
2.0
 40
2.0
 40
3.0
 40
3.0
 40
3.0
 40
4.0
 40
4.0
 40
4.0
 40
5.0
 40
5.0
 40
5.0
 40
6.0
 40
6.0
 40
6.0
 40
7.0
 40
7.0
 40
7.0
 40
8.0
 40
8.0
 40
8.0
 40
8.0
 10
32.50004228848826
 20
-389.9793000142133
 30
0.0
 10
32.50004228848826
 20
-389.9793000142133
 30
0.0
 10
32.50001728848854
 20
-389.9793000142204
 30
0.0
 10
32.50001728848854
 20
-389.9793000142204
 30
0.0
 10
25.59646482088935
 20
-389.9793022702655
 30
0.0
 10
20.00002796272842
 20
-384.3828690698757
 30
0.0
 10
20.00002570668272
 20
-377.4793166022758
 30
0.0
 10
20.00002570668272
 20
-377.4793166022758
 30
0.0
 10
20.00002570667438
 20
-377.4792916022761
 30
0.0
 10
20.00002570667438
 20
-377.4792916022761
 30
0.0
 10
20.00002345062869
 20
-370.5757391346801
 30
0.0
 10
25.59645665101717
 20
-364.9793022765166
 30
0.0
 10
32.50000911861637
 20
-364.9793000204716
 30
0.0
 10
32.50000911861637
 20
-364.9793000204716
 30
0.0
 10
32.50003411861609
 20
-364.9793000204645
 30
0.0
 10
32.50003411861609
 20
-364.9793000204645
 30
0.0
 10
39.40358658621592
 20
-364.9792977644188
 30
0.0
 10
45.00002344437748
 20
-370.5757309648054
 30
0.0
 10
45.00002570042318
 20
-377.4792834324052
 30
0.0
 10
45.00002570042318
 20
-377.4792834324052
 30
0.0
 10
45.00002570043153
 20
-377.4793084324043
 30
0.0
 10
45.00002570043153
 20
-377.4793084324043
 30
0.0
 10
45.00002795647723
 20
-384.3828609000048
 30
0.0
 10
39.4035947560881
 20
-389.9792977581677
 30
0.0
 10
32.50004228848826
 20
-389.9793000142133
 30
0.0
  0
LWPOLYLINE
  5
92
330
70
100
AcDbEntity
  8
Layer 1
 62
   240
420
 15540772
370
    25
100
AcDbPolyline
 90
        4
 70
     1
 43
0.0
 10
57.00000167800361
 20
-303.9792982788424
 10
57.00000046223547
 20
-333.9792982713433
 10
55.00000046273401
 20
-333.9792981902915
 10
55.00000167850406
 20
-303.9792981977913
  0
LWPOLYLINE
  5
93
330
70
100
AcDbEntity
  8
Layer 1
 62
   240
420
 15540772
370
    25
100
AcDbPolyline
 90
        4
 70
     1
 43
0.0
 10
50.00000167975327
 20
-303.9792730258791
 10
50.00000046398483
 20
-333.9792730183794
 10
48.00000046448495
 20
-333.9792729373283
 10
48.00000168025373
 20
-303.9792729448274
  0
LWPOLYLINE
  5
94
330
70
100
AcDbEntity
  8
Layer 1
 62
   240
420
 15540772
370
    25
100
AcDbPolyline
 90
       48
 70
     1
 43
0.0
 10
175.0005164290614
 20
-378.9819488137082
 10
175.0005164290614
 20
-368.9807074289466
 10
173.0002724584773
 20
-368.9807074289466
 10
173.0002724584773
 20
-358.9794660441843
 10
175.0005164290614
 20
-358.9794660441843
 10
175.0005164290614
 20
-348.9817343504509
 10
173.0002724584773
 20
-348.9817343504509
 10
173.0002724584773
 20
-338.9804929656899
 10
175.0005164290614
 20
-338.9804929656899
 10
175.0005164290614
 20
-328.9792300490822
 10
173.0002724584773
 20
-328.9792300490822
 10
173.0002724584773
 20
-318.9815198871936
 10
175.0005164290614
 20
-318.9815198871936
 10
175.0005164290614
 20
-308.980235438739
 10
173.0002724584773
 20
-308.980235438739
 10
173.0002724584773
 20
-298.9825683405446
 10
175.0005164290614
 20
-298.9825683405446
 10
175.0005164290614
 20
-289.9796725637155
 10
184.9982481227974
 20
-289.9796725637155
 10
184.9982481227974
 20
-287.9794070612859
 10
194.9994895075552
 20
-287.9794070612859
 10
194.9994895075552
 20
-289.9796725637155
 10
205.0007524241655
 20
-289.9796725637155
 10
205.0007524241655
 20
-287.9794070612859
 10
214.9984625860529
 20
-287.9794070612859
 10
214.9984625860529
 20
-289.9796725637155
 10
226.9999694732444
 20
-289.9796725637155
 10
226.9999694732444
 20
-303.9814018896415
 10
224.9997255026613
 20
-303.9814018896415
 10
224.9997255026613
 20
-333.9816163528988
 10
226.9999694732444
 20
-333.9816163528988
 10
226.9999694732444
 20
-353.9805894313945
 10
224.9997255026613
 20
-353.9805894313945
 10
224.9997255026613
 20
-383.9808254264987
 10
226.9999694732444
 20
-383.9808254264987
 10
226.9999694732444
 20
-397.9825762842734
 10
214.9984625860529
 20
-397.9825762842734
 10
214.9984625860529
 20
-399.9792890319832
 10
205.0007524241655
 20
-399.9792890319832
 10
205.0007524241655
 20
-397.9825762842734
 10
194.9994895075552
 20
-397.9825762842734
 10
194.9994895075552
 20
-399.9792890319832
 10
184.9982481227974
 20
-399.9792890319832
 10
184.9982481227974
 20
-397.9825762842734
 10
175.0005164290614
 20
-397.9825762842734
 10
175.0005164290614
 20
-388.9796805074443
 10
173.0002724584773
 20
-388.9796805074443
 10
173.0002724584773
 20
-378.9819488137082
  0
LWPOLYLINE
  5
95
330
70
100
AcDbEntity
  8
Layer 1
 62
   240
420
 15540772
370
    25
100
AcDbPolyline
 90
        4
 70
     1
 43
0.0
 10
220.0002721127001
 20
-353.9793607111433
 10
220.0002708969313
 20
-383.9793607036428
 10
218.0002708974317
 20
-383.9793606225924
 10
218.0002721131999
 20
-353.9793606300922
  0
LWPOLYLINE
  5
96
330
70
100
AcDbEntity
  8
Layer 1
 62
   240
420
 15540772
370
    25
100
AcDbPolyline
 90
        4
 70
     1
 43
0.0
 10
220.000274138981
 20
-303.9793607236412
 10
220.0002729232125
 20
-333.979360716142
 10
218.000272923712
 20
-333.9793606350903
 10
218.0002741394814
 20
-303.9793606425901
  0
LWPOLYLINE
  5
97
330
70
100
AcDbEntity
  8
Layer 1
 62
   240
420
 15540772
370
    25
100
AcDbPolyline
 90
        4
 70
     1
 43
0.0
 10
213.0002721144507
 20
-353.9793354581775
 10
213.0002708986816
 20
-383.979335450677
 10
211.0002708991817
 20
-383.9793353696266
 10
211.0002721149502
 20
-353.979335377127
  0
LWPOLYLINE
  5
98
330
70
100
AcDbEntity
  8
Layer 1
 62
   240
420
 15540772
370
    25
100
AcDbPolyline
 90
        4
 70
     1
 43
0.0
 10
213.0002741407306
 20
-303.9793354706779
 10
213.0002729249622
 20
-333.9793354631781
 10
211.0002729254623
 20
-333.979335382127
 10
211.0002741412314
 20
-303.9793353896262
  0
LWPOLYLINE
  5
99
330
70
100
AcDbEntity
  8
Layer 1
 62
   240
420
 15540772
370
    25
100
AcDbPolyline
 90
        4
 70
     1
 43
0.0
 10
119.0000310481402
 20
-303.9792780175495
 10
119.0000298323718
 20
-333.9792780100497
 10
117.0000298328719
 20
-333.9792779289986
 10
117.0000310486407
 20
-303.9792779364983
  0
LWPOLYLINE
  5
9A
330
70
100
AcDbEntity
  8
Layer 1
 62
   240
420
 15540772
370
    25
100
AcDbPolyline
 90
        4
 70
     1
 43
0.0
 10
112.0000290236109
 20
-353.9792802926162
 10
112.0000278078415
 20
-383.979280285112
 10
110.000027808341
 20
-383.9792802040615
 10
110.0000290241101
 20
-353.9792802115619
  0
LWPOLYLINE
  5
9B
330
70
100
AcDbEntity
  8
Layer 1
 62
   240
420
 15540772
370
    25
100
AcDbPolyline
 90
        4
 70
     1
 43
0.0
 10
63.99999964997244
 20
-353.9792959787773
 10
63.99999843420366
 20
-383.9792959712775
 10
61.99999843470347
 20
-383.9792958902264
 10
61.99999965047225
 20
-353.9792958977268
  0
LWPOLYLINE
  5
9C
330
70
100
AcDbEntity
  8
Layer 1
 62
   240
420
 15540772
370
    25
100
AcDbPolyline
 90
        4
 70
     1
 43
0.0
 10
56.99999965172274
 20
-353.9792982663438
 10
56.99999843595397
 20
-383.9792982588441
 10
54.99999843645443
 20
-383.9792981777931
 10
54.99999965222255
 20
-353.9792981852934
  0
LWPOLYLINE
  5
9D
330
70
100
AcDbEntity
  8
Layer 1
 62
   240
420
 15540772
370
    25
100
AcDbPolyline
 90
        4
 70
     1
 43
0.0
 10
49.99999965347305
 20
-353.9792730133781
 10
49.99999843770428
 20
-383.9792730058783
 10
47.99999843820473
 20
-383.9792729248273
 10
47.99999965397286
 20
-353.9792729323276
  0
LWPOLYLINE
  5
9E
330
70
100
AcDbEntity
  8
Layer 1
 62
   240
420
 15540772
370
    25
100
AcDbPolyline
 90
        4
 70
     1
 43
0.0
 10
119.00002902186
 20
-353.9792780050496
 10
119.0000278060912
 20
-383.9792779975499
 10
117.000027806591
 20
-383.9792779164988
 10
117.0000290223598
 20
-353.9792779239986
  0
LWPOLYLINE
  5
9F
330
70
100
AcDbEntity
  8
Layer 1
 62
   240
420
 15540772
370
    25
100
AcDbPolyline
 90
        4
 70
     1
 43
0.0
 10
126.0000290201094
 20
-353.9792757174869
 10
126.0000278043409
 20
-383.9792757099865
 10
124.0000278048414
 20
-383.9792756289322
 10
124.0000290206095
 20
-353.9792756364358
  0
LWPOLYLINE
  5
A0
330
70
100
AcDbEntity
  8
Layer 1
 62
   240
420
 15540772
370
    25
100
AcDbPolyline
 90
        4
 70
     1
 43
0.0
 10
126.0000310463906
 20
-303.9792757299854
 10
126.0000298306224
 20
-333.9792757224857
 10
124.0000298311216
 20
-333.979275641434
 10
124.000031046891
 20
-303.9792756489337
  0
LWPOLYLINE
  5
A1
330
70
100
AcDbEntity
  8
Layer 1
 62
   240
420
 15540772
370
    25
100
AcDbPolyline
 90
       48
 70
     1
 43
0.0
 10
286.999725487161
 20
-378.9819488137082
 10
286.999725487161
 20
-368.9807074289466
 10
288.9999694577435
 20
-368.9807074289466
 10
288.9999694577435
 20
-358.9794660441843
 10
286.999725487161
 20
-358.9794660441843
 10
286.999725487161
 20
-348.9817343504509
 10
288.9999694577435
 20
-348.9817343504509
 10
288.9999694577435
 20
-338.9804929656899
 10
286.999725487161
 20
-338.9804929656899
 10
286.999725487161
 20
-328.9792300490822
 10
288.9999694577435
 20
-328.9792300490822
 10
288.9999694577435
 20
-318.9815198871936
 10
286.999725487161
 20
-318.9815198871936
 10
286.999725487161
 20
-308.980235438739
 10
288.9999694577435
 20
-308.980235438739
 10
288.9999694577435
 20
-298.9825683405446
 10
286.999725487161
 20
-298.9825683405446
 10
286.999725487161
 20
-289.9796725637155
 10
277.0019937934252
 20
-289.9796725637155
 10
277.0019937934252
 20
-287.9794070612859
 10
267.0007524086642
 20
-287.9794070612859
 10
267.0007524086642
 20
-289.9796725637155
 10
256.9994894920569
 20
-289.9796725637155
 10
256.9994894920569
 20
-287.9794070612859
 10
247.0017793301679
 20
-287.9794070612859
 10
247.0017793301679
 20
-289.9796725637155
 10
235.0002724429773
 20
-289.9796725637155
 10
235.0002724429773
 20
-303.9814018896415
 10
237.0005164135602
 20
-303.9814018896415
 10
237.0005164135602
 20
-333.9816163528988
 10
235.0002724429773
 20
-333.9816163528988
 10
235.0002724429773
 20
-353.9805894313945
 10
237.0005164135602
 20
-353.9805894313945
 10
237.0005164135602
 20
-383.9808254264987
 10
235.0002724429773
 20
-383.9808254264987
 10
235.0002724429773
 20
-397.9825762842734
 10
247.0017793301679
 20
-397.9825762842734
 10
247.0017793301679
 20
-399.9792890319832
 10
256.9994894920569
 20
-399.9792890319832
 10
256.9994894920569
 20
-397.9825762842734
 10
267.0007524086642
 20
-397.9825762842734
 10
267.0007524086642
 20
-399.9792890319832
 10
277.0019937934252
 20
-399.9792890319832
 10
277.0019937934252
 20
-397.9825762842734
 10
286.999725487161
 20
-397.9825762842734
 10
286.999725487161
 20
-388.9796805074443
 10
288.9999694577435
 20
-388.9796805074443
 10
288.9999694577435
 20
-378.9819488137082
  0
LWPOLYLINE
  5
A2
330
70
100
AcDbEntity
  8
Layer 1
 62
   240
420
 15540772
370
    25
100
AcDbPolyline
 90
        4
 70
     1
 43
0.0
 10
243.9999985206036
 20
-353.9793492284414
 10
243.9999973048348
 20
-383.9793492209416
 10
241.9999973053346
 20
-383.9793491398912
 10
241.9999985211034
 20
-353.9793491473909
  0
LWPOLYLINE
  5
A3
330
70
100
AcDbEntity
  8
Layer 1
 62
   240
420
 15540772
370
    25
100
AcDbPolyline
 90
        4
 70
     1
 43
0.0
 10
244.0000005468838
 20
-303.9793492409419
 10
243.9999993311154
 20
-333.9793492334428
 10
241.9999993316155
 20
-333.979349152391
 10
242.0000005473843
 20
-303.9793491598914
  0
LWPOLYLINE
  5
A4
330
70
100
AcDbEntity
  8
Layer 1
 62
   240
420
 15540772
370
    25
100
AcDbPolyline
 90
        4
 70
     1
 43
0.0
 10
250.9999985188529
 20
-353.9793469408786
 10
250.9999973030845
 20
-383.9793469333789
 10
248.9999973035849
 20
-383.9793468523246
 10
248.9999985193531
 20
-353.9793468598282
  0
LWPOLYLINE
  5
A5
330
70
100
AcDbEntity
  8
Layer 1
 62
   240
420
 15540772
370
    25
100
AcDbPolyline
 90
        4
 70
     1
 43
0.0
 10
251.0000005451341
 20
-303.9793469533785
 10
250.999999329366
 20
-333.9793469458781
 10
248.9999993298651
 20
-333.9793468648263
 10
249.0000005456346
 20
-303.9793468723268
  0
SPLINE
  5
A6
330
70
100
AcDbEntity
  8
Layer 1
 62
   240
420
 15540772
370
    25
100
AcDbSpline
210
0.0
220
0.0
230
1.0
 70
     9
 71
     3
 72
    29
 73
    25
 74
     0
 42
0.0000000001
 43
0.0000000001
 40
0.0
 40
0.0
 40
0.0
 40
0.0
 40
1.0
 40
1.0
 40
1.0
 40
2.0
 40
2.0
 40
2.0
 40
3.0
 40
3.0
 40
3.0
 40
4.0
 40
4.0
 40
4.0
 40
5.0
 40
5.0
 40
5.0
 40
6.0
 40
6.0
 40
6.0
 40
7.0
 40
7.0
 40
7.0
 40
8.0
 40
8.0
 40
8.0
 40
8.0
 10
141.5000203659751
 20
-322.9792644103214
 30
0.0
 10
141.5000203659751
 20
-322.9792644103214
 30
0.0
 10
141.4999953659747
 20
-322.9792644103297
 30
0.0
 10
141.4999953659747
 20
-322.9792644103297
 30
0.0
 10
134.5964428983758
 20
-322.9792666663754
 30
0.0
 10
129.000006040214
 20
-317.3828334659869
 30
0.0
 10
129.0000037841683
 20
-310.4792809983871
 30
0.0
 10
129.0000037841683
 20
-310.4792809983871
 30
0.0
 10
129.0000037841606
 20
-310.4792559983867
 30
0.0
 10
129.0000037841606
 20
-310.4792559983867
 30
0.0
 10
129.0000015281142
 20
-303.5757035307881
 30
0.0
 10
134.5964347285034
 20
-297.9792666726266
 30
0.0
 10
141.4999871961019
 20
-297.9792644165808
 30
0.0
 10
141.4999871961019
 20
-297.9792644165808
 30
0.0
 10
141.5000121961026
 20
-297.9792644165726
 30
0.0
 10
141.5000121961026
 20
-297.9792644165726
 30
0.0
 10
148.4035646637015
 20
-297.9792621605268
 30
0.0
 10
154.0000015218633
 20
-303.575695360916
 30
0.0
 10
154.0000037779087
 20
-310.4792478285145
 30
0.0
 10
154.0000037779087
 20
-310.4792478285145
 30
0.0
 10
154.0000037779171
 20
-310.4792728285149
 30
0.0
 10
154.0000037779171
 20
-310.4792728285149
 30
0.0
 10
154.0000060339625
 20
-317.3828252961141
 30
0.0
 10
148.4035728335736
 20
-322.9792621542757
 30
0.0
 10
141.5000203659751
 20
-322.9792644103214
 30
0.0
  0
LWPOLYLINE
  5
A7
330
70
100
AcDbEntity
  8
Layer 1
 62
   240
420
 15540772
370
    25
100
AcDbPolyline
 90
      108
 70
     1
 43
0.0
 10
161.9894811103189
 20
-163.9114987361586
 10
161.9894811103189
 20
-173.8949990990058
 10
163.9999999590003
 20
-173.8949990990058
 10
163.9999999590003
 20
-183.9137736147489
 10
161.9894811103189
 20
-183.9137736147489
 10
161.9894811103189
 20
-193.8972739775957
 10
163.9999999590003
 20
-193.8972739775957
 10
163.9999999590003
 20
-203.9160511847895
 10
161.9894811103189
 20
-203.9160511847895
 10
161.9894811103189
 20
-213.8995502019116
 10
163.9999999590003
 20
-213.8995502019116
 10
163.9999999590003
 20
-223.9183267362419
 10
161.9894811103189
 20
-223.9183267362419
 10
161.9894811103189
 20
-233.901825879525
 10
163.9999999590003
 20
-233.901825879525
 10
163.9999999590003
 20
-243.9206022876943
 10
161.9894811103189
 20
-243.9206022876943
 10
161.9894811103189
 20
-253.9041013048165
 10
163.9999999590003
 20
-253.9041013048165
 10
163.9999999590003
 20
-270.9078013507128
 10
152.0073286546463
 20
-270.9078013507128
 10
152.0073286546463
 20
-268.8969889255345
 10
141.9899122477797
 20
-268.8969889255345
 10
141.9899122477797
 20
-270.9078013507128
 10
132.0078028494345
 20
-270.9078013507128
 10
132.0078028494345
 20
-268.8969889255345
 10
121.9903864425678
 20
-268.8969889255345
 10
121.9903864425678
 20
-270.9078013507128
 10
109.9977151382139
 20
-270.9078013507128
 10
109.9977151382139
 20
-253.9041013048165
 10
112.0082339868953
 20
-253.9041013048165
 10
112.0082339868953
 20
-243.9206022876943
 10
109.9977151382139
 20
-243.9206022876943
 10
109.9977151382139
 20
-233.901825879525
 10
112.0082339868953
 20
-233.901825879525
 10
112.0082339868953
 20
-223.9183267362419
 10
109.9977151382139
 20
-223.9183267362419
 10
109.9977151382139
 20
-208.8901615983141
 10
64.00228481828628
 20
-208.8901615983141
 10
64.00228481828628
 20
-223.9183267362419
 10
61.99176596960491
 20
-223.9183267362419
 10
61.99176596960491
 20
-233.901825879525
 10
64.00228481828628
 20
-233.901825879525
 10
64.00228481828628
 20
-243.9206022876943
 10
61.99176596960491
 20
-243.9206022876943
 10
61.99176596960491
 20
-253.9041013048165
 10
64.00228481828628
 20
-253.9041013048165
 10
64.00228481828628
 20
-270.9078013507128
 10
52.00961351393239
 20
-270.9078013507128
 10
52.00961351393239
 20
-268.8969889255345
 10
41.99219710706543
 20
-268.8969889255345
 10
41.99219710706543
 20
-270.9078013507128
 10
32.0100877087205
 20
-270.9078013507128
 10
32.0100877087205
 20
-268.8969889255345
 10
22.02793525304797
 20
-268.8969889255345
 10
22.02793525304797
 20
-270.9078013507128
 10
9.999999997499973
 20
-270.9078013507128
 10
9.999999997499973
 20
-253.9041013048165
 10
12.01051884618134
 20
-253.9041013048165
 10
12.01051884618134
 20
-243.9206022876943
 10
9.999999997499973
 20
-243.9206022876943
 10
9.999999997499973
 20
-233.901825879525
 10
12.01051884618134
 20
-233.901825879525
 10
12.01051884618134
 20
-223.9183267362419
 10
9.999999997499973
 20
-223.9183267362419
 10
9.999999997499973
 20
-213.8995502019116
 10
12.01051884618134
 20
-213.8995502019116
 10
12.01051884618134
 20
-203.9160511847895
 10
9.999999997499973
 20
-203.9160511847895
 10
9.999999997499973
 20
-193.8972739775957
 10
12.01051884618134
 20
-193.8972739775957
 10
12.01051884618134
 20
-183.9137736147489
 10
9.999999997499973
 20
-183.9137736147489
 10
9.999999997499973
 20
-173.8949990990058
 10
12.01051884618134
 20
-173.8949990990058
 10
12.01051884618134
 20
-163.9114987361586
 10
9.999999997499973
 20
-163.9114987361586
 10
9.999999997499973
 20
-146.9078013817127
 10
22.02793525304797
 20
-146.9078013817127
 10
22.02793525304797
 20
-148.9186111154409
 10
32.0100877087205
 20
-148.9186111154409
 10
32.0100877087205
 20
-146.9078013817127
 10
41.99219710706543
 20
-146.9078013817127
 10
41.99219710706543
 20
-148.9186111154409
 10
52.00961351393239
 20
-148.9186111154409
 10
52.00961351393239
 20
-146.9078013817127
 10
61.99176596960491
 20
-146.9078013817127
 10
61.99176596960491
 20
-148.9186111154409
 10
72.00918237647154
 20
-148.9186111154409
 10
72.00918237647154
 20
-146.9078013817127
 10
81.9912917748168
 20
-146.9078013817127
 10
81.9912917748168
 20
-148.9186111154409
 10
92.00870818168375
 20
-148.9186111154409
 10
92.00870818168375
 20
-146.9078013817127
 10
101.9908606373562
 20
-146.9078013817127
 10
101.9908606373562
 20
-148.9186111154409
 10
112.0082339868953
 20
-148.9186111154409
 10
112.0082339868953
 20
-146.9078013817127
 10
121.9903864425678
 20
-146.9078013817127
 10
121.9903864425678
 20
-148.9186111154409
 10
132.0078028494345
 20
-148.9186111154409
 10
132.0078028494345
 20
-146.9078013817127
 10
141.9899122477797
 20
-146.9078013817127
 10
141.9899122477797
 20
-148.9186111154409
 10
152.0073286546463
 20
-148.9186111154409
 10
152.0073286546463
 20
-146.9078013817127
 10
163.9999999590003
 20
-146.9078013817127
 10
163.9999999590003
 20
-163.9114987361586
  0
LWPOLYLINE
  5
A8
330
70
100
AcDbEntity
  8
Layer 1
 62
   240
420
 15540772
370
    25
100
AcDbPolyline
 90
        4
 70
     1
 43
0.0
 10
122.0131944139416
 20
-208.9078013662127
 10
131.9968227480342
 20
-208.9078013662127
 10
131.9968227480342
 20
-210.9186349681918
 10
122.0131944139416
 20
-210.9186349681918
  0
LWPOLYLINE
  5
A9
330
70
100
AcDbEntity
  8
Layer 1
 62
   240
420
 15540772
370
    25
100
AcDbPolyline
 90
        4
 70
     1
 43
0.0
 10
22.00069443894406
 20
-208.9078013662127
 10
31.9843227730367
 20
-208.9078013662127
 10
31.9843227730367
 20
-210.9186349681918
 10
22.00069443894406
 20
-210.9186349681918
  0
LWPOLYLINE
  5
AA
330
70
100
AcDbEntity
  8
Layer 1
 62
   240
420
 15540772
370
    25
100
AcDbPolyline
 90
        4
 70
     1
 43
0.0
 10
42.00317720846601
 20
-208.9078013662127
 10
51.98680554255865
 20
-208.9078013662127
 10
51.98680554255865
 20
-210.9186349681918
 10
42.00317720846601
 20
-210.9186349681918
  0
LWPOLYLINE
  5
AB
330
70
100
AcDbEntity
  8
Layer 1
 62
   240
420
 15540772
370
    25
100
AcDbPolyline
 90
        4
 70
     1
 43
0.0
 10
142.0156771834635
 20
-208.9078013662127
 10
151.9993055175561
 20
-208.9078013662127
 10
151.9993055175561
 20
-210.9186349681918
 10
142.0156771834635
 20
-210.9186349681918
  0
LWPOLYLINE
  5
AC
330
70
100
AcDbEntity
  8
Layer 1
 62
   240
420
 15540772
370
    25
100
AcDbPolyline
 90
       84
 70
     1
 43
0.0
 10
161.9988165736345
 20
-308.9804079766829
 10
161.9988165736345
 20
-318.9781396704182
 10
163.9990605442173
 20
-318.9781396704182
 10
163.9990605442173
 20
-328.9793810551792
 10
161.9988165736345
 20
-328.9793810551792
 10
161.9988165736345
 20
-338.9806439717869
 10
163.9990605442173
 20
-338.9806439717869
 10
163.9990605442173
 20
-348.9783541336756
 10
161.9988165736345
 20
-348.9783541336756
 10
161.9988165736345
 20
-358.9795955184365
 10
163.9990605442173
 20
-358.9795955184365
 10
163.9990605442173
 20
-368.9808369031975
 10
161.9988165736345
 20
-368.9808369031975
 10
161.9988165736345
 20
-378.9785901287797
 10
163.9990605442173
 20
-378.9785901287797
 10
163.9990605442173
 20
-388.9798315135406
 10
161.9988165736345
 20
-388.9798315135406
 10
161.9988165736345
 20
-397.9791960674974
 10
152.0010848798991
 20
-397.9791960674974
 10
152.0010848798991
 20
-399.979461569927
 10
141.9998434951382
 20
-399.979461569927
 10
141.9998434951382
 20
-397.9791960674974
 10
131.9985805785304
 20
-397.9791960674974
 10
131.9985805785304
 20
-399.979461569927
 10
122.0008704166418
 20
-399.979461569927
 10
122.0008704166418
 20
-397.9791960674974
 10
109.9993635294512
 20
-397.9791960674974
 10
109.9993635294512
 20
-399.979461569927
 10
64.00066392886323
 20
-399.979461569927
 10
64.00066392886323
 20
-397.9791960674974
 10
51.99917857351941
 20
-397.9791960674974
 10
51.99917857351941
 20
-399.979461569927
 10
42.00144687978403
 20
-399.979461569927
 10
42.00144687978403
 20
-397.9791960674974
 10
32.00020549502306
 20
-397.9791960674974
 10
32.00020549502306
 20
-399.979461569927
 10
21.99894257841531
 20
-399.979461569927
 10
21.99894257841531
 20
-397.9791960674974
 10
12.00123241652671
 20
-397.9791960674974
 10
12.00123241652671
 20
-388.9798315135406
 10
10.00096691409709
 20
-388.9798315135406
 10
10.00096691409709
 20
-378.9785901287797
 10
12.00123241652671
 20
-378.9785901287797
 10
12.00123241652671
 20
-368.9808369031975
 10
10.00096691409709
 20
-368.9808369031975
 10
10.00096691409709
 20
-358.9795955184365
 10
12.00123241652671
 20
-358.9795955184365
 10
12.00123241652671
 20
-348.9783541336756
 10
10.00096691409709
 20
-348.9783541336756
 10
10.00096691409709
 20
-338.9806439717869
 10
12.00123241652671
 20
-338.9806439717869
 10
12.00123241652671
 20
-328.9793810551792
 10
10.00096691409709
 20
-328.9793810551792
 10
10.00096691409709
 20
-318.9781396704182
 10
12.00123241652671
 20
-318.9781396704182
 10
12.00123241652671
 20
-308.9804079766829
 10
10.00096691409709
 20
-308.9804079766829
 10
10.00096691409709
 20
-298.9791665919219
 10
12.00123241652671
 20
-298.9791665919219
 10
12.00123241652671
 20
-289.9798020379652
 10
21.99894257841531
 20
-289.9798020379652
 10
21.99894257841531
 20
-287.9795580673823
 10
32.00020549502306
 20
-287.9795580673823
 10
32.00020549502306
 20
-289.9798020379652
 10
42.00144687978403
 20
-289.9798020379652
 10
42.00144687978403
 20
-287.9795580673823
 10
51.99917857351941
 20
-287.9795580673823
 10
51.99917857351941
 20
-289.9798020379652
 10
64.00066392886323
 20
-289.9798020379652
 10
64.00066392886323
 20
-287.9795580673823
 10
109.9993635294512
 20
-287.9795580673823
 10
109.9993635294512
 20
-289.9798020379652
 10
122.0008704166418
 20
-289.9798020379652
 10
122.0008704166418
 20
-287.9795580673823
 10
131.9985805785304
 20
-287.9795580673823
 10
131.9985805785304
 20
-289.9798020379652
 10
141.9998434951382
 20
-289.9798020379652
 10
141.9998434951382
 20
-287.9795580673823
 10
152.0010848798991
 20
-287.9795580673823
 10
152.0010848798991
 20
-289.9798020379652
 10
161.9988165736345
 20
-289.9798020379652
 10
161.9988165736345
 20
-298.9791665919219
 10
163.9990605442173
 20
-298.9791665919219
 10
163.9990605442173
 20
-308.9804079766829
  0
ENDSEC
  0
SECTION
  2
OBJECTS
  0
DICTIONARY
  5
C
330
0
100
AcDbDictionary
281
     1
  3
ACAD_COLOR
350
63
  3
ACAD_DETAILVIEWSTYLE
350
6A
  3
ACAD_GROUP
350
D
  3
ACAD_LAYOUT
350
62
  3
ACAD_MATERIAL
350
10
  3
ACAD_MLEADERSTYLE
350
66
  3
ACAD_MLINESTYLE
350
5F
  3
ACAD_PLOTSETTINGS
350
61
  3
ACAD_PLOTSTYLENAME
350
E
  3
ACAD_SCALELIST
350
42
  3
ACAD_SECTIONVIEWSTYLE
350
68
  3
ACAD_TABLESTYLE
350
64
  3
ACAD_VISUALSTYLE
350
29
  3
ACDB_RECOMPOSE_DATA
350
B9
  3
AcDbVariableDictionary
350
B1
  0
DICTIONARY
  5
63
102
{ACAD_REACTORS
330
C
102
}
330
C
100
AcDbDictionary
281
     1
  0
DICTIONARY
  5
6A
102
{ACAD_REACTORS
330
C
102
}
330
C
100
AcDbDictionary
281
     1
  3
Imperial24
350
6B
  0
DICTIONARY
  5
D
102
{ACAD_REACTORS
330
C
102
}
330
C
100
AcDbDictionary
281
     1
  0
DICTIONARY
  5
62
102
{ACAD_REACTORS
330
C
102
}
330
C
100
AcDbDictionary
281
     1
  3
Layout1
350
6F
  3
Layout2
350
77
  3
Model
350
73
  0
DICTIONARY
  5
10
102
{ACAD_REACTORS
330
C
102
}
330
C
100
AcDbDictionary
281
     1
  3
ByBlock
350
19
  3
ByLayer
350
11
  3
Global
350
21
  0
DICTIONARY
  5
66
102
{ACAD_REACTORS
330
C
102
}
330
C
100
AcDbDictionary
281
     1
  3
Standard
350
67
  0
DICTIONARY
  5
5F
102
{ACAD_REACTORS
330
C
102
}
330
C
100
AcDbDictionary
281
     1
  3
Standard
350
60
  0
DICTIONARY
  5
61
102
{ACAD_REACTORS
330
C
102
}
330
C
100
AcDbDictionary
281
     1
  0
ACDBDICTIONARYWDFLT
  5
E
102
{ACAD_REACTORS
330
C
102
}
330
C
100
AcDbDictionary
281
     1
  3
Normal
350
F
100
AcDbDictionaryWithDefault
340
F
  0
DICTIONARY
  5
42
102
{ACAD_REACTORS
330
C
102
}
330
C
100
AcDbDictionary
281
     1
  3
A0
350
43
  3
A1
350
44
  3
A2
350
45
  3
A3
350
46
  3
A4
350
47
  3
A5
350
48
  3
A6
350
49
  3
A7
350
4A
  3
A8
350
4B
  3
A9
350
4C
  3
B0
350
4D
  3
B1
350
4E
  3
B2
350
4F
  3
B3
350
50
  3
B4
350
51
  3
B5
350
52
  3
B6
350
53
  0
DICTIONARY
  5
68
102
{ACAD_REACTORS
330
C
102
}
330
C
100
AcDbDictionary
281
     1
  3
Imperial24
350
69
  0
DICTIONARY
  5
64
102
{ACAD_REACTORS
330
C
102
}
330
C
100
AcDbDictionary
281
     1
  3
Standard
350
65
  0
DICTIONARY
  5
29
102
{ACAD_REACTORS
330
C
102
}
330
C
100
AcDbDictionary
281
     1
  3
2dWireframe
350
2F
  3
Basic
350
2E
  3
Brighten
350
35
  3
ColorChange
350
39
  3
Conceptual
350
32
  3
Dim
350
34
  3
EdgeColorOff
350
41
  3
Facepattern
350
38
  3
Flat
350
2A
  3
FlatWithEdges
350
2B
  3
Gouraud
350
2C
  3
GouraudWithEdges
350
2D
  3
Hidden
350
31
  3
JitterOff
350
3F
  3
Linepattern
350
37
  3
OverhangOff
350
40
  3
Realistic
350
33
  3
Shaded
350
3E
  3
Shaded with edges
350
3D
  3
Shades of Gray
350
3A
  3
Sketchy
350
3B
  3
Thicken
350
36
  3
Wireframe
350
30
  3
X-Ray
350
3C
  0
XRECORD
  5
B9
102
{ACAD_REACTORS
330
C
102
}
330
C
100
AcDbXrecord
280
     1
 90
        1
330
65
  0
DICTIONARY
  5
B1
102
{ACAD_REACTORS
330
C
102
}
330
C
100
AcDbDictionary
281
     1
  3
CANNOSCALE
350
B6
  3
CMLEADERSTYLE
350
B3
  3
CTABLESTYLE
350
B2
  3
CVIEWDETAILSTYLE
350
B4
  3
CVIEWSECTIONSTYLE
350
B5
  0
ACDBDETAILVIEWSTYLE
  5
6B
102
{ACAD_REACTORS
330
6A
102
}
330
6A
100
AcDbModelDocViewStyle
 70
     0
  3
Imperial24
290
     1
300
Imperial24
 90
        0
100
AcDbDetailViewStyle
 70
     0
 71
     0
 90
        3
 71
     1
340
55
 62
   256
 40
0.24
340
0
 62
   256
 40
0.24
300

 40
0.36
280
     3
 71
     2
340
5D
 90
       25
 62
   256
 71
     3
340
55
 62
   256
 40
0.24
 90
        1
 40
0.75
 90
        1
300
%<\AcVar ViewType \f "%tc1">% %<\AcVar ViewDetailId>%\PSCALE %<\AcVar ViewScale \f "%sn">%
 71
     4
340
5D
 90
       25
 62
   256
340
5D
 90
       25
 62
   256
280
     0
  0
LAYOUT
  5
6F
102
{ACAD_REACTORS
330
62
102
}
330
62
100
AcDbPlotSettings
  1

  2

  4

  6

 40
0.0
 41
0.0
 42
0.0
 43
0.0
 44
0.0
 45
0.0
 46
0.0
 47
0.0
 48
0.0
 49
0.0
140
0.0
141
0.0
142
1.0
143
1.0
 70
   688
 72
     0
 73
     0
 74
     5
  7

 75
    16
147
1.0
 76
     0
 77
     2
 78
   300
148
0.0
149
0.0
100
AcDbLayout
  1
Layout1
 70
     1
 71
     1
 10
0.0
 20
0.0
 11
12.0
 21
9.0
 12
0.0
 22
0.0
 32
0.0
 14
0.0
 24
0.0
 34
0.0
 15
0.0
 25
0.0
 35
0.0
146
0.0
 13
0.0
 23
0.0
 33
0.0
 16
1.0
 26
0.0
 36
0.0
 17
0.0
 27
1.0
 37
0.0
 76
     0
330
6C
  0
LAYOUT
  5
77
102
{ACAD_REACTORS
330
62
102
}
330
62
100
AcDbPlotSettings
  1

  2

  4

  6

 40
0.0
 41
0.0
 42
0.0
 43
0.0
 44
0.0
 45
0.0
 46
0.0
 47
0.0
 48
0.0
 49
0.0
140
0.0
141
0.0
142
1.0
143
1.0
 70
   688
 72
     0
 73
     0
 74
     5
  7

 75
    16
147
1.0
 76
     0
 77
     2
 78
   300
148
0.0
149
0.0
100
AcDbLayout
  1
Layout2
 70
     1
 71
     2
 10
0.0
 20
0.0
 11
12.0
 21
9.0
 12
0.0
 22
0.0
 32
0.0
 14
0.0
 24
0.0
 34
0.0
 15
0.0
 25
0.0
 35
0.0
146
0.0
 13
0.0
 23
0.0
 33
0.0
 16
1.0
 26
0.0
 36
0.0
 17
0.0
 27
1.0
 37
0.0
 76
     0
330
74
  0
LAYOUT
  5
73
102
{ACAD_REACTORS
330
62
102
}
330
62
100
AcDbPlotSettings
  1

  2

  4

  6

 40
0.0
 41
0.0
 42
0.0
 43
0.0
 44
0.0
 45
0.0
 46
0.0
 47
0.0
 48
0.0
 49
0.0
140
0.0
141
0.0
142
1.0
143
1.0
 70
  1712
 72
     0
 73
     0
 74
     0
  7

 75
     0
147
1.0
 76
     0
 77
     2
 78
   300
148
0.0
149
0.0
100
AcDbLayout
  1
Model
 70
     1
 71
     0
 10
0.0
 20
0.0
 11
12.0
 21
9.0
 12
0.0
 22
0.0
 32
0.0
 14
0.0
 24
0.0
 34
0.0
 15
0.0
 25
0.0
 35
0.0
146
0.0
 13
0.0
 23
0.0
 33
0.0
 16
1.0
 26
0.0
 36
0.0
 17
0.0
 27
1.0
 37
0.0
 76
     0
330
70
  0
MATERIAL
  5
19
102
{ACAD_XDICTIONARY
360
1A
102
}
102
{ACAD_REACTORS
330
10
102
}
330
10
100
AcDbMaterial
  1
ByBlock
 72
     0
 43
0.0208333333333333
 43
0.0
 43
0.0
 43
0.0
 43
0.0
 43
0.0208333333333333
 43
0.0
 43
0.0
 43
0.0
 43
0.0
 43
1.0
 43
0.0
 43
0.0
 43
0.0
 43
0.0
 43
1.0
 77
     0
 47
0.0208333333333333
 47
0.0
 47
0.0
 47
0.0
 47
0.0
 47
0.0208333333333333
 47
0.0
 47
0.0
 47
0.0
 47
0.0
 47
1.0
 47
0.0
 47
0.0
 47
0.0
 47
0.0
 47
1.0
171
     0
 49
0.0208333333333333
 49
0.0
 49
0.0
 49
0.0
 49
0.0
 49
0.0208333333333333
 49
0.0
 49
0.0
 49
0.0
 49
0.0
 49
1.0
 49
0.0
 49
0.0
 49
0.0
 49
0.0
 49
1.0
175
     0
142
0.0208333333333333
142
0.0
142
0.0
142
0.0
142
0.0
142
0.0208333333333333
142
0.0
142
0.0
142
0.0
142
0.0
142
1.0
142
0.0
142
0.0
142
0.0
142
0.0
142
1.0
179
     0
144
0.0208333333333333
144
0.0
144
0.0
144
0.0
144
0.0
144
0.0208333333333333
144
0.0
144
0.0
144
0.0
144
0.0
144
1.0
144
0.0
144
0.0
144
0.0
144
0.0
144
1.0
147
0.0208333333333333
147
0.0
147
0.0
147
0.0
147
0.0
147
0.0208333333333333
147
0.0
147
0.0
147
0.0
147
0.0
147
1.0
147
0.0
147
0.0
147
0.0
147
0.0
147
1.0
  0
MATERIAL
  5
11
102
{ACAD_XDICTIONARY
360
12
102
}
102
{ACAD_REACTORS
330
10
102
}
330
10
100
AcDbMaterial
  1
ByLayer
 72
     0
 43
0.0208333333333333
 43
0.0
 43
0.0
 43
0.0
 43
0.0
 43
0.0208333333333333
 43
0.0
 43
0.0
 43
0.0
 43
0.0
 43
1.0
 43
0.0
 43
0.0
 43
0.0
 43
0.0
 43
1.0
 77
     0
 47
0.0208333333333333
 47
0.0
 47
0.0
 47
0.0
 47
0.0
 47
0.0208333333333333
 47
0.0
 47
0.0
 47
0.0
 47
0.0
 47
1.0
 47
0.0
 47
0.0
 47
0.0
 47
0.0
 47
1.0
171
     0
 49
0.0208333333333333
 49
0.0
 49
0.0
 49
0.0
 49
0.0
 49
0.0208333333333333
 49
0.0
 49
0.0
 49
0.0
 49
0.0
 49
1.0
 49
0.0
 49
0.0
 49
0.0
 49
0.0
 49
1.0
175
     0
142
0.0208333333333333
142
0.0
142
0.0
142
0.0
142
0.0
142
0.0208333333333333
142
0.0
142
0.0
142
0.0
142
0.0
142
1.0
142
0.0
142
0.0
142
0.0
142
0.0
142
1.0
179
     0
144
0.0208333333333333
144
0.0
144
0.0
144
0.0
144
0.0
144
0.0208333333333333
144
0.0
144
0.0
144
0.0
144
0.0
144
1.0
144
0.0
144
0.0
144
0.0
144
0.0
144
1.0
147
0.0208333333333333
147
0.0
147
0.0
147
0.0
147
0.0
147
0.0208333333333333
147
0.0
147
0.0
147
0.0
147
0.0
147
1.0
147
0.0
147
0.0
147
0.0
147
0.0
147
1.0
  0
MATERIAL
  5
21
102
{ACAD_XDICTIONARY
360
22
102
}
102
{ACAD_REACTORS
330
10
102
}
330
10
100
AcDbMaterial
  1
Global
 72
     0
 43
0.0208333333333333
 43
0.0
 43
0.0
 43
0.0
 43
0.0
 43
0.0208333333333333
 43
0.0
 43
0.0
 43
0.0
 43
0.0
 43
1.0
 43
0.0
 43
0.0
 43
0.0
 43
0.0
 43
1.0
 77
     0
 47
0.0208333333333333
 47
0.0
 47
0.0
 47
0.0
 47
0.0
 47
0.0208333333333333
 47
0.0
 47
0.0
 47
0.0
 47
0.0
 47
1.0
 47
0.0
 47
0.0
 47
0.0
 47
0.0
 47
1.0
171
     0
 49
0.0208333333333333
 49
0.0
 49
0.0
 49
0.0
 49
0.0
 49
0.0208333333333333
 49
0.0
 49
0.0
 49
0.0
 49
0.0
 49
1.0
 49
0.0
 49
0.0
 49
0.0
 49
0.0
 49
1.0
175
     0
142
0.0208333333333333
142
0.0
142
0.0
142
0.0
142
0.0
142
0.0208333333333333
142
0.0
142
0.0
142
0.0
142
0.0
142
1.0
142
0.0
142
0.0
142
0.0
142
0.0
142
1.0
179
     0
144
0.0208333333333333
144
0.0
144
0.0
144
0.0
144
0.0
144
0.0208333333333333
144
0.0
144
0.0
144
0.0
144
0.0
144
1.0
144
0.0
144
0.0
144
0.0
144
0.0
144
1.0
147
0.0208333333333333
147
0.0
147
0.0
147
0.0
147
0.0
147
0.0208333333333333
147
0.0
147
0.0
147
0.0
147
0.0
147
1.0
147
0.0
147
0.0
147
0.0
147
0.0
147
1.0
  0
MLEADERSTYLE
  5
67
102
{ACAD_REACTORS
330
66
102
}
330
66
100
AcDbMLeaderStyle
179
     2
170
     2
171
     1
172
     0
 90
        2
 40
0.0
 41
0.0
173
     1
 91
-1056964608
340
5B
 92
       -2
290
     1
 42
0.09
291
     1
 43
0.36
  3
Standard
 44
0.18
300

342
55
174
     1
178
     6
175
     1
176
     0
 93
-1056964608
 45
0.18
292
     0
297
     0
 46
0.18
 94
-1056964608
 47
1.0
 49
1.0
140
1.0
293
     1
141
0.0
294
     1
177
     0
142
1.0
295
     1
296
     0
143
0.125
271
     0
272
     9
273
     9
298
     1
  0
MLINESTYLE
  5
60
102
{ACAD_REACTORS
330
5F
102
}
330
5F
100
AcDbMlineStyle
  2
STANDARD
 70
     0
  3

 62
   256
 51
90.0
 52
90.0
 71
     2
 49
0.5
 62
   256
  6
BYLAYER
 49
-0.5
 62
   256
  6
BYLAYER
  0
ACDBPLACEHOLDER
  5
F
102
{ACAD_REACTORS
330
E
102
}
330
E
  0
SCALE
  5
43
102
{ACAD_REACTORS
330
42
102
}
330
42
100
AcDbScale
 70
     0
300
1:1
140
1.0
141
1.0
290
     1
  0
SCALE
  5
44
102
{ACAD_REACTORS
330
42
102
}
330
42
100
AcDbScale
 70
     0
300
1/128" = 1'-0"
140
0.0078125
141
12.0
290
     0
  0
SCALE
  5
45
102
{ACAD_REACTORS
330
42
102
}
330
42
100
AcDbScale
 70
     0
300
1/64" = 1'-0"
140
0.015625
141
12.0
290
     0
  0
SCALE
  5
46
102
{ACAD_REACTORS
330
42
102
}
330
42
100
AcDbScale
 70
     0
300
1/32" = 1'-0"
140
0.03125
141
12.0
290
     0
  0
SCALE
  5
47
102
{ACAD_REACTORS
330
42
102
}
330
42
100
AcDbScale
 70
     0
300
1/16" = 1'-0"
140
0.0625
141
12.0
290
     0
  0
SCALE
  5
48
102
{ACAD_REACTORS
330
42
102
}
330
42
100
AcDbScale
 70
     0
300
3/32" = 1'-0"
140
0.09375
141
12.0
290
     0
  0
SCALE
  5
49
102
{ACAD_REACTORS
330
42
102
}
330
42
100
AcDbScale
 70
     0
300
1/8" = 1'-0"
140
0.125
141
12.0
290
     0
  0
SCALE
  5
4A
102
{ACAD_REACTORS
330
42
102
}
330
42
100
AcDbScale
 70
     0
300
3/16" = 1'-0"
140
0.1875
141
12.0
290
     0
  0
SCALE
  5
4B
102
{ACAD_REACTORS
330
42
102
}
330
42
100
AcDbScale
 70
     0
300
1/4" = 1'-0"
140
0.25
141
12.0
290
     0
  0
SCALE
  5
4C
102
{ACAD_REACTORS
330
42
102
}
330
42
100
AcDbScale
 70
     0
300
3/8" = 1'-0"
140
0.375
141
12.0
290
     0
  0
SCALE
  5
4D
102
{ACAD_REACTORS
330
42
102
}
330
42
100
AcDbScale
 70
     0
300
1/2" = 1'-0"
140
0.5
141
12.0
290
     0
  0
SCALE
  5
4E
102
{ACAD_REACTORS
330
42
102
}
330
42
100
AcDbScale
 70
     0
300
3/4" = 1'-0"
140
0.75
141
12.0
290
     0
  0
SCALE
  5
4F
102
{ACAD_REACTORS
330
42
102
}
330
42
100
AcDbScale
 70
     0
300
1" = 1'-0"
140
1.0
141
12.0
290
     0
  0
SCALE
  5
50
102
{ACAD_REACTORS
330
42
102
}
330
42
100
AcDbScale
 70
     0
300
1-1/2" = 1'-0"
140
1.5
141
12.0
290
     0
  0
SCALE
  5
51
102
{ACAD_REACTORS
330
42
102
}
330
42
100
AcDbScale
 70
     0
300
3" = 1'-0"
140
3.0
141
12.0
290
     0
  0
SCALE
  5
52
102
{ACAD_REACTORS
330
42
102
}
330
42
100
AcDbScale
 70
     0
300
6" = 1'-0"
140
6.0
141
12.0
290
     0
  0
SCALE
  5
53
102
{ACAD_REACTORS
330
42
102
}
330
42
100
AcDbScale
 70
     0
300
1'-0" = 1'-0"
140
12.0
141
12.0
290
     0
  0
ACDBSECTIONVIEWSTYLE
  5
69
102
{ACAD_REACTORS
330
68
102
}
330
68
100
AcDbModelDocViewStyle
 70
     0
  3
Imperial24
290
     1
300
Imperial24
 90
        0
100
AcDbSectionViewStyle
 70
     0
 71
     0
 90
       78
 71
     1
340
55
 62
   256
 40
0.24
340
0
340
0
 62
   256
 40
0.24
300
I, O, Q, S, X, Z
 40
0.48
 90
        3
 40
0.18
 90
        1
 71
     2
340
5D
 90
       25
 62
   256
340
5D
 90
       50
 62
   256
 40
0.24
 40
0.0
 40
0.24
 71
     3
340
55
 62
   256
 40
0.24
 90
        1
 40
0.75
 90
        1
300
%<\AcVar ViewType \f "%tc1">% %<\AcVar ViewSectionStartId>%-%<\AcVar ViewSectionEndId>%\PSCALE %<\AcVar ViewScale \f "%sn">%
 71
     4
 62
   256
 62
   257
300
ANSI31
 40
1.0
 90
        0
290
     0
290
     0
 90
        6
 40
0.0
 40
1.570796326794896
 40
0.2617993877991494
 40
1.308996938995747
 40
-0.2617993877991494
 40
1.832595714594046
  0
TABLESTYLE
  5
65
102
{ACAD_XDICTIONARY
360
B7
102
}
102
{ACAD_REACTORS
330
64
102
}
330
64
100
AcDbTableStyle
280
     0
  3
Standard
 70
     0
 71
     0
 40
0.06
 41
0.06
280
     0
281
     0
  7
Standard
140
0.18
170
     2
 62
     0
 63
     7
283
     0
 90
      512
 91
        0
  1

274
    -2
284
     1
 64
     0
275
    -2
285
     1
 65
     0
276
    -2
286
     1
 66
     0
277
    -2
287
     1
 67
     0
278
    -2
288
     1
 68
     0
279
    -2
289
     1
 69
     0
  7
Standard
140
0.25
170
     5
 62
     0
 63
     7
283
     0
 90
      512
 91
        0
  1

274
    -2
284
     1
 64
     0
275
    -2
285
     1
 65
     0
276
    -2
286
     1
 66
     0
277
    -2
287
     1
 67
     0
278
    -2
288
     1
 68
     0
279
    -2
289
     1
 69
     0
  7
Standard
140
0.18
170
     5
 62
     0
 63
     7
283
     0
 90
      512
 91
        0
  1

274
    -2
284
     1
 64
     0
275
    -2
285
     1
 65
     0
276
    -2
286
     1
 66
     0
277
    -2
287
     1
 67
     0
278
    -2
288
     1
 68
     0
279
    -2
289
     1
 69
     0
  0
VISUALSTYLE
  5
2F
102
{ACAD_REACTORS
330
29
102
}
330
29
100
AcDbVisualStyle
  2
2dWireframe
 70
     4
177
     3
291
     0
 70
    58
 90
        0
176
     1
 90
        2
176
     1
 90
        0
176
     1
 90
        0
176
     1
 40
0.6
176
     1
 40
30.0
176
     1
 62
     7
420
 16777215
176
     1
 90
        1
176
     1
 90
        4
176
     1
 62
     7
176
     1
 62
   257
176
     1
 90
        1
176
     1
 90
        1
176
     1
 40
1.0
176
     1
 90
        0
176
     1
 62
   257
176
     1
 40
1.0
176
     1
 90
        1
176
     1
 90
        6
176
     1
 90
        2
176
     1
 62
     7
176
     1
 90
        5
176
     1
 90
        0
176
     1
 90
        0
176
     1
290
     0
176
     1
 90
        1
176
     1
 40
0.0
176
     1
 90
        0
176
     1
290
     1
176
     1
290
     1
176
     1
290
     0
176
     1
290
     0
176
     1
290
     0
176
     1
290
     0
176
     1
290
     0
176
     1
290
     0
176
     1
290
     0
176
     1
 90
       50
176
     1
 40
0.0
176
     1
 40
1.0
176
     1
 90
        0
176
     1
 62
    18
420
        0
176
     1
 90
       50
176
     1
 90
        3
176
     1
 62
     5
420
      255
176
     1
290
     0
176
     1
 90
       50
176
     1
 90
       50
176
     1
 90
       50
176
     1
290
     0
176
     1
 90
       50
176
     1
 62
   256
176
     0
 40
1.0
176
     0
 90
        2
176
     1
  1
strokes_ogs.tif
176
     1
290
     0
176
     1
 40
1.0
176
     1
 40
1.0
176
     1
  0
VISUALSTYLE
  5
2E
102
{ACAD_REACTORS
330
29
102
}
330
29
100
AcDbVisualStyle
  2
Basic
 70
     7
177
     3
291
     1
 70
    58
 90
        1
176
     1
 90
        0
176
     1
 90
        1
176
     1
 90
        0
176
     1
 40
0.6
176
     1
 40
30.0
176
     1
 62
     7
420
 16777215
176
     1
 90
        0
176
     1
 90
        4
176
     1
 62
     7
176
     1
 62
   257
176
     1
 90
        1
176
     1
 90
        1
176
     1
 40
1.0
176
     1
 90
        8
176
     1
 62
     7
176
     1
 40
1.0
176
     1
 90
        1
176
     1
 90
        6
176
     1
 90
        2
176
     1
 62
     7
176
     1
 90
        5
176
     1
 90
        0
176
     1
 90
        0
176
     1
290
     0
176
     1
 90
        1
176
     1
 40
0.0
176
     1
 90
        0
176
     1
290
     0
176
     1
290
     1
176
     1
290
     1
176
     1
290
     0
176
     1
290
     0
176
     1
290
     0
176
     1
290
     0
176
     1
290
     0
176
     1
290
     0
176
     1
 90
       50
176
     1
 40
0.0
176
     1
 40
1.0
176
     1
 90
        0
176
     1
 62
    18
420
        0
176
     1
 90
       50
176
     1
 90
        3
176
     1
 62
     5
420
      255
176
     1
290
     0
176
     1
 90
       50
176
     1
 90
       50
176
     1
 90
       50
176
     1
290
     0
176
     1
 90
       50
176
     1
 62
   256
176
     0
 40
1.0
176
     0
 90
        2
176
     1
  1
strokes_ogs.tif
176
     1
290
     0
176
     1
 40
1.0
176
     1
 40
1.0
176
     1
  0
VISUALSTYLE
  5
35
102
{ACAD_REACTORS
330
29
102
}
330
29
100
AcDbVisualStyle
  2
Brighten
 70
    12
177
     3
291
     1
 70
    58
 90
        2
176
     1
 90
        2
176
     1
 90
        0
176
     1
 90
        0
176
     1
 40
0.6
176
     1
 40
30.0
176
     1
 62
     7
420
 16777215
176
     1
 90
        1
176
     1
 90
        4
176
     1
 62
     7
176
     1
 62
   257
176
     1
 90
        1
176
     1
 90
        1
176
     1
 40
1.0
176
     1
 90
        8
176
     1
 62
     7
176
     1
 40
1.0
176
     1
 90
        1
176
     1
 90
        6
176
     1
 90
        2
176
     1
 62
     7
176
     1
 90
        5
176
     1
 90
        0
176
     1
 90
        0
176
     1
290
     0
176
     1
 90
        1
176
     1
 40
50.0
176
     1
 90
        0
176
     1
290
     0
176
     1
290
     1
176
     1
290
     1
176
     1
290
     0
176
     1
290
     0
176
     1
290
     0
176
     1
290
     0
176
     1
290
     0
176
     1
290
     0
176
     1
 90
       50
176
     1
 40
0.0
176
     1
 40
1.0
176
     1
 90
        0
176
     1
 62
    18
420
        0
176
     1
 90
       50
176
     1
 90
        3
176
     1
 62
     5
420
      255
176
     1
290
     0
176
     1
 90
       50
176
     1
 90
       50
176
     1
 90
       50
176
     1
290
     0
176
     1
 90
       50
176
     1
 62
   256
176
     0
 40
1.0
176
     0
 90
        2
176
     1
  1
strokes_ogs.tif
176
     1
290
     0
176
     1
 40
1.0
176
     1
 40
1.0
176
     1
  0
VISUALSTYLE
  5
39
102
{ACAD_REACTORS
330
29
102
}
330
29
100
AcDbVisualStyle
  2
ColorChange
 70
    16
177
     3
291
     1
 70
    58
 90
        2
176
     1
 90
        2
176
     1
 90
        3
176
     1
 90
        0
176
     1
 40
0.6
176
     1
 40
30.0
176
     1
 62
     8
420
  8421504
176
     1
 90
        1
176
     1
 90
        4
176
     1
 62
     7
176
     1
 62
   257
176
     1
 90
        1
176
     1
 90
        1
176
     1
 40
1.0
176
     1
 90
        8
176
     1
 62
     8
420
  8421504
176
     1
 40
1.0
176
     1
 90
        1
176
     1
 90
        6
176
     1
 90
        2
176
     1
 62
     7
176
     1
 90
        5
176
     1
 90
        0
176
     1
 90
        0
176
     1
290
     0
176
     1
 90
        1
176
     1
 40
0.0
176
     1
 90
        0
176
     1
290
     0
176
     1
290
     1
176
     1
290
     1
176
     1
290
     0
176
     1
290
     0
176
     1
290
     0
176
     1
290
     0
176
     1
290
     0
176
     1
290
     0
176
     1
 90
       50
176
     1
 40
0.0
176
     1
 40
1.0
176
     1
 90
        0
176
     1
 62
    18
420
        0
176
     1
 90
       50
176
     1
 90
        3
176
     1
 62
     5
420
      255
176
     1
290
     0
176
     1
 90
       50
176
     1
 90
       50
176
     1
 90
       50
176
     1
290
     0
176
     1
 90
       50
176
     1
 62
   256
176
     0
 40
1.0
176
     0
 90
        2
176
     1
  1
strokes_ogs.tif
176
     1
290
     0
176
     1
 40
1.0
176
     1
 40
1.0
176
     1
  0
VISUALSTYLE
  5
32
102
{ACAD_REACTORS
330
29
102
}
330
29
100
AcDbVisualStyle
  2
Conceptual
 70
     9
177
     3
291
     0
 70
    58
 90
        3
176
     1
 90
        2
176
     1
 90
        0
176
     1
 90
        0
176
     1
 40
0.6
176
     1
 40
30.0
176
     1
 62
     7
420
 16777215
176
     1
 90
        2
176
     1
 90
        2
176
     1
 62
     7
176
     1
 62
   257
176
     1
 90
        1
176
     1
 90
        1
176
     1
 40
179.0
176
     1
 90
        8
176
     1
 62
     7
176
     1
 40
1.0
176
     1
 90
        1
176
     1
 90
        6
176
     1
 90
        2
176
     1
 62
     7
176
     1
 90
        3
176
     1
 90
        0
176
     1
 90
        0
176
     1
290
     0
176
     1
 90
        1
176
     1
 40
0.0
176
     1
 90
        0
176
     1
290
     0
176
     1
290
     1
176
     1
290
     1
176
     1
290
     0
176
     1
290
     0
176
     1
290
     0
176
     1
290
     0
176
     1
290
     0
176
     1
290
     0
176
     1
 90
       50
176
     1
 40
0.0
176
     1
 40
1.0
176
     1
 90
        0
176
     1
 62
    18
420
        0
176
     1
 90
       50
176
     1
 90
        3
176
     1
 62
     5
420
      255
176
     1
290
     0
176
     1
 90
       50
176
     1
 90
       50
176
     1
 90
       50
176
     1
290
     0
176
     1
 90
       50
176
     1
 62
   256
176
     0
 40
1.0
176
     0
 90
        2
176
     1
  1
strokes_ogs.tif
176
     1
290
     0
176
     1
 40
1.0
176
     1
 40
1.0
176
     1
  0
VISUALSTYLE
  5
34
102
{ACAD_REACTORS
330
29
102
}
330
29
100
AcDbVisualStyle
  2
Dim
 70
    11
177
     3
291
     1
 70
    58
 90
        2
176
     1
 90
        2
176
     1
 90
        0
176
     1
 90
        0
176
     1
 40
0.6
176
     1
 40
30.0
176
     1
 62
     7
420
 16777215
176
     1
 90
        1
176
     1
 90
        4
176
     1
 62
     7
176
     1
 62
   257
176
     1
 90
        1
176
     1
 90
        1
176
     1
 40
1.0
176
     1
 90
        8
176
     1
 62
     7
176
     1
 40
1.0
176
     1
 90
        1
176
     1
 90
        6
176
     1
 90
        2
176
     1
 62
     7
176
     1
 90
        5
176
     1
 90
        0
176
     1
 90
        0
176
     1
290
     0
176
     1
 90
        1
176
     1
 40
-50.0
176
     1
 90
        0
176
     1
290
     0
176
     1
290
     1
176
     1
290
     1
176
     1
290
     0
176
     1
290
     0
176
     1
290
     0
176
     1
290
     0
176
     1
290
     0
176
     1
290
     0
176
     1
 90
       50
176
     1
 40
0.0
176
     1
 40
1.0
176
     1
 90
        0
176
     1
 62
    18
420
        0
176
     1
 90
       50
176
     1
 90
        3
176
     1
 62
     5
420
      255
176
     1
290
     0
176
     1
 90
       50
176
     1
 90
       50
176
     1
 90
       50
176
     1
290
     0
176
     1
 90
       50
176
     1
 62
   256
176
     0
 40
1.0
176
     0
 90
        2
176
     1
  1
strokes_ogs.tif
176
     1
290
     0
176
     1
 40
1.0
176
     1
 40
1.0
176
     1
  0
VISUALSTYLE
  5
41
102
{ACAD_REACTORS
330
29
102
}
330
29
100
AcDbVisualStyle
  2
EdgeColorOff
 70
    22
177
     3
291
     1
 70
    58
 90
        2
176
     0
 90
        2
176
     0
 90
        0
176
     0
 90
        0
176
     0
 40
0.6
176
     0
 40
30.0
176
     0
 62
     7
420
 16777215
176
     0
 90
        1
176
     0
 90
        4
176
     0
 62
     7
176
     0
 62
   257
176
     0
 90
        1
176
     0
 90
        1
176
     0
 40
1.0
176
     0
 90
        8
176
     2
 62
     7
176
     0
 40
1.0
176
     0
 90
        1
176
     0
 90
        6
176
     0
 90
        2
176
     0
 62
     7
176
     0
 90
        5
176
     0
 90
        0
176
     0
 90
        0
176
     0
290
     0
176
     0
 90
        1
176
     0
 40
0.0
176
     0
 90
        0
176
     0
290
     0
176
     0
290
     1
176
     0
290
     1
176
     0
290
     0
176
     0
290
     0
176
     0
290
     0
176
     0
290
     0
176
     0
290
     0
176
     0
290
     0
176
     0
 90
       50
176
     0
 40
0.0
176
     0
 40
1.0
176
     0
 90
        0
176
     0
 62
    18
420
        0
176
     0
 90
       50
176
     0
 90
        3
176
     0
 62
     5
420
      255
176
     0
290
     0
176
     0
 90
       50
176
     0
 90
       50
176
     0
 90
       50
176
     0
290
     0
176
     0
 90
       50
176
     0
 62
   256
176
     0
 40
1.0
176
     0
 90
        2
176
     0
  1
strokes_ogs.tif
176
     0
290
     0
176
     0
 40
1.0
176
     0
 40
1.0
176
     0
  0
VISUALSTYLE
  5
38
102
{ACAD_REACTORS
330
29
102
}
330
29
100
AcDbVisualStyle
  2
Facepattern
 70
    15
177
     3
291
     1
 70
    58
 90
        2
176
     1
 90
        2
176
     1
 90
        0
176
     1
 90
        0
176
     1
 40
0.6
176
     1
 40
30.0
176
     1
 62
     7
420
 16777215
176
     1
 90
        1
176
     1
 90
        4
176
     1
 62
     7
176
     1
 62
   257
176
     1
 90
        1
176
     1
 90
        1
176
     1
 40
1.0
176
     1
 90
        8
176
     1
 62
     7
176
     1
 40
1.0
176
     1
 90
        1
176
     1
 90
        6
176
     1
 90
        2
176
     1
 62
     7
176
     1
 90
        5
176
     1
 90
        0
176
     1
 90
        0
176
     1
290
     0
176
     1
 90
        1
176
     1
 40
0.0
176
     1
 90
        0
176
     1
290
     0
176
     1
290
     1
176
     1
290
     1
176
     1
290
     0
176
     1
290
     0
176
     1
290
     0
176
     1
290
     0
176
     1
290
     0
176
     1
290
     0
176
     1
 90
       50
176
     1
 40
0.0
176
     1
 40
1.0
176
     1
 90
        0
176
     1
 62
    18
420
        0
176
     1
 90
       50
176
     1
 90
        3
176
     1
 62
     5
420
      255
176
     1
290
     0
176
     1
 90
       50
176
     1
 90
       50
176
     1
 90
       50
176
     1
290
     0
176
     1
 90
       50
176
     1
 62
   256
176
     0
 40
1.0
176
     0
 90
        2
176
     1
  1
strokes_ogs.tif
176
     1
290
     0
176
     1
 40
1.0
176
     1
 40
1.0
176
     1
  0
VISUALSTYLE
  5
2A
102
{ACAD_REACTORS
330
29
102
}
330
29
100
AcDbVisualStyle
  2
Flat
 70
     0
177
     3
291
     1
 70
    58
 90
        2
176
     1
 90
        1
176
     1
 90
        1
176
     1
 90
        2
176
     1
 40
0.6
176
     1
 40
30.0
176
     1
 62
     7
420
 16777215
176
     1
 90
        0
176
     1
 90
        0
176
     1
 62
     7
176
     1
 62
   257
176
     1
 90
        1
176
     1
 90
        1
176
     1
 40
1.0
176
     1
 90
        8
176
     1
 62
     7
176
     1
 40
1.0
176
     1
 90
        1
176
     1
 90
        6
176
     1
 90
        2
176
     1
 62
     7
176
     1
 90
        5
176
     1
 90
        0
176
     1
 90
        0
176
     1
290
     0
176
     1
 90
       13
176
     1
 40
0.0
176
     1
 90
        0
176
     1
290
     0
176
     1
290
     1
176
     1
290
     1
176
     1
290
     0
176
     1
290
     0
176
     1
290
     0
176
     1
290
     0
176
     1
290
     0
176
     1
290
     0
176
     1
 90
       50
176
     1
 40
0.0
176
     1
 40
1.0
176
     1
 90
        0
176
     1
 62
    18
420
        0
176
     1
 90
       50
176
     1
 90
        3
176
     1
 62
     5
420
      255
176
     1
290
     0
176
     1
 90
       50
176
     1
 90
       50
176
     1
 90
       50
176
     1
290
     0
176
     1
 90
       50
176
     1
 62
   256
176
     0
 40
1.0
176
     0
 90
        2
176
     1
  1
strokes_ogs.tif
176
     1
290
     0
176
     1
 40
1.0
176
     1
 40
1.0
176
     1
  0
VISUALSTYLE
  5
2B
102
{ACAD_REACTORS
330
29
102
}
330
29
100
AcDbVisualStyle
  2
FlatWithEdges
 70
     1
177
     3
291
     1
 70
    58
 90
        2
176
     1
 90
        1
176
     1
 90
        1
176
     1
 90
        2
176
     1
 40
0.6
176
     1
 40
30.0
176
     1
 62
     7
420
 16777215
176
     1
 90
        1
176
     1
 90
        0
176
     1
 62
     7
176
     1
 62
   257
176
     1
 90
        1
176
     1
 90
        1
176
     1
 40
1.0
176
     1
 90
        0
176
     1
 62
   257
176
     1
 40
1.0
176
     1
 90
        1
176
     1
 90
        6
176
     1
 90
        2
176
     1
 62
     7
176
     1
 90
        5
176
     1
 90
        0
176
     1
 90
        0
176
     1
290
     0
176
     1
 90
       13
176
     1
 40
0.0
176
     1
 90
        0
176
     1
290
     0
176
     1
290
     1
176
     1
290
     1
176
     1
290
     0
176
     1
290
     0
176
     1
290
     0
176
     1
290
     0
176
     1
290
     0
176
     1
290
     0
176
     1
 90
       50
176
     1
 40
0.0
176
     1
 40
1.0
176
     1
 90
        0
176
     1
 62
    18
420
        0
176
     1
 90
       50
176
     1
 90
        3
176
     1
 62
     5
420
      255
176
     1
290
     0
176
     1
 90
       50
176
     1
 90
       50
176
     1
 90
       50
176
     1
290
     0
176
     1
 90
       50
176
     1
 62
   256
176
     0
 40
1.0
176
     0
 90
        2
176
     1
  1
strokes_ogs.tif
176
     1
290
     0
176
     1
 40
1.0
176
     1
 40
1.0
176
     1
  0
VISUALSTYLE
  5
2C
102
{ACAD_REACTORS
330
29
102
}
330
29
100
AcDbVisualStyle
  2
Gouraud
 70
     2
177
     3
291
     1
 70
    58
 90
        2
176
     1
 90
        2
176
     1
 90
        1
176
     1
 90
        2
176
     1
 40
0.6
176
     1
 40
30.0
176
     1
 62
     7
420
 16777215
176
     1
 90
        0
176
     1
 90
        0
176
     1
 62
     7
176
     1
 62
   257
176
     1
 90
        1
176
     1
 90
        1
176
     1
 40
1.0
176
     1
 90
        0
176
     1
 62
     7
176
     1
 40
1.0
176
     1
 90
        1
176
     1
 90
        6
176
     1
 90
        2
176
     1
 62
     7
176
     1
 90
        5
176
     1
 90
        0
176
     1
 90
        0
176
     1
290
     0
176
     1
 90
       13
176
     1
 40
0.0
176
     1
 90
        0
176
     1
290
     0
176
     1
290
     1
176
     1
290
     1
176
     1
290
     0
176
     1
290
     0
176
     1
290
     0
176
     1
290
     0
176
     1
290
     0
176
     1
290
     0
176
     1
 90
       50
176
     1
 40
0.0
176
     1
 40
1.0
176
     1
 90
        0
176
     1
 62
    18
420
        0
176
     1
 90
       50
176
     1
 90
        3
176
     1
 62
     5
420
      255
176
     1
290
     0
176
     1
 90
       50
176
     1
 90
       50
176
     1
 90
       50
176
     1
290
     0
176
     1
 90
       50
176
     1
 62
   256
176
     0
 40
1.0
176
     0
 90
        2
176
     1
  1
strokes_ogs.tif
176
     1
290
     0
176
     1
 40
1.0
176
     1
 40
1.0
176
     1
  0
VISUALSTYLE
  5
2D
102
{ACAD_REACTORS
330
29
102
}
330
29
100
AcDbVisualStyle
  2
GouraudWithEdges
 70
     3
177
     3
291
     1
 70
    58
 90
        2
176
     1
 90
        2
176
     1
 90
        1
176
     1
 90
        2
176
     1
 40
0.6
176
     1
 40
30.0
176
     1
 62
     7
420
 16777215
176
     1
 90
        1
176
     1
 90
        0
176
     1
 62
     7
176
     1
 62
   257
176
     1
 90
        1
176
     1
 90
        1
176
     1
 40
1.0
176
     1
 90
        0
176
     1
 62
   257
176
     1
 40
1.0
176
     1
 90
        1
176
     1
 90
        6
176
     1
 90
        2
176
     1
 62
     7
176
     1
 90
        5
176
     1
 90
        0
176
     1
 90
        0
176
     1
290
     0
176
     1
 90
       13
176
     1
 40
0.0
176
     1
 90
        0
176
     1
290
     0
176
     1
290
     1
176
     1
290
     1
176
     1
290
     0
176
     1
290
     0
176
     1
290
     0
176
     1
290
     0
176
     1
290
     0
176
     1
290
     0
176
     1
 90
       50
176
     1
 40
0.0
176
     1
 40
1.0
176
     1
 90
        0
176
     1
 62
    18
420
        0
176
     1
 90
       50
176
     1
 90
        3
176
     1
 62
     5
420
      255
176
     1
290
     0
176
     1
 90
       50
176
     1
 90
       50
176
     1
 90
       50
176
     1
290
     0
176
     1
 90
       50
176
     1
 62
   256
176
     0
 40
1.0
176
     0
 90
        2
176
     1
  1
strokes_ogs.tif
176
     1
290
     0
176
     1
 40
1.0
176
     1
 40
1.0
176
     1
  0
VISUALSTYLE
  5
31
102
{ACAD_REACTORS
330
29
102
}
330
29
100
AcDbVisualStyle
  2
Hidden
 70
     6
177
     3
291
     0
 70
    58
 90
        1
176
     1
 90
        2
176
     1
 90
        2
176
     1
 90
        0
176
     1
 40
0.6
176
     1
 40
30.0
176
     1
 62
     7
420
 16777215
176
     1
 90
        2
176
     1
 90
        2
176
     1
 62
     7
176
     1
 62
   257
176
     1
 90
        2
176
     1
 90
        1
176
     1
 40
40.0
176
     1
 90
        0
176
     1
 62
   257
176
     1
 40
1.0
176
     1
 90
        1
176
     1
 90
        6
176
     1
 90
        2
176
     1
 62
     7
176
     1
 90
        3
176
     1
 90
        0
176
     1
 90
        0
176
     1
290
     0
176
     1
 90
        1
176
     1
 40
0.0
176
     1
 90
        0
176
     1
290
     0
176
     1
290
     1
176
     1
290
     1
176
     1
290
     0
176
     1
290
     0
176
     1
290
     0
176
     1
290
     0
176
     1
290
     0
176
     1
290
     0
176
     1
 90
       50
176
     1
 40
0.0
176
     1
 40
1.0
176
     1
 90
        0
176
     1
 62
    18
420
        0
176
     1
 90
       50
176
     1
 90
        3
176
     1
 62
     5
420
      255
176
     1
290
     0
176
     1
 90
       50
176
     1
 90
       50
176
     1
 90
       50
176
     1
290
     0
176
     1
 90
       50
176
     1
 62
   256
176
     0
 40
1.0
176
     0
 90
        2
176
     1
  1
strokes_ogs.tif
176
     1
290
     0
176
     1
 40
1.0
176
     1
 40
1.0
176
     1
  0
VISUALSTYLE
  5
3F
102
{ACAD_REACTORS
330
29
102
}
330
29
100
AcDbVisualStyle
  2
JitterOff
 70
    20
177
     3
291
     1
 70
    58
 90
        2
176
     0
 90
        2
176
     0
 90
        0
176
     0
 90
        0
176
     0
 40
0.6
176
     0
 40
30.0
176
     0
 62
     7
420
 16777215
176
     0
 90
        1
176
     0
 90
        4
176
     0
 62
     7
176
     0
 62
   257
176
     0
 90
        1
176
     0
 90
        1
176
     0
 40
1.0
176
     0
 90
       10
176
     2
 62
     7
176
     0
 40
1.0
176
     0
 90
        1
176
     0
 90
        6
176
     0
 90
        2
176
     0
 62
     7
176
     0
 90
        5
176
     0
 90
        0
176
     0
 90
        0
176
     0
290
     0
176
     0
 90
        1
176
     0
 40
0.0
176
     0
 90
        0
176
     0
290
     0
176
     0
290
     1
176
     0
290
     1
176
     0
290
     0
176
     0
290
     0
176
     0
290
     0
176
     0
290
     0
176
     0
290
     0
176
     0
290
     0
176
     0
 90
       50
176
     0
 40
0.0
176
     0
 40
1.0
176
     0
 90
        0
176
     0
 62
    18
420
        0
176
     0
 90
       50
176
     0
 90
        3
176
     0
 62
     5
420
      255
176
     0
290
     0
176
     0
 90
       50
176
     0
 90
       50
176
     0
 90
       50
176
     0
290
     0
176
     0
 90
       50
176
     0
 62
   256
176
     0
 40
1.0
176
     0
 90
        2
176
     0
  1
strokes_ogs.tif
176
     0
290
     0
176
     0
 40
1.0
176
     0
 40
1.0
176
     0
  0
VISUALSTYLE
  5
37
102
{ACAD_REACTORS
330
29
102
}
330
29
100
AcDbVisualStyle
  2
Linepattern
 70
    14
177
     3
291
     1
 70
    58
 90
        2
176
     1
 90
        2
176
     1
 90
        0
176
     1
 90
        0
176
     1
 40
0.6
176
     1
 40
30.0
176
     1
 62
     7
420
 16777215
176
     1
 90
        1
176
     1
 90
        4
176
     1
 62
     7
176
     1
 62
   257
176
     1
 90
        7
176
     1
 90
        7
176
     1
 40
1.0
176
     1
 90
        8
176
     1
 62
     7
176
     1
 40
1.0
176
     1
 90
        1
176
     1
 90
        6
176
     1
 90
        2
176
     1
 62
     7
176
     1
 90
        5
176
     1
 90
        0
176
     1
 90
        0
176
     1
290
     0
176
     1
 90
        1
176
     1
 40
0.0
176
     1
 90
        0
176
     1
290
     0
176
     1
290
     1
176
     1
290
     1
176
     1
290
     0
176
     1
290
     0
176
     1
290
     0
176
     1
290
     0
176
     1
290
     0
176
     1
290
     0
176
     1
 90
       50
176
     1
 40
0.0
176
     1
 40
1.0
176
     1
 90
        0
176
     1
 62
    18
420
        0
176
     1
 90
       50
176
     1
 90
        3
176
     1
 62
     5
420
      255
176
     1
290
     0
176
     1
 90
       50
176
     1
 90
       50
176
     1
 90
       50
176
     1
290
     0
176
     1
 90
       50
176
     1
 62
   256
176
     0
 40
1.0
176
     0
 90
        2
176
     1
  1
strokes_ogs.tif
176
     1
290
     0
176
     1
 40
1.0
176
     1
 40
1.0
176
     1
  0
VISUALSTYLE
  5
40
102
{ACAD_REACTORS
330
29
102
}
330
29
100
AcDbVisualStyle
  2
OverhangOff
 70
    21
177
     3
291
     1
 70
    58
 90
        2
176
     0
 90
        2
176
     0
 90
        0
176
     0
 90
        0
176
     0
 40
0.6
176
     0
 40
30.0
176
     0
 62
     7
420
 16777215
176
     0
 90
        1
176
     0
 90
        4
176
     0
 62
     7
176
     0
 62
   257
176
     0
 90
        1
176
     0
 90
        1
176
     0
 40
1.0
176
     0
 90
        9
176
     2
 62
     7
176
     0
 40
1.0
176
     0
 90
        1
176
     0
 90
        6
176
     0
 90
        2
176
     0
 62
     7
176
     0
 90
        5
176
     0
 90
        0
176
     0
 90
        0
176
     0
290
     0
176
     0
 90
        1
176
     0
 40
0.0
176
     0
 90
        0
176
     0
290
     0
176
     0
290
     1
176
     0
290
     1
176
     0
290
     0
176
     0
290
     0
176
     0
290
     0
176
     0
290
     0
176
     0
290
     0
176
     0
290
     0
176
     0
 90
       50
176
     0
 40
0.0
176
     0
 40
1.0
176
     0
 90
        0
176
     0
 62
    18
420
        0
176
     0
 90
       50
176
     0
 90
        3
176
     0
 62
     5
420
      255
176
     0
290
     0
176
     0
 90
       50
176
     0
 90
       50
176
     0
 90
       50
176
     0
290
     0
176
     0
 90
       50
176
     0
 62
   256
176
     0
 40
1.0
176
     0
 90
        2
176
     0
  1
strokes_ogs.tif
176
     0
290
     0
176
     0
 40
1.0
176
     0
 40
1.0
176
     0
  0
VISUALSTYLE
  5
33
102
{ACAD_REACTORS
330
29
102
}
330
29
100
AcDbVisualStyle
  2
Realistic
 70
     8
177
     3
291
     0
 70
    58
 90
        2
176
     1
 90
        3
176
     1
 90
        0
176
     1
 90
        2
176
     1
 40
0.6
176
     1
 40
30.0
176
     1
 62
     7
420
 16777215
176
     1
 90
        0
176
     1
 90
        0
176
     1
 62
     7
176
     1
 62
   257
176
     1
 90
        1
176
     1
 90
        1
176
     1
 40
1.0
176
     1
 90
        8
176
     1
 62
   257
176
     1
 40
1.0
176
     1
 90
        1
176
     1
 90
        6
176
     1
 90
        2
176
     1
 62
     7
176
     1
 90
        3
176
     1
 90
        0
176
     1
 90
        0
176
     1
290
     0
176
     1
 90
       13
176
     1
 40
0.0
176
     1
 90
        0
176
     1
290
     0
176
     1
290
     1
176
     1
290
     1
176
     1
290
     0
176
     1
290
     0
176
     1
290
     0
176
     1
290
     0
176
     1
290
     0
176
     1
290
     0
176
     1
 90
       50
176
     1
 40
0.0
176
     1
 40
1.0
176
     1
 90
        0
176
     1
 62
    18
420
        0
176
     1
 90
       50
176
     1
 90
        3
176
     1
 62
     5
420
      255
176
     1
290
     0
176
     1
 90
       50
176
     1
 90
       50
176
     1
 90
       50
176
     1
290
     0
176
     1
 90
       50
176
     1
 62
   256
176
     0
 40
1.0
176
     0
 90
        2
176
     1
  1
strokes_ogs.tif
176
     1
290
     0
176
     1
 40
1.0
176
     1
 40
1.0
176
     1
  0
VISUALSTYLE
  5
3E
102
{ACAD_REACTORS
330
29
102
}
330
29
100
AcDbVisualStyle
  2
Shaded
 70
    27
177
     3
291
     0
 70
    58
 90
        2
176
     1
 90
        2
176
     1
 90
        1
176
     1
 90
        2
176
     1
 40
0.6
176
     1
 40
30.0
176
     1
 62
     7
420
 16777215
176
     1
 90
        0
176
     1
 90
        4
176
     1
 62
     7
176
     1
 62
   257
176
     1
 90
        1
176
     1
 90
        1
176
     1
 40
1.0
176
     1
 90
        8
176
     1
 62
   257
176
     1
 40
1.0
176
     1
 90
        1
176
     1
 90
        6
176
     1
 90
        2
176
     1
 62
     8
420
  7895160
176
     1
 90
        3
176
     1
 90
        0
176
     1
 90
        0
176
     1
290
     0
176
     1
 90
        5
176
     1
 40
0.0
176
     1
 90
        0
176
     1
290
     0
176
     1
290
     1
176
     1
290
     1
176
     1
290
     0
176
     1
290
     0
176
     1
290
     0
176
     1
290
     0
176
     1
290
     0
176
     1
290
     0
176
     1
 90
       50
176
     1
 40
0.0
176
     1
 40
1.0
176
     1
 90
        0
176
     1
 62
    18
420
        0
176
     1
 90
       50
176
     1
 90
        3
176
     1
 62
     5
420
      255
176
     1
290
     0
176
     1
 90
       50
176
     1
 90
       50
176
     1
 90
       50
176
     1
290
     0
176
     1
 90
       50
176
     1
 62
   256
176
     0
 40
1.0
176
     0
 90
        2
176
     1
  1
strokes_ogs.tif
176
     1
290
     0
176
     1
 40
1.0
176
     1
 40
1.0
176
     1
  0
VISUALSTYLE
  5
3D
102
{ACAD_REACTORS
330
29
102
}
330
29
100
AcDbVisualStyle
  2
Shaded with edges
 70
    26
177
     3
291
     0
 70
    58
 90
        2
176
     1
 90
        2
176
     1
 90
        1
176
     1
 90
        2
176
     1
 40
0.6
176
     1
 40
30.0
176
     1
 62
     7
420
 16777215
176
     1
 90
        1
176
     1
 90
        2
176
     1
 62
     7
176
     1
 62
   257
176
     1
 90
        2
176
     1
 90
        1
176
     1
 40
1.0
176
     1
 90
        8
176
     1
 62
   257
176
     1
 40
1.0
176
     1
 90
        1
176
     1
 90
        6
176
     1
 90
        2
176
     1
 62
     7
176
     1
 90
        3
176
     1
 90
        0
176
     1
 90
        0
176
     1
290
     0
176
     1
 90
        5
176
     1
 40
0.0
176
     1
 90
        0
176
     1
290
     0
176
     1
290
     1
176
     1
290
     1
176
     1
290
     0
176
     1
290
     0
176
     1
290
     0
176
     1
290
     0
176
     1
290
     0
176
     1
290
     0
176
     1
 90
       50
176
     1
 40
0.0
176
     1
 40
1.0
176
     1
 90
        0
176
     1
 62
    18
420
        0
176
     1
 90
       50
176
     1
 90
        3
176
     1
 62
     5
420
      255
176
     1
290
     0
176
     1
 90
       50
176
     1
 90
       50
176
     1
 90
       50
176
     1
290
     0
176
     1
 90
       50
176
     1
 62
   256
176
     0
 40
1.0
176
     0
 90
        2
176
     1
  1
strokes_ogs.tif
176
     1
290
     0
176
     1
 40
1.0
176
     1
 40
1.0
176
     1
  0
VISUALSTYLE
  5
3A
102
{ACAD_REACTORS
330
29
102
}
330
29
100
AcDbVisualStyle
  2
Shades of Gray
 70
    23
177
     3
291
     0
 70
    58
 90
        2
176
     1
 90
        2
176
     1
 90
        3
176
     1
 90
        0
176
     1
 40
0.6
176
     1
 40
30.0
176
     1
 62
     7
420
 16777215
176
     1
 90
        2
176
     1
 90
        2
176
     1
 62
     7
176
     1
 62
     7
176
     1
 90
        1
176
     1
 90
        1
176
     1
 40
40.0
176
     1
 90
        8
176
     1
 62
     7
176
     1
 40
1.0
176
     1
 90
        1
176
     1
 90
        6
176
     1
 90
        2
176
     1
 62
     7
176
     1
 90
        3
176
     1
 90
        0
176
     1
 90
        0
176
     1
290
     0
176
     1
 90
        1
176
     1
 40
0.0
176
     1
 90
        0
176
     1
290
     0
176
     1
290
     1
176
     1
290
     1
176
     1
290
     0
176
     1
290
     0
176
     1
290
     0
176
     1
290
     0
176
     1
290
     0
176
     1
290
     0
176
     1
 90
       50
176
     1
 40
0.0
176
     1
 40
1.0
176
     1
 90
        0
176
     1
 62
    18
420
        0
176
     1
 90
       50
176
     1
 90
        3
176
     1
 62
     5
420
      255
176
     1
290
     0
176
     1
 90
       50
176
     1
 90
       50
176
     1
 90
       50
176
     1
290
     0
176
     1
 90
       50
176
     1
 62
   256
176
     0
 40
1.0
176
     0
 90
        2
176
     1
  1
strokes_ogs.tif
176
     1
290
     0
176
     1
 40
1.0
176
     1
 40
1.0
176
     1
  0
VISUALSTYLE
  5
3B
102
{ACAD_REACTORS
330
29
102
}
330
29
100
AcDbVisualStyle
  2
Sketchy
 70
    24
177
     3
291
     0
 70
    58
 90
        1
176
     1
 90
        2
176
     1
 90
        2
176
     1
 90
        0
176
     1
 40
0.6
176
     1
 40
30.0
176
     1
 62
     7
420
 16777215
176
     1
 90
        2
176
     1
 90
        2
176
     1
 62
     7
176
     1
 62
     7
176
     1
 90
        1
176
     1
 90
        1
176
     1
 40
40.0
176
     1
 90
       11
176
     1
 62
     7
176
     1
 40
1.0
176
     1
 90
        1
176
     1
 90
        6
176
     1
 90
        2
176
     1
 62
     7
176
     1
 90
        6
176
     1
 90
        0
176
     1
 90
        0
176
     1
290
     0
176
     1
 90
        1
176
     1
 40
0.0
176
     1
 90
        0
176
     1
290
     0
176
     1
290
     1
176
     1
290
     1
176
     1
290
     0
176
     1
290
     0
176
     1
290
     0
176
     1
290
     0
176
     1
290
     0
176
     1
290
     0
176
     1
 90
       50
176
     1
 40
0.0
176
     1
 40
1.0
176
     1
 90
        0
176
     1
 62
    18
420
        0
176
     1
 90
       50
176
     1
 90
        3
176
     1
 62
     5
420
      255
176
     1
290
     0
176
     1
 90
       50
176
     1
 90
       50
176
     1
 90
       50
176
     1
290
     0
176
     1
 90
       50
176
     1
 62
   256
176
     0
 40
1.0
176
     0
 90
        2
176
     1
  1
strokes_ogs.tif
176
     1
290
     0
176
     1
 40
1.0
176
     1
 40
1.0
176
     1
  0
VISUALSTYLE
  5
36
102
{ACAD_REACTORS
330
29
102
}
330
29
100
AcDbVisualStyle
  2
Thicken
 70
    13
177
     3
291
     1
 70
    58
 90
        2
176
     1
 90
        2
176
     1
 90
        0
176
     1
 90
        0
176
     1
 40
0.6
176
     1
 40
30.0
176
     1
 62
     7
420
 16777215
176
     1
 90
        1
176
     1
 90
        4
176
     1
 62
     7
176
     1
 62
   257
176
     1
 90
        1
176
     1
 90
        1
176
     1
 40
1.0
176
     1
 90
       12
176
     1
 62
     7
176
     1
 40
1.0
176
     1
 90
        1
176
     1
 90
        6
176
     1
 90
        2
176
     1
 62
     7
176
     1
 90
        5
176
     1
 90
        0
176
     1
 90
        0
176
     1
290
     0
176
     1
 90
        1
176
     1
 40
0.0
176
     1
 90
        0
176
     1
290
     0
176
     1
290
     1
176
     1
290
     1
176
     1
290
     0
176
     1
290
     0
176
     1
290
     0
176
     1
290
     0
176
     1
290
     0
176
     1
290
     0
176
     1
 90
       50
176
     1
 40
0.0
176
     1
 40
1.0
176
     1
 90
        0
176
     1
 62
    18
420
        0
176
     1
 90
       50
176
     1
 90
        3
176
     1
 62
     5
420
      255
176
     1
290
     0
176
     1
 90
       50
176
     1
 90
       50
176
     1
 90
       50
176
     1
290
     0
176
     1
 90
       50
176
     1
 62
   256
176
     0
 40
1.0
176
     0
 90
        2
176
     1
  1
strokes_ogs.tif
176
     1
290
     0
176
     1
 40
1.0
176
     1
 40
1.0
176
     1
  0
VISUALSTYLE
  5
30
102
{ACAD_REACTORS
330
29
102
}
330
29
100
AcDbVisualStyle
  2
Wireframe
 70
     5
177
     3
291
     0
 70
    58
 90
        0
176
     1
 90
        2
176
     1
 90
        0
176
     1
 90
        0
176
     1
 40
0.6
176
     1
 40
30.0
176
     1
 62
     7
420
 16777215
176
     1
 90
        1
176
     1
 90
        4
176
     1
 62
     7
176
     1
 62
   257
176
     1
 90
        1
176
     1
 90
        1
176
     1
 40
1.0
176
     1
 90
        0
176
     1
 62
   257
176
     1
 40
1.0
176
     1
 90
        1
176
     1
 90
        6
176
     1
 90
        2
176
     1
 62
     7
176
     1
 90
        3
176
     1
 90
        0
176
     1
 90
        0
176
     1
290
     0
176
     1
 90
        1
176
     1
 40
0.0
176
     1
 90
        0
176
     1
290
     0
176
     1
290
     1
176
     1
290
     1
176
     1
290
     0
176
     1
290
     0
176
     1
290
     0
176
     1
290
     0
176
     1
290
     0
176
     1
290
     0
176
     1
 90
       50
176
     1
 40
0.0
176
     1
 40
1.0
176
     1
 90
        0
176
     1
 62
    18
420
        0
176
     1
 90
       50
176
     1
 90
        3
176
     1
 62
     5
420
      255
176
     1
290
     0
176
     1
 90
       50
176
     1
 90
       50
176
     1
 90
       50
176
     1
290
     0
176
     1
 90
       50
176
     1
 62
   256
176
     0
 40
1.0
176
     0
 90
        2
176
     1
  1
strokes_ogs.tif
176
     1
290
     0
176
     1
 40
1.0
176
     1
 40
1.0
176
     1
  0
VISUALSTYLE
  5
3C
102
{ACAD_REACTORS
330
29
102
}
330
29
100
AcDbVisualStyle
  2
X-Ray
 70
    25
177
     3
291
     0
 70
    58
 90
        2
176
     1
 90
        2
176
     1
 90
        1
176
     1
 90
        1
176
     1
 40
0.5
176
     1
 40
30.0
176
     1
 62
     7
420
 16777215
176
     1
 90
        1
176
     1
 90
        0
176
     1
 62
     7
176
     1
 62
   257
176
     1
 90
        1
176
     1
 90
        1
176
     1
 40
1.0
176
     1
 90
        8
176
     1
 62
     7
176
     1
 40
1.0
176
     1
 90
        1
176
     1
 90
        6
176
     1
 90
        2
176
     1
 62
     7
176
     1
 90
        3
176
     1
 90
        0
176
     1
 90
        0
176
     1
290
     0
176
     1
 90
       13
176
     1
 40
0.0
176
     1
 90
        0
176
     1
290
     0
176
     1
290
     1
176
     1
290
     1
176
     1
290
     0
176
     1
290
     0
176
     1
290
     0
176
     1
290
     0
176
     1
290
     0
176
     1
290
     0
176
     1
 90
       50
176
     1
 40
0.0
176
     1
 40
1.0
176
     1
 90
        0
176
     1
 62
    18
420
        0
176
     1
 90
       50
176
     1
 90
        3
176
     1
 62
     5
420
      255
176
     1
290
     0
176
     1
 90
       50
176
     1
 90
       50
176
     1
 90
       50
176
     1
290
     0
176
     1
 90
       50
176
     1
 62
   256
176
     0
 40
1.0
176
     0
 90
        2
176
     1
  1
strokes_ogs.tif
176
     1
290
     0
176
     1
 40
1.0
176
     1
 40
1.0
176
     1
  0
DICTIONARYVAR
  5
B6
102
{ACAD_REACTORS
330
B1
102
}
330
B1
100
DictionaryVariables
280
     0
  1
1:1
  0
DICTIONARYVAR
  5
B3
102
{ACAD_REACTORS
330
B1
102
}
330
B1
100
DictionaryVariables
280
     0
  1
STANDARD
  0
DICTIONARYVAR
  5
B2
102
{ACAD_REACTORS
330
B1
102
}
330
B1
100
DictionaryVariables
280
     0
  1
STANDARD
  0
DICTIONARYVAR
  5
B4
102
{ACAD_REACTORS
330
B1
102
}
330
B1
100
DictionaryVariables
280
     0
  1
Imperial24
  0
DICTIONARYVAR
  5
B5
102
{ACAD_REACTORS
330
B1
102
}
330
B1
100
DictionaryVariables
280
     0
  1
Imperial24
  0
DICTIONARY
  5
1A
330
19
100
AcDbDictionary
280
     1
281
     1
  3
BUMPTILE
360
1C
  3
DIFFUSETILE
360
1B
  3
OPACITYTILE
360
1F
  3
REFLECTIONTILE
360
1E
  3
REFRACTIONTILE
360
20
  3
SPECULARTILE
360
1D
  0
DICTIONARY
  5
12
330
11
100
AcDbDictionary
280
     1
281
     1
  3
BUMPTILE
360
14
  3
DIFFUSETILE
360
13
  3
OPACITYTILE
360
17
  3
REFLECTIONTILE
360
16
  3
REFRACTIONTILE
360
18
  3
SPECULARTILE
360
15
  0
DICTIONARY
  5
22
330
21
100
AcDbDictionary
280
     1
281
     1
  3
BUMPTILE
360
24
  3
DIFFUSETILE
360
23
  3
OPACITYTILE
360
27
  3
REFLECTIONTILE
360
26
  3
REFRACTIONTILE
360
28
  3
SPECULARTILE
360
25
  0
DICTIONARY
  5
B7
330
65
100
AcDbDictionary
280
     1
281
     1
  3
ACAD_ROUNDTRIP_2008_TABLESTYLE_CELLSTYLEMAP
360
B8
  0
XRECORD
  5
1C
102
{ACAD_REACTORS
330
1A
102
}
330
1A
100
AcDbXrecord
280
     1
270
     1
271
     1
  0
XRECORD
  5
1B
102
{ACAD_REACTORS
330
1A
102
}
330
1A
100
AcDbXrecord
280
     1
270
     1
271
     1
  0
XRECORD
  5
1F
102
{ACAD_REACTORS
330
1A
102
}
330
1A
100
AcDbXrecord
280
     1
270
     1
271
     1
  0
XRECORD
  5
1E
102
{ACAD_REACTORS
330
1A
102
}
330
1A
100
AcDbXrecord
280
     1
270
     1
271
     1
  0
XRECORD
  5
20
102
{ACAD_REACTORS
330
1A
102
}
330
1A
100
AcDbXrecord
280
     1
270
     1
271
     1
  0
XRECORD
  5
1D
102
{ACAD_REACTORS
330
1A
102
}
330
1A
100
AcDbXrecord
280
     1
270
     1
271
     1
  0
XRECORD
  5
14
102
{ACAD_REACTORS
330
12
102
}
330
12
100
AcDbXrecord
280
     1
270
     1
271
     1
  0
XRECORD
  5
13
102
{ACAD_REACTORS
330
12
102
}
330
12
100
AcDbXrecord
280
     1
270
     1
271
     1
  0
XRECORD
  5
17
102
{ACAD_REACTORS
330
12
102
}
330
12
100
AcDbXrecord
280
     1
270
     1
271
     1
  0
XRECORD
  5
16
102
{ACAD_REACTORS
330
12
102
}
330
12
100
AcDbXrecord
280
     1
270
     1
271
     1
  0
XRECORD
  5
18
102
{ACAD_REACTORS
330
12
102
}
330
12
100
AcDbXrecord
280
     1
270
     1
271
     1
  0
XRECORD
  5
15
102
{ACAD_REACTORS
330
12
102
}
330
12
100
AcDbXrecord
280
     1
270
     1
271
     1
  0
XRECORD
  5
24
102
{ACAD_REACTORS
330
22
102
}
330
22
100
AcDbXrecord
280
     1
270
     1
271
     1
  0
XRECORD
  5
23
102
{ACAD_REACTORS
330
22
102
}
330
22
100
AcDbXrecord
280
     1
270
     1
271
     1
  0
XRECORD
  5
27
102
{ACAD_REACTORS
330
22
102
}
330
22
100
AcDbXrecord
280
     1
270
     1
271
     1
  0
XRECORD
  5
26
102
{ACAD_REACTORS
330
22
102
}
330
22
100
AcDbXrecord
280
     1
270
     1
271
     1
  0
XRECORD
  5
28
102
{ACAD_REACTORS
330
22
102
}
330
22
100
AcDbXrecord
280
     1
270
     1
271
     1
  0
XRECORD
  5
25
102
{ACAD_REACTORS
330
22
102
}
330
22
100
AcDbXrecord
280
     1
270
     1
271
     1
  0
CELLSTYLEMAP
  5
B8
102
{ACAD_REACTORS
330
B7
102
}
330
B7
100
AcDbCellStyleMap
 90
        3
300
CELLSTYLE
  1
TABLEFORMAT_BEGIN
 90
        5
170
     1
 91
        0
 92
    32768
 62
   257
 93
        1
300
CONTENTFORMAT
  1
CONTENTFORMAT_BEGIN
 90
        0
 91
        0
 92
      512
 93
        0
300

 40
0.0
140
1.0
 94
        5
 62
     0
340
55
144
0.25
309
CONTENTFORMAT_END
171
     0
 94
        0
309
TABLEFORMAT_END
  1
CELLSTYLE_BEGIN
 90
        1
 91
        1
300
_TITLE
309
CELLSTYLE_END
300
CELLSTYLE
  1
TABLEFORMAT_BEGIN
 90
        5
170
     1
 91
        0
 92
        0
 62
   257
 93
        1
300
CONTENTFORMAT
  1
CONTENTFORMAT_BEGIN
 90
        0
 91
        0
 92
      512
 93
        0
300

 40
0.0
140
1.0
 94
        5
 62
     0
340
55
144
0.18
309
CONTENTFORMAT_END
171
     0
 94
        0
309
TABLEFORMAT_END
  1
CELLSTYLE_BEGIN
 90
        2
 91
        1
300
_HEADER
309
CELLSTYLE_END
300
CELLSTYLE
  1
TABLEFORMAT_BEGIN
 90
        5
170
     1
 91
        0
 92
        0
 62
   257
 93
        1
300
CONTENTFORMAT
  1
CONTENTFORMAT_BEGIN
 90
        0
 91
        0
 92
      512
 93
        0
300

 40
0.0
140
1.0
 94
        2
 62
     0
340
55
144
0.18
309
CONTENTFORMAT_END
171
     0
 94
        0
309
TABLEFORMAT_END
  1
CELLSTYLE_BEGIN
 90
        3
 91
        2
300
_DATA
309
CELLSTYLE_END
  0
ENDSEC
  0
EOF
