0
SECTION
2
HEADER
9
$INSUNITS
70
4
0
ENDSEC
0
SECTION
2
TABLES
0
TABLE
2
LTYPE
0
LTYPE
72
65
70
64
2
CONTINUOUS
3
______
73
0
40
0
0
ENDTAB
0
TABLE
2
LAYER
0
ENDTAB
0
ENDSEC
0
SECTION
2
ENTITIES
0
LINE
8
front_outsideCutPath
10
0
20
65
11
0
21
49.75
0
LINE
8
front_outsideCutPath
10
0
20
49.75
11
2
21
49.75
0
LINE
8
front_outsideCutPath
10
2
20
49.75
11
2
21
39.25
0
LINE
8
front_outsideCutPath
10
2
20
39.25
11
0
21
39.25
0
LINE
8
front_outsideCutPath
10
0
20
39.25
11
0
21
28.75
0
LINE
8
front_outsideCutPath
10
0
20
28.75
11
2
21
28.75
0
LINE
8
front_outsideCutPath
10
2
20
28.75
11
2
21
18.25
0
LINE
8
front_outsideCutPath
10
2
20
18.25
11
0
21
18.25
0
LINE
8
front_outsideCutPath
10
0
20
18.25
11
0
21
7.75
0
LINE
8
front_outsideCutPath
10
0
20
7.75
11
0
21
3
0
LINE
8
front_outsideCutPath
10
0
20
3
11
8.75
21
3
0
LINE
8
front_outsideCutPath
10
8.75
20
3
11
8.75
21
5
0
LINE
8
front_outsideCutPath
10
8.75
20
5
11
19.25
21
5
0
LINE
8
front_outsideCutPath
10
19.25
20
5
11
19.25
21
3
0
LINE
8
front_outsideCutPath
10
19.25
20
3
11
29.75
21
3
0
LINE
8
front_outsideCutPath
10
29.75
20
3
11
29.75
21
5
0
LINE
8
front_outsideCutPath
10
29.75
20
5
11
40.25
21
5
0
LINE
8
front_outsideCutPath
10
40.25
20
5
11
40.25
21
3
0
LINE
8
front_outsideCutPath
10
40.25
20
3
11
50.75
21
3
0
LINE
8
front_outsideCutPath
10
50.75
20
3
11
50.75
21
5
0
LINE
8
front_outsideCutPath
10
50.75
20
5
11
61.25
21
5
0
LINE
8
front_outsideCutPath
10
61.25
20
5
11
61.25
21
3
0
LINE
8
front_outsideCutPath
10
61.25
20
3
11
71.75
21
3
0
LINE
8
front_outsideCutPath
10
71.75
20
3
11
71.75
21
5
0
LINE
8
front_outsideCutPath
10
71.75
20
5
11
82.25
21
5
0
LINE
8
front_outsideCutPath
10
82.25
20
5
11
82.25
21
3
0
LINE
8
front_outsideCutPath
10
82.25
20
3
11
92.75
21
3
0
LINE
8
front_outsideCutPath
10
92.75
20
3
11
92.75
21
5
0
LINE
8
front_outsideCutPath
10
92.75
20
5
11
103.25
21
5
0
LINE
8
front_outsideCutPath
10
103.25
20
5
11
103.25
21
3
0
LINE
8
front_outsideCutPath
10
103.25
20
3
11
112
21
3
0
LINE
8
front_outsideCutPath
10
112
20
3
11
112
21
18.25
0
LINE
8
front_outsideCutPath
10
112
20
18.25
11
110
21
18.25
0
LINE
8
front_outsideCutPath
10
110
20
18.25
11
110
21
28.75
0
LINE
8
front_outsideCutPath
10
110
20
28.75
11
112
21
28.75
0
LINE
8
front_outsideCutPath
10
112
20
28.75
11
112
21
39.25
0
LINE
8
front_outsideCutPath
10
112
20
39.25
11
110
21
39.25
0
LINE
8
front_outsideCutPath
10
110
20
39.25
11
110
21
49.75
0
LINE
8
front_outsideCutPath
10
110
20
49.75
11
112
21
49.75
0
LINE
8
front_outsideCutPath
10
112
20
49.75
11
112
21
60.25
0
LINE
8
front_outsideCutPath
10
112
20
60.25
11
112
21
65
0
LINE
8
front_outsideCutPath
10
112
20
65
11
103.25
21
65
0
LINE
8
front_outsideCutPath
10
103.25
20
65
11
103.25
21
63
0
LINE
8
front_outsideCutPath
10
103.25
20
63
11
92.75
21
63
0
LINE
8
front_outsideCutPath
10
92.75
20
63
11
92.75
21
65
0
LINE
8
front_outsideCutPath
10
92.75
20
65
11
82.25
21
65
0
LINE
8
front_outsideCutPath
10
82.25
20
65
11
82.25
21
63
0
LINE
8
front_outsideCutPath
10
82.25
20
63
11
71.75
21
63
0
LINE
8
front_outsideCutPath
10
71.75
20
63
11
71.75
21
65
0
LINE
8
front_outsideCutPath
10
71.75
20
65
11
61.25
21
65
0
LINE
8
front_outsideCutPath
10
61.25
20
65
11
61.25
21
63
0
LINE
8
front_outsideCutPath
10
61.25
20
63
11
50.75
21
63
0
LINE
8
front_outsideCutPath
10
50.75
20
63
11
50.75
21
65
0
LINE
8
front_outsideCutPath
10
50.75
20
65
11
40.25
21
65
0
LINE
8
front_outsideCutPath
10
40.25
20
65
11
40.25
21
63
0
LINE
8
front_outsideCutPath
10
40.25
20
63
11
29.75
21
63
0
LINE
8
front_outsideCutPath
10
29.75
20
63
11
29.75
21
65
0
LINE
8
front_outsideCutPath
10
29.75
20
65
11
19.25
21
65
0
LINE
8
front_outsideCutPath
10
19.25
20
65
11
19.25
21
63
0
LINE
8
front_outsideCutPath
10
19.25
20
63
11
8.75
21
63
0
LINE
8
front_outsideCutPath
10
8.75
20
63
11
8.75
21
65
0
LINE
8
front_outsideCutPath
10
8.75
20
65
11
0
21
65
0
LINE
8
left_outsideCutPath
10
117
20
65
11
117
21
49.75
0
LINE
8
left_outsideCutPath
10
117
20
49.75
11
115
21
49.75
0
LINE
8
left_outsideCutPath
10
115
20
49.75
11
115
21
39.25
0
LINE
8
left_outsideCutPath
10
115
20
39.25
11
117
21
39.25
0
LINE
8
left_outsideCutPath
10
117
20
39.25
11
117
21
28.75
0
LINE
8
left_outsideCutPath
10
117
20
28.75
11
115
21
28.75
0
LINE
8
left_outsideCutPath
10
115
20
28.75
11
115
21
18.25
0
LINE
8
left_outsideCutPath
10
115
20
18.25
11
117
21
18.25
0
LINE
8
left_outsideCutPath
10
117
20
18.25
11
117
21
7.75
0
LINE
8
left_outsideCutPath
10
117
20
7.75
11
117
21
3
0
LINE
8
left_outsideCutPath
10
117
20
3
11
122.25
21
3
0
LINE
8
left_outsideCutPath
10
122.25
20
3
11
122.25
21
5
0
LINE
8
left_outsideCutPath
10
122.25
20
5
11
132.75
21
5
0
LINE
8
left_outsideCutPath
10
132.75
20
5
11
132.75
21
3
0
LINE
8
left_outsideCutPath
10
132.75
20
3
11
143.25
21
3
0
LINE
8
left_outsideCutPath
10
143.25
20
3
11
143.25
21
5
0
LINE
8
left_outsideCutPath
10
143.25
20
5
11
153.75
21
5
0
LINE
8
left_outsideCutPath
10
153.75
20
5
11
153.75
21
3
0
LINE
8
left_outsideCutPath
10
153.75
20
3
11
159
21
3
0
LINE
8
left_outsideCutPath
10
159
20
3
11
159
21
18.25
0
LINE
8
left_outsideCutPath
10
159
20
18.25
11
161
21
18.25
0
LINE
8
left_outsideCutPath
10
161
20
18.25
11
161
21
28.75
0
LINE
8
left_outsideCutPath
10
161
20
28.75
11
159
21
28.75
0
LINE
8
left_outsideCutPath
10
159
20
28.75
11
159
21
39.25
0
LINE
8
left_outsideCutPath
10
159
20
39.25
11
161
21
39.25
0
LINE
8
left_outsideCutPath
10
161
20
39.25
11
161
21
49.75
0
LINE
8
left_outsideCutPath
10
161
20
49.75
11
159
21
49.75
0
LINE
8
left_outsideCutPath
10
159
20
49.75
11
159
21
60.25
0
LINE
8
left_outsideCutPath
10
159
20
60.25
11
159
21
65
0
LINE
8
left_outsideCutPath
10
159
20
65
11
153.75
21
65
0
LINE
8
left_outsideCutPath
10
153.75
20
65
11
153.75
21
63
0
LINE
8
left_outsideCutPath
10
153.75
20
63
11
143.25
21
63
0
LINE
8
left_outsideCutPath
10
143.25
20
63
11
143.25
21
65
0
LINE
8
left_outsideCutPath
10
143.25
20
65
11
132.75
21
65
0
LINE
8
left_outsideCutPath
10
132.75
20
65
11
132.75
21
63
0
LINE
8
left_outsideCutPath
10
132.75
20
63
11
122.25
21
63
0
LINE
8
left_outsideCutPath
10
122.25
20
63
11
122.25
21
65
0
LINE
8
left_outsideCutPath
10
122.25
20
65
11
117
21
65
0
LINE
8
top_outsideCutPath
10
166
20
47
11
166
21
41.75
0
LINE
8
top_outsideCutPath
10
166
20
41.75
11
164
21
41.75
0
LINE
8
top_outsideCutPath
10
164
20
41.75
11
164
21
31.25
0
LINE
8
top_outsideCutPath
10
164
20
31.25
11
166
21
31.25
0
LINE
8
top_outsideCutPath
10
166
20
31.25
11
166
21
20.75
0
LINE
8
top_outsideCutPath
10
166
20
20.75
11
164
21
20.75
0
LINE
8
top_outsideCutPath
10
164
20
20.75
11
164
21
10.25
0
LINE
8
top_outsideCutPath
10
164
20
10.25
11
166
21
10.25
0
LINE
8
top_outsideCutPath
10
166
20
10.25
11
166
21
5
0
LINE
8
top_outsideCutPath
10
166
20
5
11
172.75
21
5
0
LINE
8
top_outsideCutPath
10
172.75
20
5
11
172.75
21
3
0
LINE
8
top_outsideCutPath
10
172.75
20
3
11
183.25
21
3
0
LINE
8
top_outsideCutPath
10
183.25
20
3
11
183.25
21
5
0
LINE
8
top_outsideCutPath
10
183.25
20
5
11
193.75
21
5
0
LINE
8
top_outsideCutPath
10
193.75
20
5
11
193.75
21
3
0
LINE
8
top_outsideCutPath
10
193.75
20
3
11
204.25
21
3
0
LINE
8
top_outsideCutPath
10
204.25
20
3
11
204.25
21
5
0
LINE
8
top_outsideCutPath
10
204.25
20
5
11
214.75
21
5
0
LINE
8
top_outsideCutPath
10
214.75
20
5
11
214.75
21
3
0
LINE
8
top_outsideCutPath
10
214.75
20
3
11
225.25
21
3
0
LINE
8
top_outsideCutPath
10
225.25
20
3
11
225.25
21
5
0
LINE
8
top_outsideCutPath
10
225.25
20
5
11
235.75
21
5
0
LINE
8
top_outsideCutPath
10
235.75
20
5
11
235.75
21
3
0
LINE
8
top_outsideCutPath
10
235.75
20
3
11
246.25
21
3
0
LINE
8
top_outsideCutPath
10
246.25
20
3
11
246.25
21
5
0
LINE
8
top_outsideCutPath
10
246.25
20
5
11
256.75
21
5
0
LINE
8
top_outsideCutPath
10
256.75
20
5
11
256.75
21
3
0
LINE
8
top_outsideCutPath
10
256.75
20
3
11
267.25
21
3
0
LINE
8
top_outsideCutPath
10
267.25
20
3
11
267.25
21
5
0
LINE
8
top_outsideCutPath
10
267.25
20
5
11
274
21
5
0
LINE
8
top_outsideCutPath
10
274
20
5
11
274
21
10.25
0
LINE
8
top_outsideCutPath
10
274
20
10.25
11
276
21
10.25
0
LINE
8
top_outsideCutPath
10
276
20
10.25
11
276
21
20.75
0
LINE
8
top_outsideCutPath
10
276
20
20.75
11
274
21
20.75
0
LINE
8
top_outsideCutPath
10
274
20
20.75
11
274
21
31.25
0
LINE
8
top_outsideCutPath
10
274
20
31.25
11
276
21
31.25
0
LINE
8
top_outsideCutPath
10
276
20
31.25
11
276
21
41.75
0
LINE
8
top_outsideCutPath
10
276
20
41.75
11
274
21
41.75
0
LINE
8
top_outsideCutPath
10
274
20
41.75
11
274
21
47
0
LINE
8
top_outsideCutPath
10
274
20
47
11
267.25
21
47
0
LINE
8
top_outsideCutPath
10
267.25
20
47
11
267.25
21
49
0
LINE
8
top_outsideCutPath
10
267.25
20
49
11
256.75
21
49
0
LINE
8
top_outsideCutPath
10
256.75
20
49
11
256.75
21
47
0
LINE
8
top_outsideCutPath
10
256.75
20
47
11
246.25
21
47
0
LINE
8
top_outsideCutPath
10
246.25
20
47
11
246.25
21
49
0
LINE
8
top_outsideCutPath
10
246.25
20
49
11
235.75
21
49
0
LINE
8
top_outsideCutPath
10
235.75
20
49
11
235.75
21
47
0
LINE
8
top_outsideCutPath
10
235.75
20
47
11
225.25
21
47
0
LINE
8
top_outsideCutPath
10
225.25
20
47
11
225.25
21
49
0
LINE
8
top_outsideCutPath
10
225.25
20
49
11
214.75
21
49
0
LINE
8
top_outsideCutPath
10
214.75
20
49
11
214.75
21
47
0
LINE
8
top_outsideCutPath
10
214.75
20
47
11
204.25
21
47
0
LINE
8
top_outsideCutPath
10
204.25
20
47
11
204.25
21
49
0
LINE
8
top_outsideCutPath
10
204.25
20
49
11
193.75
21
49
0
LINE
8
top_outsideCutPath
10
193.75
20
49
11
193.75
21
47
0
LINE
8
top_outsideCutPath
10
193.75
20
47
11
183.25
21
47
0
LINE
8
top_outsideCutPath
10
183.25
20
47
11
183.25
21
49
0
LINE
8
top_outsideCutPath
10
183.25
20
49
11
172.75
21
49
0
LINE
8
top_outsideCutPath
10
172.75
20
49
11
172.75
21
47
0
LINE
8
top_outsideCutPath
10
172.75
20
47
11
166
21
47
0
LINE
8
back_outsideCutPath
10
0
20
130
11
0
21
114.75
0
LINE
8
back_outsideCutPath
10
0
20
114.75
11
2
21
114.75
0
LINE
8
back_outsideCutPath
10
2
20
114.75
11
2
21
104.25
0
LINE
8
back_outsideCutPath
10
2
20
104.25
11
0
21
104.25
0
LINE
8
back_outsideCutPath
10
0
20
104.25
11
0
21
93.75
0
LINE
8
back_outsideCutPath
10
0
20
93.75
11
2
21
93.75
0
LINE
8
back_outsideCutPath
10
2
20
93.75
11
2
21
83.25
0
LINE
8
back_outsideCutPath
10
2
20
83.25
11
0
21
83.25
0
LINE
8
back_outsideCutPath
10
0
20
83.25
11
0
21
72.75
0
LINE
8
back_outsideCutPath
10
0
20
72.75
11
0
21
68
0
LINE
8
back_outsideCutPath
10
0
20
68
11
8.75
21
68
0
LINE
8
back_outsideCutPath
10
8.75
20
68
11
8.75
21
70
0
LINE
8
back_outsideCutPath
10
8.75
20
70
11
19.25
21
70
0
LINE
8
back_outsideCutPath
10
19.25
20
70
11
19.25
21
68
0
LINE
8
back_outsideCutPath
10
19.25
20
68
11
29.75
21
68
0
LINE
8
back_outsideCutPath
10
29.75
20
68
11
29.75
21
70
0
LINE
8
back_outsideCutPath
10
29.75
20
70
11
40.25
21
70
0
LINE
8
back_outsideCutPath
10
40.25
20
70
11
40.25
21
68
0
LINE
8
back_outsideCutPath
10
40.25
20
68
11
50.75
21
68
0
LINE
8
back_outsideCutPath
10
50.75
20
68
11
50.75
21
70
0
LINE
8
back_outsideCutPath
10
50.75
20
70
11
61.25
21
70
0
LINE
8
back_outsideCutPath
10
61.25
20
70
11
61.25
21
68
0
LINE
8
back_outsideCutPath
10
61.25
20
68
11
71.75
21
68
0
LINE
8
back_outsideCutPath
10
71.75
20
68
11
71.75
21
70
0
LINE
8
back_outsideCutPath
10
71.75
20
70
11
82.25
21
70
0
LINE
8
back_outsideCutPath
10
82.25
20
70
11
82.25
21
68
0
LINE
8
back_outsideCutPath
10
82.25
20
68
11
92.75
21
68
0
LINE
8
back_outsideCutPath
10
92.75
20
68
11
92.75
21
70
0
LINE
8
back_outsideCutPath
10
92.75
20
70
11
103.25
21
70
0
LINE
8
back_outsideCutPath
10
103.25
20
70
11
103.25
21
68
0
LINE
8
back_outsideCutPath
10
103.25
20
68
11
112
21
68
0
LINE
8
back_outsideCutPath
10
112
20
68
11
112
21
83.25
0
LINE
8
back_outsideCutPath
10
112
20
83.25
11
110
21
83.25
0
LINE
8
back_outsideCutPath
10
110
20
83.25
11
110
21
93.75
0
LINE
8
back_outsideCutPath
10
110
20
93.75
11
112
21
93.75
0
LINE
8
back_outsideCutPath
10
112
20
93.75
11
112
21
104.25
0
LINE
8
back_outsideCutPath
10
112
20
104.25
11
110
21
104.25
0
LINE
8
back_outsideCutPath
10
110
20
104.25
11
110
21
114.75
0
LINE
8
back_outsideCutPath
10
110
20
114.75
11
112
21
114.75
0
LINE
8
back_outsideCutPath
10
112
20
114.75
11
112
21
125.25
0
LINE
8
back_outsideCutPath
10
112
20
125.25
11
112
21
130
0
LINE
8
back_outsideCutPath
10
112
20
130
11
103.25
21
130
0
LINE
8
back_outsideCutPath
10
103.25
20
130
11
103.25
21
128
0
LINE
8
back_outsideCutPath
10
103.25
20
128
11
92.75
21
128
0
LINE
8
back_outsideCutPath
10
92.75
20
128
11
92.75
21
130
0
LINE
8
back_outsideCutPath
10
92.75
20
130
11
82.25
21
130
0
LINE
8
back_outsideCutPath
10
82.25
20
130
11
82.25
21
128
0
LINE
8
back_outsideCutPath
10
82.25
20
128
11
71.75
21
128
0
LINE
8
back_outsideCutPath
10
71.75
20
128
11
71.75
21
130
0
LINE
8
back_outsideCutPath
10
71.75
20
130
11
61.25
21
130
0
LINE
8
back_outsideCutPath
10
61.25
20
130
11
61.25
21
128
0
LINE
8
back_outsideCutPath
10
61.25
20
128
11
50.75
21
128
0
LINE
8
back_outsideCutPath
10
50.75
20
128
11
50.75
21
130
0
LINE
8
back_outsideCutPath
10
50.75
20
130
11
40.25
21
130
0
LINE
8
back_outsideCutPath
10
40.25
20
130
11
40.25
21
128
0
LINE
8
back_outsideCutPath
10
40.25
20
128
11
29.75
21
128
0
LINE
8
back_outsideCutPath
10
29.75
20
128
11
29.75
21
130
0
LINE
8
back_outsideCutPath
10
29.75
20
130
11
19.25
21
130
0
LINE
8
back_outsideCutPath
10
19.25
20
130
11
19.25
21
128
0
LINE
8
back_outsideCutPath
10
19.25
20
128
11
8.75
21
128
0
LINE
8
back_outsideCutPath
10
8.75
20
128
11
8.75
21
130
0
LINE
8
back_outsideCutPath
10
8.75
20
130
11
0
21
130
0
LINE
8
right_outsideCutPath
10
117
20
130
11
117
21
114.75
0
LINE
8
right_outsideCutPath
10
117
20
114.75
11
115
21
114.75
0
LINE
8
right_outsideCutPath
10
115
20
114.75
11
115
21
104.25
0
LINE
8
right_outsideCutPath
10
115
20
104.25
11
117
21
104.25
0
LINE
8
right_outsideCutPath
10
117
20
104.25
11
117
21
93.75
0
LINE
8
right_outsideCutPath
10
117
20
93.75
11
115
21
93.75
0
LINE
8
right_outsideCutPath
10
115
20
93.75
11
115
21
83.25
0
LINE
8
right_outsideCutPath
10
115
20
83.25
11
117
21
83.25
0
LINE
8
right_outsideCutPath
10
117
20
83.25
11
117
21
72.75
0
LINE
8
right_outsideCutPath
10
117
20
72.75
11
117
21
68
0
LINE
8
right_outsideCutPath
10
117
20
68
11
122.25
21
68
0
LINE
8
right_outsideCutPath
10
122.25
20
68
11
122.25
21
70
0
LINE
8
right_outsideCutPath
10
122.25
20
70
11
132.75
21
70
0
LINE
8
right_outsideCutPath
10
132.75
20
70
11
132.75
21
68
0
LINE
8
right_outsideCutPath
10
132.75
20
68
11
143.25
21
68
0
LINE
8
right_outsideCutPath
10
143.25
20
68
11
143.25
21
70
0
LINE
8
right_outsideCutPath
10
143.25
20
70
11
153.75
21
70
0
LINE
8
right_outsideCutPath
10
153.75
20
70
11
153.75
21
68
0
LINE
8
right_outsideCutPath
10
153.75
20
68
11
159
21
68
0
LINE
8
right_outsideCutPath
10
159
20
68
11
159
21
83.25
0
LINE
8
right_outsideCutPath
10
159
20
83.25
11
161
21
83.25
0
LINE
8
right_outsideCutPath
10
161
20
83.25
11
161
21
93.75
0
LINE
8
right_outsideCutPath
10
161
20
93.75
11
159
21
93.75
0
LINE
8
right_outsideCutPath
10
159
20
93.75
11
159
21
104.25
0
LINE
8
right_outsideCutPath
10
159
20
104.25
11
161
21
104.25
0
LINE
8
right_outsideCutPath
10
161
20
104.25
11
161
21
114.75
0
LINE
8
right_outsideCutPath
10
161
20
114.75
11
159
21
114.75
0
LINE
8
right_outsideCutPath
10
159
20
114.75
11
159
21
125.25
0
LINE
8
right_outsideCutPath
10
159
20
125.25
11
159
21
130
0
LINE
8
right_outsideCutPath
10
159
20
130
11
153.75
21
130
0
LINE
8
right_outsideCutPath
10
153.75
20
130
11
153.75
21
128
0
LINE
8
right_outsideCutPath
10
153.75
20
128
11
143.25
21
128
0
LINE
8
right_outsideCutPath
10
143.25
20
128
11
143.25
21
130
0
LINE
8
right_outsideCutPath
10
143.25
20
130
11
132.75
21
130
0
LINE
8
right_outsideCutPath
10
132.75
20
130
11
132.75
21
128
0
LINE
8
right_outsideCutPath
10
132.75
20
128
11
122.25
21
128
0
LINE
8
right_outsideCutPath
10
122.25
20
128
11
122.25
21
130
0
LINE
8
right_outsideCutPath
10
122.25
20
130
11
117
21
130
0
LINE
8
bottom_outsideCutPath
10
166
20
96
11
166
21
90.75
0
LINE
8
bottom_outsideCutPath
10
166
20
90.75
11
164
21
90.75
0
LINE
8
bottom_outsideCutPath
10
164
20
90.75
11
164
21
80.25
0
LINE
8
bottom_outsideCutPath
10
164
20
80.25
11
166
21
80.25
0
LINE
8
bottom_outsideCutPath
10
166
20
80.25
11
166
21
69.75
0
LINE
8
bottom_outsideCutPath
10
166
20
69.75
11
164
21
69.75
0
LINE
8
bottom_outsideCutPath
10
164
20
69.75
11
164
21
59.25
0
LINE
8
bottom_outsideCutPath
10
164
20
59.25
11
166
21
59.25
0
LINE
8
bottom_outsideCutPath
10
166
20
59.25
11
166
21
54
0
LINE
8
bottom_outsideCutPath
10
166
20
54
11
172.75
21
54
0
LINE
8
bottom_outsideCutPath
10
172.75
20
54
11
172.75
21
52
0
LINE
8
bottom_outsideCutPath
10
172.75
20
52
11
183.25
21
52
0
LINE
8
bottom_outsideCutPath
10
183.25
20
52
11
183.25
21
54
0
LINE
8
bottom_outsideCutPath
10
183.25
20
54
11
193.75
21
54
0
LINE
8
bottom_outsideCutPath
10
193.75
20
54
11
193.75
21
52
0
LINE
8
bottom_outsideCutPath
10
193.75
20
52
11
204.25
21
52
0
LINE
8
bottom_outsideCutPath
10
204.25
20
52
11
204.25
21
54
0
LINE
8
bottom_outsideCutPath
10
204.25
20
54
11
214.75
21
54
0
LINE
8
bottom_outsideCutPath
10
214.75
20
54
11
214.75
21
52
0
LINE
8
bottom_outsideCutPath
10
214.75
20
52
11
225.25
21
52
0
LINE
8
bottom_outsideCutPath
10
225.25
20
52
11
225.25
21
54
0
LINE
8
bottom_outsideCutPath
10
225.25
20
54
11
235.75
21
54
0
LINE
8
bottom_outsideCutPath
10
235.75
20
54
11
235.75
21
52
0
LINE
8
bottom_outsideCutPath
10
235.75
20
52
11
246.25
21
52
0
LINE
8
bottom_outsideCutPath
10
246.25
20
52
11
246.25
21
54
0
LINE
8
bottom_outsideCutPath
10
246.25
20
54
11
256.75
21
54
0
LINE
8
bottom_outsideCutPath
10
256.75
20
54
11
256.75
21
52
0
LINE
8
bottom_outsideCutPath
10
256.75
20
52
11
267.25
21
52
0
LINE
8
bottom_outsideCutPath
10
267.25
20
52
11
267.25
21
54
0
LINE
8
bottom_outsideCutPath
10
267.25
20
54
11
274
21
54
0
LINE
8
bottom_outsideCutPath
10
274
20
54
11
274
21
59.25
0
LINE
8
bottom_outsideCutPath
10
274
20
59.25
11
276
21
59.25
0
LINE
8
bottom_outsideCutPath
10
276
20
59.25
11
276
21
69.75
0
LINE
8
bottom_outsideCutPath
10
276
20
69.75
11
274
21
69.75
0
LINE
8
bottom_outsideCutPath
10
274
20
69.75
11
274
21
80.25
0
LINE
8
bottom_outsideCutPath
10
274
20
80.25
11
276
21
80.25
0
LINE
8
bottom_outsideCutPath
10
276
20
80.25
11
276
21
90.75
0
LINE
8
bottom_outsideCutPath
10
276
20
90.75
11
274
21
90.75
0
LINE
8
bottom_outsideCutPath
10
274
20
90.75
11
274
21
96
0
LINE
8
bottom_outsideCutPath
10
274
20
96
11
267.25
21
96
0
LINE
8
bottom_outsideCutPath
10
267.25
20
96
11
267.25
21
98
0
LINE
8
bottom_outsideCutPath
10
267.25
20
98
11
256.75
21
98
0
LINE
8
bottom_outsideCutPath
10
256.75
20
98
11
256.75
21
96
0
LINE
8
bottom_outsideCutPath
10
256.75
20
96
11
246.25
21
96
0
LINE
8
bottom_outsideCutPath
10
246.25
20
96
11
246.25
21
98
0
LINE
8
bottom_outsideCutPath
10
246.25
20
98
11
235.75
21
98
0
LINE
8
bottom_outsideCutPath
10
235.75
20
98
11
235.75
21
96
0
LINE
8
bottom_outsideCutPath
10
235.75
20
96
11
225.25
21
96
0
LINE
8
bottom_outsideCutPath
10
225.25
20
96
11
225.25
21
98
0
LINE
8
bottom_outsideCutPath
10
225.25
20
98
11
214.75
21
98
0
LINE
8
bottom_outsideCutPath
10
214.75
20
98
11
214.75
21
96
0
LINE
8
bottom_outsideCutPath
10
214.75
20
96
11
204.25
21
96
0
LINE
8
bottom_outsideCutPath
10
204.25
20
96
11
204.25
21
98
0
LINE
8
bottom_outsideCutPath
10
204.25
20
98
11
193.75
21
98
0
LINE
8
bottom_outsideCutPath
10
193.75
20
98
11
193.75
21
96
0
LINE
8
bottom_outsideCutPath
10
193.75
20
96
11
183.25
21
96
0
LINE
8
bottom_outsideCutPath
10
183.25
20
96
11
183.25
21
98
0
LINE
8
bottom_outsideCutPath
10
183.25
20
98
11
172.75
21
98
0
LINE
8
bottom_outsideCutPath
10
172.75
20
98
11
172.75
21
96
0
LINE
8
bottom_outsideCutPath
10
172.75
20
96
11
166
21
96
0
ENDSEC
0
EOF